<?xml version="1.0" encoding="UTF-8"?>
<svg width="512" height="512" version="1.1" viewBox="0 0 135.47 135.47" xmlns="http://www.w3.org/2000/svg">
 <path d="m135.47 67.735a67.735 67.735 0 0 1-67.735 67.735 67.735 67.735 0 0 1-67.735-67.735 67.735 67.735 0 0 1 67.735-67.735 67.735 67.735 0 0 1 67.735 67.735z" fill="#0a1720" stroke-width=".23561"/>
 <g transform="matrix(1.1807 0 0 1.1807 25.729 15.754)" fill="#ffa729" fill-rule="evenodd">
  <g transform="translate(0 .2955)" fill="#ffa729">
   <path d="m71.154 36.282c0-19.685-16.071-35.684-35.779-35.578-18.466 0.10153-34.094 14.755-35.297 33.186-0.858 13.184 5.428 25.461 16.474 32.463l-0.013 5.142-12.014 0.039v-8.182h-4.502v12.648h21.024l0.013-9.729c3e-3 -1.505-0.777-2.896-2.087-3.725-9.056-5.724-14.465-15.54-14.465-26.264 0-17.072 13.841-30.971 30.89-31.072 16.705-0.097 30.682 13.314 31.235 30.009 0.37 11.133-5.091 21.415-14.446 27.327-1.31 0.829-2.09 2.22-2.087 3.725l0.023 9.729h21.015v-12.648h-4.505l0.039 8.143-12.053 0.039-0.013-5.185c10.359-6.556 16.548-17.793 16.548-30.067"/>
   <path d="m35.577 31.826c-2.457 0-4.456 1.999-4.456 4.456 0 2.458 1.999 4.457 4.456 4.457s4.456-1.999 4.456-4.457c0-2.457-1.999-4.456-4.456-4.456"/>
   <path d="m46.781 35.45c1.583 1.469 3.338 3.254 4.83 4.947 3.29 3.735 3.868 6.095 3.313 7.054-0.53 0.92-2.923 1.518-7.064 0.79-0.673-0.117-1.365-0.27-2.074-0.445 0.663-3.618 1.002-7.574 1.002-11.517-4e-3 -0.273-4e-3 -0.553-7e-3 -0.829m-14.556 6.638c-3.276-1.892-6.078-3.882-8.389-5.812 2.434-2.029 5.282-4.005 8.389-5.799 3.108-1.795 6.241-3.274 9.215-4.366 0.52 2.968 0.839 6.391 0.839 10.171s-0.319 7.207-0.839 10.171c-2.974-1.092-6.107-2.571-9.215-4.365m-5.048 5.213c-6.267 2.188-10.236 1.382-10.948 0.15-0.53-0.92 0.143-3.29 2.848-6.514 0.438-0.523 0.916-1.05 1.423-1.573 2.802 2.382 6.059 4.651 9.472 6.624 0.085 0.049 0.173 0.098 0.257 0.147-1.215 0.481-2.379 0.932-3.052 1.166m3-23.407c0.452-2.012 1.05-3.858 1.05-3.858 1.466-4.209 3.241-6.095 4.349-6.095 1.509 0 3.452 2.848 4.86 7.746-3.39 1.203-6.956 2.861-10.464 4.886-0.139 0.081-0.276 0.162-0.412 0.244 0.198-1.002 0.406-1.977 0.617-2.923m21.073 29.187c4.541 0 6.622-1.726 7.574-3.377 1.834-3.176 0.546-7.311-3.832-12.284-2.425-2.753-6.082-6.355-8.565-8.146-0.16-1.544-0.374-3.056-0.641-4.512 0.709-0.175 1.405-0.325 2.074-0.445 4.141-0.731 6.534-0.13 7.064 0.79 0.357 0.621 0.084 1.908-0.751 3.533-0.715 1.395-1.362 2.168-1.567 2.396 1.29 1.154 2.457 2.36 3.208 3.166 0.381-0.403 1.349-1.525 2.367-3.501 1.618-3.147 1.836-5.786 0.646-7.847-1.205-2.09-4.222-4.3-11.747-2.974-0.751 0.133-1.524 0.299-2.311 0.494-1.843-6.407-4.928-10.941-9.189-10.941-2.477 0-5.981 1.583-8.617 9.16-0.026 0.084-0.673 2.07-1.177 4.31-0.514 2.279-0.992 4.726-1.424 7.284-1.365 0.979-2.652 1.983-3.849 3.004-3.546-3.667-5.038-6.774-4.284-8.081 0.455-0.787 1.882-1.44 4.044-1.128 1.245 0.179 2.08 0.377 2.438 0.471 0.331-1.7 0.77-3.322 1.076-4.375-0.524-0.133-1.489-0.354-2.871-0.556-3.796-0.546-7.086 0.732-8.587 3.335-2.133 3.693 0.25 8.634 4.879 13.432-0.563 0.585-1.096 1.17-1.583 1.755-4.909 5.854-4.502 9.573-3.296 11.66 1.336 2.311 4.099 3.497 7.778 3.497 2.487 0 5.396-0.543 8.559-1.648 1.518-0.53 5.139-1.992 6.849-2.691 1.664 0.767 3.312 1.44 4.921 2.012-1.408 4.898-3.351 7.746-4.86 7.746-1.196 0-2.636-1.749-3.764-4.567-0.045-0.114-0.123-0.342-0.208-0.592-1.527 0.602-3.104 1.089-4.274 1.424 0.101 0.305 0.211 0.627 0.299 0.842 2.448 6.114 5.672 7.398 7.947 7.398 4.265 0 7.35-4.534 9.19-10.941 0.79 0.195 1.56 0.361 2.311 0.494 1.583 0.279 2.964 0.403 4.173 0.403"/>
  </g>
 </g>
</svg>
