<?xml version="1.0" standalone="no"?>
<!DOCTYPE svg PUBLIC "-//W3C//DTD SVG 1.1//EN" "http://www.w3.org/Graphics/SVG/1.1/DTD/svg11.dtd" >
<svg xmlns="http://www.w3.org/2000/svg" xmlns:xlink="http://www.w3.org/1999/xlink" version="1.1">
<metadata></metadata>
<defs>
<font id="alte_din_1451_mittelschriftRg" horiz-adv-x="1024" >
<font-face units-per-em="2048" ascent="1638" descent="-410" />
<missing-glyph horiz-adv-x="491" />
<glyph horiz-adv-x="0" />
<glyph unicode="&#xd;" horiz-adv-x="0" />
<glyph unicode=" "  horiz-adv-x="491" />
<glyph unicode="&#x09;" horiz-adv-x="491" />
<glyph unicode="&#xa0;" horiz-adv-x="491" />
<glyph unicode="!" horiz-adv-x="528" d="M213 359l-78 1097h262l-80 -1097h-104zM161 -1v208h209v-208h-209z" />
<glyph unicode="&#x22;" horiz-adv-x="597" d="M88 1095v361h154v-361h-154zM356 1095v361h155v-361h-155z" />
<glyph unicode="#" horiz-adv-x="983" d="M571 580l45 295h-201l-45 -295h201zM493 -1l64 446h-201l-64 -446h-159l63 446h-188v135h203l45 295h-189v135h203l63 446h160l-63 -446h200l64 446h159l-63 -446h188v-135h-202l-45 -295h188v-135h-203l-63 -446h-160z" />
<glyph unicode="$" horiz-adv-x="983" d="M18 181l143 151q52 -60 117 -100t162 -49v456q-192 45 -274 149t-82 261q0 177 95.5 288t260.5 132v143h104v-143q185 -3 346 -138l-118 -155q-97 86 -228 96v-436q197 -39 286 -151.5t89 -270.5q0 -171 -103 -287t-272 -140v-221h-104v221q-117 -1 -229 54.5t-193 139.5 zM440 861v411q-60 -9 -104 -61.5t-44 -157.5q0 -72 31.5 -118.5t116.5 -73.5zM544 615v-432q93 22 129.5 82.5t36.5 150.5q0 69 -34 124.5t-132 74.5z" />
<glyph unicode="%" horiz-adv-x="1062" d="M692 314v-111q0 -100 76 -100q75 0 75 100v111q0 100 -75 100q-76 0 -76 -100zM575 189v139q0 107 59 155t134 48q73 0 132.5 -48t59.5 -155v-139q0 -108 -59.5 -155t-132.5 -47q-75 0 -134 47t-59 155zM106 1127v139q0 107 59 155t134 48q73 0 132.5 -48t59.5 -155v-139 q0 -108 -59.5 -155.5t-132.5 -47.5q-75 0 -134 47.5t-59 155.5zM223 1252v-111q0 -100 76 -100q75 0 75 100v111q0 100 -75 100q-76 0 -76 -100zM120 -1l691 1457h135l-690 -1457h-136z" />
<glyph unicode="&#x26;" horiz-adv-x="1327" d="M424 1145q0 -89 108 -186q101 38 139.5 84.5t38.5 101.5q0 57 -41 98t-102 41q-62 0 -102.5 -41t-40.5 -98zM1085 -1l-135 147q-91 -68 -191 -113.5t-217 -45.5q-206 0 -333 134t-127 314q0 129 72 242.5t206 183.5q-53 59 -87 130.5t-34 145.5q0 132 90 232t238 100 q147 0 237 -100t90 -232q0 -212 -243 -326l311 -374q44 56 73.5 116.5t53.5 126.5l186 -73q-33 -81 -81 -166.5t-109 -149.5l246 -292h-246zM829 299l-352 422q-211 -115 -211 -284q0 -116 80.5 -191.5t189.5 -75.5q67 0 144 30t149 99z" />
<glyph unicode="'" horiz-adv-x="491" d="M143 1096v209l209 151v-360h-209z" />
<glyph unicode="(" horiz-adv-x="569" d="M530 -210h-82q-162 180 -242.5 401t-80.5 432q0 210 80.5 431.5t242.5 401.5h82q-93 -194 -145 -402.5t-52 -430.5q0 -223 52 -431t145 -402z" />
<glyph unicode=")" horiz-adv-x="569" d="M43 1456h82q161 -180 242 -401.5t81 -431.5q0 -211 -81 -432t-242 -401h-82q91 194 143.5 402t52.5 431q0 222 -52.5 430.5t-143.5 402.5z" />
<glyph unicode="*" horiz-adv-x="720" d="M301 850v199l-164 -94l-62 94l170 104l-170 105l62 94l164 -94v198h123v-198l163 94l62 -94l-170 -105l170 -104l-62 -94l-163 94v-199h-123z" />
<glyph unicode="+" horiz-adv-x="1228" d="M536 596v439h160v-439h438v-159h-438v-438h-160v438h-438v159h438z" />
<glyph unicode="," horiz-adv-x="491" d="M143 -152v359h209v-208z" />
<glyph unicode="-" horiz-adv-x="833" d="M110 461v209h617v-209h-617z" />
<glyph unicode="." horiz-adv-x="491" d="M143 -1v208h209v-208h-209z" />
<glyph unicode="/" horiz-adv-x="681" d="M18 -13l489 1482h160l-489 -1482h-160z" />
<glyph unicode="0" horiz-adv-x="983" d="M698 418v619q0 105 -56.5 164t-148.5 59q-93 0 -149 -59t-56 -164v-619q0 -106 56 -164.5t149 -58.5q92 0 148.5 58.5t56.5 164.5zM79 406v643q0 201 126 310.5t288 109.5q161 0 287.5 -109.5t126.5 -310.5v-643q0 -201 -126.5 -310t-287.5 -109q-162 0 -288 109 t-126 310z" />
<glyph unicode="1" horiz-adv-x="691" d="M344 -4v1239l-208 -152v222l208 151h210v-1460h-210z" />
<glyph unicode="2" horiz-adv-x="983" d="M67 -1v196l570 713q33 42 43 77t10 68q0 76 -54 141.5t-147 65.5q-85 0 -145.5 -56.5t-67.5 -154.5h-209q1 177 121 298.5t285 121.5q182 0 303.5 -122.5t121.5 -295.5q0 -148 -87 -256l-469 -588h556v-208h-831z" />
<glyph unicode="3" horiz-adv-x="983" d="M362 658v184h72q104 0 164.5 58.5t60.5 148.5q0 89 -63 150t-150 61q-66 0 -125 -44t-76 -132h-209q12 154 129 269.5t273 115.5q195 0 312.5 -128.5t117.5 -287.5q0 -84 -33 -163.5t-123 -137.5q92 -59 132 -145t40 -174q0 -204 -128 -325t-314 -121q-148 0 -266.5 95.5 t-147.5 278.5h209q29 -75 78 -120.5t139 -45.5q87 0 154 61.5t67 169.5q0 109 -66.5 170.5t-158.5 61.5h-88z" />
<glyph unicode="4" horiz-adv-x="983" d="M26 215v197l488 1044h233l-493 -1044h380v420h209v-420h117v-197h-117v-216h-209v216h-608z" />
<glyph unicode="5" horiz-adv-x="983" d="M104 668v788h776v-209h-579v-329q100 80 233 80q83 0 151.5 -32t108.5 -75q60 -65 87.5 -141.5t27.5 -257.5q0 -147 -21.5 -218.5t-68.5 -131.5q-45 -57 -126 -106t-190 -49q-141 0 -272 87t-154 291h209q37 -170 209 -170q153 0 179 105t26 208q0 121 -41 201t-170 80 q-121 0 -188 -121h-197z" />
<glyph unicode="6" horiz-adv-x="991" d="M101 403v645q1 202 126 312q115 108 276 108q143 0 256 -84q107 -85 139 -247h-210q-49 120 -186 123q-196 -5 -198 -225v-137q144 46 270 45q140 0 238 -96q95 -99 93 -310v-133q-3 -203 -121 -311q-113 -106 -281 -110q-163 4 -276 109q-125 109 -126 311zM304 535 v-120q3 -223 199 -224q193 1 200 224v120q-7 219 -200 223q-196 -4 -199 -223z" />
<glyph unicode="7" horiz-adv-x="983" d="M106 1037v419h829v-209l-493 -1248h-234l494 1248h-387v-210h-209z" />
<glyph unicode="8" horiz-adv-x="983" d="M284 1051q0 -103 64.5 -156t144.5 -53t144.5 53t64.5 156q0 102 -64.5 155.5t-144.5 53.5t-144.5 -53.5t-64.5 -155.5zM49 424q0 213 172 328q-65 58 -105.5 128.5t-40.5 166.5q0 176 120.5 299t297.5 123t297.5 -123t120.5 -299q0 -96 -41 -166.5t-104 -128.5 q171 -116 171 -328q0 -194 -131.5 -315.5t-312.5 -121.5q-182 0 -313 121.5t-131 315.5zM258 426q0 -100 70.5 -165.5t164.5 -65.5q93 0 164.5 65.5t71.5 165.5t-71.5 166t-164.5 66q-94 0 -164.5 -66t-70.5 -166z" />
<glyph unicode="9" horiz-adv-x="1011" d="M101 914v135q1 201 126 311q115 108 276 108q165 0 281 -108q118 -111 121 -312v-644q-3 -201 -121 -311q-113 -106 -281 -110q-144 4 -251 87q-112 86 -143 244h209q48 -123 185 -123q193 1 200 224v138q-146 -48 -271 -45q-138 -3 -235 98q-98 97 -96 308zM304 1036 v-120q2 -221 199 -224q194 3 200 224v120q-7 219 -200 224q-196 -5 -199 -224z" />
<glyph unicode=":" horiz-adv-x="491" d="M143 463v209h209v-209h-209zM143 -1v208h209v-208h-209z" />
<glyph unicode=";" horiz-adv-x="491" d="M143 -152v359h209v-208zM143 463v209h209v-209h-209z" />
<glyph unicode="&#x3c;" horiz-adv-x="1251" d="M97 462v147l1036 461v-172l-851 -362l851 -363v-172z" />
<glyph unicode="=" horiz-adv-x="1228" d="M98 641v160h1036v-160h-1036zM98 232v160h1036v-160h-1036z" />
<glyph unicode="&#x3e;" horiz-adv-x="1213" d="M97 1v172l852 363l-852 362v172l1036 -461v-147z" />
<glyph unicode="?" horiz-adv-x="948" d="M348 359v133q0 60 9.5 104.5t43.5 92.5l182 253q51 69 51 136q0 84 -58 133t-118 49q-77 0 -132.5 -50.5t-55.5 -172.5h-209v41q0 164 115.5 277.5t271.5 113.5q152 0 273.5 -107t121.5 -286q0 -125 -65 -215l-187 -256q-34 -48 -34 -129v-117h-209zM348 -1v208h209v-208 h-209z" />
<glyph unicode="@" horiz-adv-x="1638" d="M538 609q0 -84 49.5 -137.5t126.5 -53.5q133 0 226.5 150t93.5 270q0 69 -47 125.5t-119 56.5q-145 0 -237.5 -142.5t-92.5 -268.5zM1103 996l25 104h135l-164 -530q-20 -62 -20 -105q0 -59 47 -59q87 0 181.5 146.5t94.5 293.5q0 201 -152 332t-395 131 q-291 0 -453.5 -173.5t-162.5 -403.5q0 -248 169.5 -417t457.5 -169q183 0 305.5 48.5t210.5 141.5h135q-103 -165 -282 -257t-394 -92q-326 0 -544 209.5t-218 539.5q0 322 220 527.5t546 205.5q294 0 505.5 -172t211.5 -441q0 -257 -168.5 -415t-298.5 -158 q-142 0 -164 131h-4q-42 -49 -97.5 -90t-160.5 -41q-128 0 -209.5 91.5t-81.5 219.5q0 203 135 382t355 179q164 0 231 -159h4z" />
<glyph unicode="A" horiz-adv-x="1276" d="M2 0l532 1458h182l532 -1458h-232l-112 329h-553l-116 -329h-233zM416 524h422q-46 135 -72.5 211.5t-46 135.5t-39.5 120t-53 165q-35 -108 -56 -172.5t-40.5 -124.5t-45 -134t-69.5 -201z" />
<glyph unicode="B" horiz-adv-x="1249" d="M155 -1v1457h565q213 0 322.5 -109.5t109.5 -281.5q0 -90 -44 -173t-171 -140v-4q120 -28 179 -126.5t59 -209.5q0 -189 -120.5 -301t-284.5 -112h-615zM716 646h-340v-439h340q123 0 180.5 66.5t57.5 152.5t-57.5 153t-180.5 67zM696 1260h-320v-418h320q119 0 177 61 t58 148q0 84 -58 146.5t-177 62.5z" />
<glyph unicode="C" horiz-adv-x="1138" d="M905 406h233q-43 -204 -184 -311.5t-328 -107.5q-172 0 -288.5 82.5t-167.5 178.5q-36 64 -50 140t-14 339t14 339t50 140q51 95 167.5 179t288.5 84q207 0 342.5 -127.5t169.5 -304.5h-233q-27 84 -100.5 147t-178.5 63q-78 0 -135 -32t-90 -74q-43 -56 -58.5 -123 t-15.5 -291q0 -225 15.5 -292t58.5 -121q33 -44 90 -75.5t135 -31.5q184 0 279 199z" />
<glyph unicode="D" horiz-adv-x="1290" d="M155 -1v1457h510q299 0 444 -245q54 -93 66 -174t12 -310q0 -246 -16.5 -328.5t-65.5 -158.5q-65 -102 -178.5 -171.5t-275.5 -69.5h-496zM376 1247v-1040h265q182 0 270 127q36 55 45.5 118.5t9.5 266.5q0 196 -10.5 271t-54.5 135q-91 122 -260 122h-265z" />
<glyph unicode="E" horiz-adv-x="1138" d="M155 -1v1457h932v-209h-711v-415h606v-197h-606v-428h711v-208h-932z" />
<glyph unicode="F" horiz-adv-x="1099" d="M155 -1v1457h932v-209h-711v-429h606v-197h-606v-622h-221z" />
<glyph unicode="G" horiz-adv-x="1249" d="M628 592v209h518v-297q0 -217 -151 -367t-369 -150q-172 0 -288.5 82.5t-167.5 178.5q-36 64 -50 140t-14 339t14 339t50 140q51 95 167.5 179t288.5 84q207 0 342.5 -127.5t169.5 -304.5h-233q-27 84 -100.5 147t-178.5 63q-78 0 -135 -32t-90 -74q-43 -56 -58.5 -123 t-15.5 -291q0 -225 15.5 -292t58.5 -121q33 -44 90 -75.5t135 -31.5q126 0 212.5 86t86.5 224v75h-297z" />
<glyph unicode="H" horiz-adv-x="1327" d="M954 -1v636h-578v-636h-221v1457h221v-624h578v624h221v-1457h-221z" />
<glyph unicode="I" horiz-adv-x="528" d="M155 -1v1457h221v-1457h-221z" />
<glyph unicode="J" horiz-adv-x="985" d="M4 177l178 129q68 -99 194 -99q83 0 167.5 58.5t84.5 207.5v983h221v-1005q0 -219 -145 -341.5t-321 -122.5q-126 0 -222 52.5t-157 137.5z" />
<glyph unicode="K" horiz-adv-x="1290" d="M155 -1v1457h221v-751h5l599 751h263l-467 -575l516 -882h-262l-398 712l-256 -268v-444h-221z" />
<glyph unicode="L" horiz-adv-x="1138" d="M155 -1v1457h221v-1249h711v-208h-932z" />
<glyph unicode="M" horiz-adv-x="1552" d="M155 -1v1457h209l418 -950l409 950h209v-1457h-221v909h-4l-305 -701h-184l-305 701h-5v-909h-221z" />
<glyph unicode="N" horiz-adv-x="1400" d="M155 -1v1457h209l659 -1036h4v1036h222v-1457h-209l-659 1036h-5v-1036h-221z" />
<glyph unicode="O" horiz-adv-x="1249" d="M106 727q0 263 14 339t50 140q51 95 167.5 179t288.5 84q171 0 287.5 -84t169.5 -179q35 -64 49 -140t14 -339t-14 -339t-49 -140q-53 -96 -169.5 -178.5t-287.5 -82.5q-172 0 -288.5 82.5t-167.5 178.5q-36 64 -50 140t-14 339zM327 727q0 -225 15.5 -292t58.5 -121 q33 -44 90 -75.5t135 -31.5t135 31.5t90 75.5q43 54 58.5 121t15.5 292q0 224 -15.5 291t-58.5 123q-33 42 -90 74t-135 32t-135 -32t-90 -74q-43 -56 -58.5 -123t-15.5 -291z" />
<glyph unicode="P" horiz-adv-x="1214" d="M376 1247v-470h328q123 0 183.5 74t60.5 161q0 132 -95 194q-61 41 -157 41h-320zM155 -1v1457h529q85 0 163.5 -18t163.5 -84q66 -51 112 -140.5t46 -207.5q0 -156 -116.5 -297t-340.5 -141h-336v-569h-221z" />
<glyph unicode="Q" horiz-adv-x="1249" d="M790 258l-186 148l131 151l170 -135q20 70 20 305q0 224 -15.5 291t-58.5 123q-33 42 -90 74t-135 32t-135 -32t-90 -74q-43 -56 -58.5 -123t-15.5 -291q0 -225 15.5 -292t58.5 -121q33 -44 90 -75.5t135 -31.5q94 0 164 51zM1154 -34l-184 147q-65 -56 -150.5 -91 t-193.5 -35q-172 0 -288.5 82.5t-167.5 178.5q-36 64 -50 140t-14 339t14 339t50 140q51 95 167.5 179t288.5 84q171 0 287.5 -84t169.5 -179q35 -64 49 -140t14 -339q0 -237 -11.5 -318t-41.5 -138l193 -154z" />
<glyph unicode="R" horiz-adv-x="1249" d="M376 1260v-442h334q124 0 186 69t62 162q0 111 -74 166q-62 45 -161 45h-347zM155 -1v1457h570q187 0 296 -96q61 -53 103.5 -133t42.5 -178q0 -141 -75.5 -249.5t-207.5 -153.5l338 -647h-262l-301 622h-283v-622h-221z" />
<glyph unicode="S" horiz-adv-x="1175" d="M28 187l146 166q82 -66 189 -106t224 -40q135 0 212 56t77 147q0 172 -190 197q-50 6 -93 12t-100 14q-189 26 -288 138.5t-99 271.5q0 186 124.5 306t350.5 120q135 0 254 -43t219 -109l-123 -182q-80 50 -172 81t-188 31q-102 0 -173 -52t-71 -156q0 -62 48 -116 t159 -71q29 -5 70 -10.5t94 -11.5q204 -25 301.5 -148t97.5 -272q0 -201 -139 -312t-373 -111q-329 0 -557 200z" />
<glyph unicode="T" d="M403 -1v1261h-399v196h1019v-196h-399v-1261h-221z" />
<glyph unicode="U" horiz-adv-x="1290" d="M129 492v964h221v-939q0 -151 85.5 -230.5t211.5 -79.5t211.5 79.5t85.5 230.5v939h221v-964q0 -228 -151 -366.5t-367 -138.5q-217 0 -367.5 138.5t-150.5 366.5z" />
<glyph unicode="V" horiz-adv-x="1138" d="M485 -1l-481 1457h233l332 -1109h4l332 1109h233l-481 -1457h-172z" />
<glyph unicode="W" horiz-adv-x="1703" d="M389 -1l-365 1457h234l229 -1036h4l283 1036h159l283 -1036h4l229 1036h234l-365 -1457h-184l-279 1050h-4l-278 -1050h-184z" />
<glyph unicode="X" horiz-adv-x="1097" d="M870 -1l-319 542l-320 -542h-249l446 747l-418 710h250l291 -505l290 505h250l-418 -710l447 -747h-250z" />
<glyph unicode="Y" d="M409 -1v599l-437 858h232l310 -647l309 647h233l-438 -858v-599h-209z" />
<glyph unicode="Z" horiz-adv-x="1062" d="M67 -1v184l662 1077h-635v196h905v-166l-664 -1083h664v-208h-932z" />
<glyph unicode="[" horiz-adv-x="569" d="M149 -210v1666h379v-135h-195v-1396h195v-135h-379z" />
<glyph unicode="\" horiz-adv-x="705" d="M517 -17l-475 1485h155l475 -1485h-155z" />
<glyph unicode="]" horiz-adv-x="569" d="M239 -75v1396h-194v135h379v-1666h-379v135h194z" />
<glyph unicode="^" horiz-adv-x="1110" d="M64 576l432 880h131l431 -880h-167l-330 708l-330 -708h-167z" />
<glyph unicode="_" d="M1 -238v103h1024v-103h-1024z" />
<glyph unicode="`" horiz-adv-x="501" d="M311 1169l-282 299h267l182 -299h-167z" />
<glyph unicode="a" horiz-adv-x="984" d="M687 -5v92h-4q-29 -54 -87 -78q-62 -26 -162 -26q-172 4 -260 92q-96 88 -96 225q0 130 83 218t245 90h281v110q1 138 -207 134q-72 0 -120 -16q-47 -21 -71 -65l-160 126q116 155 341 151q189 2 304 -74q113 -79 115 -268v-711h-202zM687 360v76h-243q-178 -5 -176 -126 q0 -52 46 -90q44 -41 145 -41q128 -2 180 31q48 33 48 150z" />
<glyph unicode="b" horiz-adv-x="1062" d="M137 -1v1457h209v-530q58 55 122.5 89t145.5 34q95 0 164 -38.5t114 -96.5q43 -56 58.5 -130.5t15.5 -264.5q0 -192 -15.5 -267.5t-58.5 -130.5q-45 -59 -114 -96.5t-164 -37.5q-160 0 -268 120v-108h-209zM551 840q-147 0 -176 -105t-29 -216q0 -114 29 -219t176 -105 t176.5 101t29.5 223q0 119 -29.5 220t-176.5 101z" />
<glyph unicode="c" horiz-adv-x="909" d="M747 304l154 -138q-68 -78 -161.5 -128.5t-211.5 -50.5q-180 0 -325.5 122.5t-145.5 407.5t145.5 408.5t325.5 123.5q118 0 211.5 -51t161.5 -129l-154 -137q-88 108 -211 108q-270 0 -270 -323q0 -322 270 -322q124 0 211 109z" />
<glyph unicode="d" horiz-adv-x="1062" d="M757 -1v108q-109 -120 -268 -120q-96 0 -165 37.5t-113 96.5q-44 55 -59 130.5t-15 267.5q0 190 15 264.5t59 130.5q44 58 113 96.5t165 38.5q80 0 145 -34t123 -89v530h209v-1457h-209zM553 840q-148 0 -177.5 -101t-29.5 -220q0 -122 29.5 -223t177.5 -101 q145 0 174.5 105t29.5 219q0 111 -29.5 216t-174.5 105z" />
<glyph unicode="e" horiz-adv-x="1019" d="M936 439h-646q0 -128 69.5 -192t177.5 -64q129 0 228 100l151 -129q-77 -90 -173.5 -128.5t-201.5 -38.5q-160 0 -310 103.5t-150 423.5q0 303 138.5 419t289.5 116q171 0 299 -118.5t128 -319.5v-172zM290 611h438q-5 117 -66 179t-153 62q-93 0 -154.5 -62t-64.5 -179z " />
<glyph unicode="f" horiz-adv-x="569" d="M170 -1v878h-105v160h105v137q0 145 80 213.5t202 68.5h135v-196h-118q-91 0 -91 -86v-137h209v-160h-209v-878h-208z" />
<glyph unicode="g" horiz-adv-x="1062" d="M720 0v107q-109 -120 -268 -120q-102 0 -170.5 40.5t-103.5 85.5q-45 58 -61.5 123t-16.5 281t16.5 281t61.5 124q35 44 103.5 85.5t170.5 41.5q152 0 268 -123v111h209v-1014q0 -234 -136.5 -345t-313.5 -111q-100 0 -196 48t-165 126l162 129q38 -38 90.5 -66 t112.5 -28q104 0 170.5 58t66.5 166zM309 517q0 -125 6.5 -166t34.5 -76q21 -28 62 -54t104 -26q61 0 101.5 26t62.5 54q27 35 33.5 76t6.5 166t-6.5 166t-33.5 77q-22 27 -62.5 53.5t-101.5 26.5q-63 0 -104 -26.5t-62 -53.5q-28 -36 -34.5 -77t-6.5 -166z" />
<glyph unicode="h" horiz-adv-x="1099" d="M137 -1v1457h209v-530h4q97 123 270 123q121 0 233.5 -92t112.5 -268v-690h-209v618q0 105 -58.5 164t-145.5 59q-90 0 -148.5 -59t-58.5 -164v-618h-209z" />
<glyph unicode="i" horiz-adv-x="491" d="M143 -1v1038h209v-1038h-209zM143 1247v209h209v-209h-209z" />
<glyph unicode="j" horiz-adv-x="528" d="M163 -113v1150h209v-1167q0 -130 -85.5 -210.5t-217.5 -80.5h-81v197h59q116 0 116 111zM163 1247v209h209v-209h-209z" />
<glyph unicode="k" horiz-adv-x="1062" d="M137 -1v1457h209v-907h4l399 488h250l-358 -406l407 -632h-262l-276 485l-164 -187v-298h-209z" />
<glyph unicode="l" horiz-adv-x="528" d="M137 250v1206h209v-1189q0 -72 78 -72h71v-196h-92q-114 0 -190 55.5t-76 195.5z" />
<glyph unicode="m" horiz-adv-x="1744" d="M149 -1v1038h209v-111h4q99 123 270 123q109 0 173 -39t120 -96q123 135 328 135q121 0 233.5 -92t112.5 -268v-690h-209v618q0 105 -59 164t-146 59q-90 0 -148.5 -59t-58.5 -164v-618h-208v618q0 105 -59 164t-146 59q-90 0 -148.5 -59t-58.5 -164v-618h-209z" />
<glyph unicode="n" horiz-adv-x="1099" d="M137 -1v1038h209v-111h4q97 123 270 123q121 0 233.5 -92t112.5 -268v-690h-209v618q0 105 -58.5 164t-145.5 59q-90 0 -148.5 -59t-58.5 -164v-618h-209z" />
<glyph unicode="o" d="M86 519q0 167 26 249t86 148q43 47 118.5 90t197.5 43q120 0 196 -43t119 -90q60 -66 86 -148t26 -249q0 -170 -26 -252t-86 -148q-43 -48 -119 -90t-196 -42q-122 0 -197.5 42t-118.5 90q-60 66 -86 148t-26 252zM733 517q0 113 -11.5 159t-39.5 88q-55 76 -168 76 q-115 0 -168 -76q-30 -42 -40.5 -88t-10.5 -157q0 -114 10.5 -160.5t40.5 -87.5q53 -76 168 -76q113 0 168 76q28 41 39.5 87t11.5 159z" />
<glyph unicode="p" horiz-adv-x="1062" d="M137 -421v1458h209v-109q109 121 268 121q95 0 164 -38.5t114 -96.5q43 -56 58.5 -130.5t15.5 -266.5q0 -191 -15.5 -266t-58.5 -130q-45 -59 -114 -96.5t-164 -37.5q-81 0 -145.5 33t-122.5 89v-530h-209zM551 195q147 0 176.5 101t29.5 221t-29.5 221.5t-176.5 101.5 t-176 -105t-29 -218t29 -217.5t176 -104.5z" />
<glyph unicode="q" horiz-adv-x="1062" d="M720 -421v530q-127 -122 -268 -122q-96 0 -165 37.5t-113 96.5q-44 55 -59 130t-15 266q0 192 15 266.5t59 130.5q44 58 113 96.5t165 38.5q158 0 268 -121v109h209v-1458h-209zM516 195q145 0 174.5 104.5t29.5 217.5t-29.5 218t-174.5 105q-148 0 -177.5 -101.5 t-29.5 -221.5t29.5 -221t177.5 -101z" />
<glyph unicode="r" horiz-adv-x="796" d="M137 -1v1038h209v-111h4q97 123 270 123q114 0 217 -80l-151 -180q-68 51 -138 51q-77 0 -139.5 -51.5t-62.5 -165.5v-624h-209z" />
<glyph unicode="s" horiz-adv-x="983" d="M22 172l146 144q136 -133 327 -133q89 0 147 33.5t58 99.5q0 91 -127 102l-184 17q-129 10 -214 85t-85 209q0 158 111 239t276 81q136 0 233 -38.5t174 -102.5l-129 -152q-62 42 -128 69t-150 27q-100 0 -139 -35.5t-39 -89.5q0 -34 29 -63t108 -35l172 -12 q161 -11 231 -99.5t70 -211.5q0 -153 -125 -236t-305 -83q-259 0 -457 185z" />
<glyph unicode="t" horiz-adv-x="569" d="M149 -2v879h-104v160h104v163l209 223v-386h152v-160h-152v-879h-209z" />
<glyph unicode="u" horiz-adv-x="1099" d="M137 347v690h209v-619q0 -106 58.5 -164.5t148.5 -58.5q87 0 145.5 58.5t58.5 164.5v619h209v-1038h-209v110h-4q-97 -122 -268 -122q-123 0 -235.5 91.5t-112.5 268.5z" />
<glyph unicode="v" horiz-adv-x="909" d="M370 -1l-380 1038h221l243 -727h4l244 727h221l-381 -1038h-172z" />
<glyph unicode="w" horiz-adv-x="1478" d="M960 -1l-217 726h-4l-217 -726h-184l-332 1038h221l199 -727h4l235 727h152l235 -727h4l199 727h221l-332 -1038h-184z" />
<glyph unicode="x" horiz-adv-x="983" d="M376 529l-340 508h250l207 -336l207 336h250l-340 -508l354 -530h-250l-221 345l-221 -345h-250z" />
<glyph unicode="y" horiz-adv-x="909" d="M360 39l-372 998h220l246 -727h4l246 727h221l-446 -1253q-44 -120 -121 -162.5t-172 -42.5h-70v197h62q94 0 125 90z" />
<glyph unicode="z" horiz-adv-x="909" d="M69 -1v165l520 688h-491v185h745v-166l-520 -676h520v-196h-774z" />
<glyph unicode="{" horiz-adv-x="601" d="M54 554v135q40 0 69 21q31 17 48 53q39 72 39 173v293q1 108 60 168q53 59 134 59h169v-134h-98q-47 -2 -68 -51q-19 -50 -19 -120v-265q0 -66 -19 -113q-18 -47 -47 -80q-61 -62 -95 -69v-4q15 -3 44 -17q27 -17 51 -48q29 -31 47 -80q19 -53 19 -121v-263 q0 -68 19 -114q20 -52 68 -56h98v-134h-169q-80 2 -134 62q-59 61 -60 164v290q0 107 -39 176q-39 72 -117 75z" />
<glyph unicode="|" horiz-adv-x="334" d="M87 -17v1485h155v-1485h-155z" />
<glyph unicode="}" horiz-adv-x="334" d="M27 -213v134h97q47 3 67 56q21 48 21 114v265q0 67 21 117q18 50 46 81q57 60 87 66v4q-20 10 -36 20q-24 13 -51 45q-29 31 -46 80q-21 49 -21 119v263q0 69 -21 120q-21 49 -68 51h-96v134h168q82 0 140 -59q53 -62 55 -168v-290q0 -104 42 -174q38 -70 113 -76l5 -135 q-77 -4 -117 -73q-43 -69 -43 -174v-294q-2 -102 -55 -164q-56 -60 -139 -62h-169z" />
<glyph unicode="~" horiz-adv-x="1027" d="M133 358l-72 127q31 67 92 122q60 54 156 56q54 0 110 -19q55 -21 112 -49q46 -23 108 -49q54 -25 94 -25q59 1 102 49q40 42 73 99l71 -128q-32 -69 -89 -119q-57 -57 -159 -58q-51 0 -105 21q-65 26 -116 45q-49 25 -107 50q-53 21 -95 25q-58 -3 -100 -45 q-48 -57 -75 -102z" />
<glyph unicode="&#xa1;" horiz-adv-x="368" d="M53 -426l78 1100h101l76 -1100h-255zM80 827v208h202v-208h-202z" />
<glyph unicode="&#xa2;" horiz-adv-x="935" d="M490 191v648q-214 -23 -215 -325q1 -299 215 -323zM490 -204v187q-169 13 -288 139q-128 127 -129 392q1 268 129 396q120 127 288 138v187h78v-187q212 -32 323 -181l-148 -137q-62 82 -175 109v-647q113 25 175 108l148 -137q-111 -149 -323 -180v-187h-78z" />
<glyph unicode="&#xa3;" horiz-adv-x="1022" d="M78 611v134h112q-74 164 -72 309q1 195 110 306q103 106 269 108q205 -2 305 -116q98 -117 98 -304h-202q-13 224 -186 224q-189 -5 -191 -222q1 -168 73 -305h336v-134h-286q35 -98 37 -181q-2 -112 -62 -222q60 -6 113 -14q64 -15 116 -15q44 0 100 17q48 13 97 51 l129 -162q-67 -56 -148 -81q-84 -21 -146 -21q-74 4 -192 19q-127 19 -205 21q-83 0 -179 -40v196q71 39 151 41q32 89 36 175q0 42 -14 102q-9 27 -17.5 55.5t-17.5 58.5h-164z" />
<glyph unicode="&#xa4;" horiz-adv-x="997" d="M56 370l97 102q-74 91 -75 253q1 159 75 255l-97 100l105 106l98 -101q88 75 246 80q149 -2 244 -76l98 97l103 -107l-98 -100q77 -97 80 -254q-3 -161 -77 -254l95 -101l-103 -107l-98 101q-94 -79 -244 -80q-74 0 -137 24q-68 24 -109 56l-98 -101zM232 725 q0 -135 76 -214q75 -81 198 -81q124 0 198 81q74 78 74 214q-8 287 -272 294q-268 -6 -274 -294z" />
<glyph unicode="&#xa5;" horiz-adv-x="1123" d="M469 -5v328h-298v135h298v138l-27 55h-271v135h207l-319 670h215l290 -649l291 649h215l-319 -670h208v-135h-272l-27 -55v-138h299v-135h-299v-328h-191z" />
<glyph unicode="&#xa6;" horiz-adv-x="334" d="M87 -17v555h155v-555h-155zM87 913v555h155v-555h-155z" />
<glyph unicode="&#xa7;" horiz-adv-x="872" d="M95 -25h178q7 -78 51 -125q42 -50 122 -52q70 0 113 43q44 40 44 117q1 74 -36 111q-41 36 -165 73l-75 27q-163 55 -218 141q-57 82 -54 237q-3 134 38 215q39 79 162 130q-140 83 -135 244q1 146 95 240q90 88 226 90q140 0 233 -84q95 -89 97 -269h-178q0 77 -38 123 t-114 46q-74 -4 -107 -42q-36 -39 -36 -88q0 -66 46 -96q50 -38 160 -72q166 -45 246 -129t80 -284q1 -122 -32 -197q-39 -78 -163 -141q92 -38 127 -107q32 -71 32 -156q-4 -170 -106 -268q-103 -97 -257 -101q-137 4 -234 103q-101 97 -102 271zM442 329q115 4 151 75 q36 53 34 159q0 76 -8 107q-11 36 -34 61q-19 28 -54 46q-38 17 -89 17q-103 -5 -143 -63q-24 -27 -32 -61q-10 -39 -10 -107q-2 -108 35 -159q16 -27 58 -51q36 -24 92 -24z" />
<glyph unicode="&#xa8;" horiz-adv-x="1251" d="M331 1558v222h221v-222h-221zM691 1558v222h221v-222h-221z" />
<glyph unicode="&#xa9;" horiz-adv-x="1618" d="M1071 596h142q-66 -341 -360 -345q-203 1 -318 138q-116 129 -116 336q0 215 113 343q109 129 315 132q146 0 246 -83q100 -81 120 -252h-142q-15 84 -75 136t-147 52q-131 -2 -202 -93q-74 -94 -74 -231q0 -132 77 -228q74 -102 203 -103q88 0 147 56q57 51 71 142z M101 725q4 316 213 528q201 212 507 215q306 -3 511 -215q204 -211 209 -528q-5 -318 -209 -523q-203 -214 -511 -219q-308 5 -507 219q-209 206 -213 523zM256 725q1 -263 162 -426q156 -169 403 -170q248 1 406 170q157 163 159 426q-2 268 -159 430q-158 165 -406 167 q-247 -2 -403 -167q-161 -162 -162 -430z" />
<glyph unicode="&#xaa;" horiz-adv-x="681" d="M465 838v58h-5q-38 -67 -158 -67q-142 0 -202 58q-62 55 -62 127q0 87 56 145q50 58 148 58h223v37q-2 57 -44 70q-39 10 -91 10q-69 0 -101 -8q-30 -12 -46 -39l-104 90q43 55 100 75q53 16 145 16q289 7 296 -204v-426h-155zM465 1056v38h-159q-112 1 -113 -69 q0 -15 13 -28q10 -13 28 -20q38 -14 82 -14q94 0 125 20q25 21 24 73z" />
<glyph unicode="&#xab;" horiz-adv-x="878" d="M58 563l405 414v-209l-210 -205l210 -206v-208zM432 563l405 414v-209l-210 -205l210 -206v-208z" />
<glyph unicode="&#xac;" horiz-adv-x="1138" d="M929 216v423h-851v161h1006v-584h-155z" />
<glyph unicode="&#xad;" horiz-adv-x="700" d="M70 459v208h597v-208h-597z" />
<glyph unicode="&#xae;" horiz-adv-x="1618" d="M692 1045v-246h99q90 -4 155 18q63 23 67 104q-4 76 -59 102q-53 22 -131 22h-131zM549 312v867h318q288 3 288 -258q-2 -127 -61 -186q-65 -57 -153 -67l240 -356h-166l-242 352h-81v-352h-143zM101 725q4 314 213 528q201 212 507 215q306 -3 511 -215 q204 -211 209 -528q-5 -318 -209 -523q-203 -214 -511 -219q-308 5 -507 219q-209 207 -213 523zM256 725q1 -263 162 -426q156 -169 403 -170q248 1 406 170q157 163 159 426q-2 268 -159 430q-158 165 -406 167q-247 -2 -403 -167q-161 -162 -162 -430z" />
<glyph unicode="&#xaf;" horiz-adv-x="642" d="M40 1241v134h572v-134h-572z" />
<glyph unicode="&#xb0;" horiz-adv-x="635" d="M37 1175q1 125 83 209q82 82 201 84q123 -2 203 -84q79 -83 81 -208q-2 -124 -81 -208q-80 -85 -203 -86q-119 1 -201 86q-82 84 -83 207zM137 1175q0 -80 57 -132q49 -57 127 -57q79 0 132 57q50 53 52 132q-2 80 -52 136q-54 51 -132 53q-78 -2 -127 -53 q-57 -54 -57 -136z" />
<glyph unicode="&#xb1;" horiz-adv-x="1116" d="M484 278v298h-426v160h426v297h154v-297h425v-160h-425v-298h-154zM58 -5v160h1005v-160h-1005z" />
<glyph unicode="&#xb2;" horiz-adv-x="639" d="M36 584v146l361 388q46 42 46 98q0 48 -30 77q-33 29 -86 29q-109 -2 -119 -128h-166q0 126 81 201q74 71 197 73q128 -2 209 -71q78 -76 80 -182q0 -44 -12 -81q-17 -43 -53 -82l-305 -322h370v-146h-573z" />
<glyph unicode="&#xb3;" horiz-adv-x="666" d="M250 969v134h64q65 0 107 34q37 26 37 79q0 47 -31 77q-36 29 -86 29q-44 0 -83 -25q-36 -26 -51 -83h-167q12 114 87 183q74 69 195 71q147 -2 226 -75q76 -75 76 -174q0 -52 -19 -98q-25 -47 -85 -84q61 -34 91 -86q24 -50 24 -106q-2 -122 -83 -196q-81 -73 -225 -73 q-242 -3 -291 245h167q30 -96 135 -99q58 0 95 34q34 30 36 85q-2 58 -41 95q-41 33 -102 33h-76z" />
<glyph unicode="&#xb4;" horiz-adv-x="501" d="M29 1169l183 299h266l-282 -299h-167z" />
<glyph unicode="&#xb5;" horiz-adv-x="924" d="M75 -426v1461h203v-620q0 -105 57 -165q57 -59 144 -59t143 59q56 60 56 165v620h202v-1040h-202v110h-4q-100 -122 -261 -122q-68 0 -135 29v-438h-203z" />
<glyph unicode="&#xb6;" horiz-adv-x="988" d="M478 -384v1065q-187 3 -299 114q-118 103 -119 268q7 394 459 393h422v-1840h-154v1706h-155v-1706h-154z" />
<glyph unicode="&#xb7;" horiz-adv-x="310" d="M29 594q0 59 39 98q37 39 94 39t95 -39q39 -39 39 -98q0 -57 -39 -96q-37 -41 -95 -41t-94 41q-39 39 -39 96z" />
<glyph unicode="&#xb8;" horiz-adv-x="505" d="M235 -4h101l-88 -123h4q24 8 55 8q82 0 129 -45q45 -45 45 -110q-2 -99 -72 -145q-70 -49 -172 -49q-96 2 -201 49l35 86q71 -29 140 -31q111 0 116 87q0 41 -28 57q-27 19 -70 19q-40 2 -78 -22l-46 39z" />
<glyph unicode="&#xb9;" horiz-adv-x="441" d="M197 584v704l-131 -91v173l131 90h166v-876h-166z" />
<glyph unicode="&#xba;" horiz-adv-x="652" d="M35 1148q0 90 14 142q11 49 50 89q84 89 230 89q143 0 229 -90q37 -41 52 -88q11 -52 11 -141q0 -91 -11 -139q-15 -49 -53 -90q-86 -91 -230 -91q-145 0 -228 91q-38 37 -50 89q-14 49 -14 139zM190 1148q-5 -96 30 -136q35 -49 108 -49t109 49q20 28 26 56q4 24 4 80 q1 96 -30 137q-37 47 -107 49q-74 -2 -110 -49q-21 -24 -23 -52q-7 -27 -7 -85z" />
<glyph unicode="&#xbb;" horiz-adv-x="866" d="M420 149v208l202 206l-202 205v209l405 -414zM46 149v208l202 206l-202 205v209l405 -414z" />
<glyph unicode="&#xbc;" horiz-adv-x="1422" d="M178 -40l857 1531h132l-858 -1531h-131zM732 122v146l309 598h167l-302 -597h217v227h166v-227h66v-147h-66v-127h-166v127h-391zM217 584v704l-131 -91v173l131 90h167v-876h-167z" />
<glyph unicode="&#xbd;" horiz-adv-x="1435" d="M128 -40l857 1531h139l-863 -1531h-133zM794 -5v146l362 386q45 43 45 99q0 48 -30 78q-31 28 -87 28q-108 -2 -117 -128h-167q0 124 82 201q74 72 196 74q128 -2 210 -72q77 -75 79 -181q0 -43 -12 -82q-16 -41 -54 -82l-305 -321h371v-146h-573zM217 584v704l-131 -91 v173l131 90h167v-876h-167z" />
<glyph unicode="&#xbe;" horiz-adv-x="1529" d="M336 -40l862 1531h131l-858 -1531h-135zM836 122l-1 146l308 599h168l-303 -598h217v227h167v-227h65v-147h-65v-127h-167v127h-389zM312 969v134h64q65 0 106 34q38 27 38 79q0 46 -31 77q-36 29 -86 29q-45 0 -84 -25q-37 -28 -51 -83h-167q12 114 87 183t196 71 q147 -2 225 -75q77 -76 77 -174q0 -49 -20 -98q-25 -48 -84 -84q62 -35 90 -86q25 -49 25 -106q-2 -121 -83 -196q-82 -73 -225 -73q-243 -3 -292 245h167q30 -97 136 -99q58 0 95 34q33 30 36 85q-3 58 -42 95q-39 33 -101 33h-76z" />
<glyph unicode="&#xbf;" horiz-adv-x="869" d="M355 557v118h203v-134q0 -55 -8 -103q-12 -47 -45 -95l-183 -255q-52 -71 -52 -135q1 -83 58 -131q53 -49 113 -51q78 0 131 51q51 52 53 173h203v-41q-2 -166 -112 -277q-108 -113 -264 -115q-150 2 -265 108q-117 107 -119 286q0 128 66 215l186 257q37 53 35 129z M355 827v208h203v-208h-203z" />
<glyph unicode="&#xc0;" horiz-adv-x="1276" d="M2 0l532 1458h182l532 -1458h-232l-112 329h-553l-116 -329h-233zM416 524h422q-46 135 -72.5 211.5t-46 135.5t-39.5 120t-53 165q-35 -108 -56 -172.5t-40.5 -124.5t-45 -134t-69.5 -201zM666.36 1521l-242.43 432.002h229.534l156.462 -432.002h-143.566z" />
<glyph unicode="&#xc1;" horiz-adv-x="1276" d="M2 0l532 1458h182l532 -1458h-232l-112 329h-553l-116 -329h-233zM416 524h422q-46 135 -72.5 211.5t-46 135.5t-39.5 120t-53 165q-35 -108 -56 -172.5t-40.5 -124.5t-45 -134t-69.5 -201zM426 1522l183 299h266l-282 -299h-167z" />
<glyph unicode="&#xc2;" horiz-adv-x="1201" d="M343 1550l295 234h131l299 -234h-167l-207 111l-184 -111h-167zM93 0l532 1458h182l532 -1458h-232l-112 329h-553l-116 -329h-233zM507 524h422q-46 135 -72.5 211.5t-46 135.5t-39.5 120t-53 165q-35 -108 -56 -172.5t-40.5 -124.5t-45 -134t-69.5 -201z" />
<glyph unicode="&#xc3;" horiz-adv-x="1276" d="M2 0l532 1458h182l532 -1458h-232l-112 329h-553l-116 -329h-233zM416 524h422q-46 135 -72.5 211.5t-46 135.5t-39.5 120t-53 165q-35 -108 -56 -172.5t-40.5 -124.5t-45 -134t-69.5 -201zM414 1536h-119q16 109 76 175q57 63 149 63q40 0 73 -10q43 -13 70 -26 q34 -16 68 -27q29 -14 59 -14q31 -2 58 18q25 18 36 72h119q-14 -96 -65 -164q-53 -73 -153 -74q-39 0 -74 14q-39 10 -76 24q-77 36 -137 38q-20 0 -52 -16q-32 -22 -32 -73z" />
<glyph unicode="&#xc4;" horiz-adv-x="1251" d="M1015 -1l-112 325h-553l-113 -325h-233l530 1457h184l531 -1457h-234zM838 521l-214 637l-211 -637h425zM691 1558v222h221v-222h-221zM331 1558v222h221v-222h-221z" />
<glyph unicode="&#xc5;" horiz-adv-x="1377" d="M497 1708q0 -54 37.5 -91.5t91.5 -37.5t91.5 37.5t37.5 91.5t-37.5 91.5t-91.5 37.5t-91.5 -37.5t-37.5 -91.5zM415 1708q0 87 62 149t149 62t149 -62t62 -149t-62 -149t-149 -62t-149 62t-62 149zM1015 -1l-112 325h-553l-113 -325h-233l530 1457h184l531 -1457h-234z M839 521l-211 637h-4l-211 -637h426z" />
<glyph unicode="&#xc6;" horiz-adv-x="1712" d="M890 -4v328h-447l-174 -323h-259l801 1463h778v-220h-491v-408h413v-204h-413v-421h491v-215h-626l-25 -2zM545 525h345v691z" />
<glyph unicode="&#xc7;" horiz-adv-x="1138" d="M905 406h233q-43 -204 -184 -311.5t-328 -107.5q-172 0 -288.5 82.5t-167.5 178.5q-36 64 -50 140t-14 339t14 339t50 140q51 95 167.5 179t288.5 84q207 0 342.5 -127.5t169.5 -304.5h-233q-27 84 -100.5 147t-178.5 63q-78 0 -135 -32t-90 -74q-43 -56 -58.5 -123 t-15.5 -291q0 -225 15.5 -292t58.5 -121q33 -44 90 -75.5t135 -31.5q184 0 279 199zM545 -4h101l-88 -123h4q24 8 55 8q82 0 129 -45q45 -45 45 -110q-2 -99 -72 -145q-70 -49 -172 -49q-96 2 -201 49l35 86q71 -29 140 -31q111 0 116 87q0 41 -28 57q-27 19 -70 19 q-40 2 -78 -22l-46 39z" />
<glyph unicode="&#xc8;" horiz-adv-x="1138" d="M155 -1v1457h932v-209h-711v-415h606v-197h-606v-428h711v-208h-932zM621 1558l-282 299h267l182 -299h-167z" />
<glyph unicode="&#xc9;" horiz-adv-x="1138" d="M155 -1v1457h932v-209h-711v-415h606v-197h-606v-428h711v-208h-932zM445 1540l183 299h266l-282 -299h-167z" />
<glyph unicode="&#xca;" horiz-adv-x="1138" d="M343 1550l295 234h131l299 -234h-167l-207 111l-184 -111h-167zM155 -1v1457h932v-209h-711v-415h606v-197h-606v-428h711v-208h-932z" />
<glyph unicode="&#xcb;" horiz-adv-x="1138" d="M717 1549v221h221v-221h-221zM357 1549v221h221v-221h-221zM155 -1v1457h932v-209h-711v-415h606v-197h-606v-428h711v-208h-932z" />
<glyph unicode="&#xcc;" horiz-adv-x="528" d="M155 -1v1457h221v-1457h-221zM258 1527l-282 299h267l182 -299h-167z" />
<glyph unicode="&#xcd;" horiz-adv-x="528" d="M155 -1v1457h221v-1457h-221zM181 1541l183 299h266l-282 -299h-167z" />
<glyph unicode="&#xce;" horiz-adv-x="528" d="M-83 1547l295 234h131l299 -234h-167l-207 111l-184 -111h-167zM155 -1v1457h221v-1457h-221z" />
<glyph unicode="&#xcf;" horiz-adv-x="528" d="M345 1562v221h221v-221h-221zM-15 1562v221h221v-221h-221zM155 -1v1457h221v-1457h-221z" />
<glyph unicode="&#xd0;" horiz-adv-x="1290" d="M155 -1v638h-118v209h118v610h510q299 0 444 -245q54 -93 66 -174t12 -310q0 -246 -16.5 -328.5t-65.5 -158.5q-65 -102 -178.5 -171.5t-275.5 -69.5h-496zM376 1247v-401h278v-209h-278v-430h265q182 0 270 127q36 55 45.5 118.5t9.5 266.5q0 196 -10.5 271t-54.5 135 q-91 122 -260 122h-265z" />
<glyph unicode="&#xd1;" horiz-adv-x="1400" d="M155 -1v1457h209l659 -1036h4v1036h222v-1457h-209l-659 1036h-5v-1036h-221zM443 1558h-119q16 109 76 175q57 63 149 63q40 0 73 -10q43 -13 70 -26q34 -16 68 -27q29 -14 59 -14q31 -2 58 18q25 18 36 72h119q-14 -96 -65 -164q-53 -73 -153 -74q-39 0 -74 14 q-39 10 -76 24q-77 36 -137 38q-20 0 -52 -16q-32 -22 -32 -73z" />
<glyph unicode="&#xd2;" horiz-adv-x="1249" d="M106 727q0 263 14 339t50 140q51 95 167.5 179t288.5 84q171 0 287.5 -84t169.5 -179q35 -64 49 -140t14 -339t-14 -339t-49 -140q-53 -96 -169.5 -178.5t-287.5 -82.5q-172 0 -288.5 82.5t-167.5 178.5q-36 64 -50 140t-14 339zM327 727q0 -225 15.5 -292t58.5 -121 q33 -44 90 -75.5t135 -31.5t135 31.5t90 75.5q43 54 58.5 121t15.5 292q0 224 -15.5 291t-58.5 123q-33 42 -90 74t-135 32t-135 -32t-90 -74q-43 -56 -58.5 -123t-15.5 -291zM553 1544l-282 299h267l182 -299h-167z" />
<glyph unicode="&#xd3;" horiz-adv-x="1249" d="M106 727q0 263 14 339t50 140q51 95 167.5 179t288.5 84q171 0 287.5 -84t169.5 -179q35 -64 49 -140t14 -339t-14 -339t-49 -140q-53 -96 -169.5 -178.5t-287.5 -82.5q-172 0 -288.5 82.5t-167.5 178.5q-36 64 -50 140t-14 339zM327 727q0 -225 15.5 -292t58.5 -121 q33 -44 90 -75.5t135 -31.5t135 31.5t90 75.5q43 54 58.5 121t15.5 292q0 224 -15.5 291t-58.5 123q-33 42 -90 74t-135 32t-135 -32t-90 -74q-43 -56 -58.5 -123t-15.5 -291zM534 1539l183 299h266l-282 -299h-167z" />
<glyph unicode="&#xd4;" horiz-adv-x="1249" d="M279 1546l295 234h131l299 -234h-167l-207 111l-184 -111h-167zM106 727q0 263 14 339t50 140q51 95 167.5 179t288.5 84q171 0 287.5 -84t169.5 -179q35 -64 49 -140t14 -339t-14 -339t-49 -140q-53 -96 -169.5 -178.5t-287.5 -82.5q-172 0 -288.5 82.5t-167.5 178.5 q-36 64 -50 140t-14 339zM327 727q0 -225 15.5 -292t58.5 -121q33 -44 90 -75.5t135 -31.5t135 31.5t90 75.5q43 54 58.5 121t15.5 292q0 224 -15.5 291t-58.5 123q-33 42 -90 74t-135 32t-135 -32t-90 -74q-43 -56 -58.5 -123t-15.5 -291z" />
<glyph unicode="&#xd5;" horiz-adv-x="1249" d="M106 727q0 263 14 339t50 140q51 95 167.5 179t288.5 84q171 0 287.5 -84t169.5 -179q35 -64 49 -140t14 -339t-14 -339t-49 -140q-53 -96 -169.5 -178.5t-287.5 -82.5q-172 0 -288.5 82.5t-167.5 178.5q-36 64 -50 140t-14 339zM327 727q0 -225 15.5 -292t58.5 -121 q33 -44 90 -75.5t135 -31.5t135 31.5t90 75.5q43 54 58.5 121t15.5 292q0 224 -15.5 291t-58.5 123q-33 42 -90 74t-135 32t-135 -32t-90 -74q-43 -56 -58.5 -123t-15.5 -291zM401 1522h-119q16 109 76 175q57 63 149 63q40 0 73 -10q43 -13 70 -26q34 -16 68 -27 q29 -14 59 -14q31 -2 58 18q25 18 36 72h119q-14 -96 -65 -164q-53 -73 -153 -74q-39 0 -74 14q-39 10 -76 24q-77 36 -137 38q-20 0 -52 -16q-32 -22 -32 -73z" />
<glyph unicode="&#xd6;" horiz-adv-x="1249" d="M106 727q0 263 14 339t50 140q51 95 167.5 179t288.5 84q171 0 287.5 -84t169.5 -179q35 -64 49 -140t14 -339t-14 -339t-49 -140q-53 -96 -169.5 -178.5t-287.5 -82.5q-172 0 -288.5 82.5t-167.5 178.5q-36 64 -50 140t-14 339zM327 727q0 -225 15.5 -292t58.5 -121 q33 -44 90 -75.5t135 -31.5t135 31.5t90 75.5q43 54 58.5 121t15.5 292q0 224 -15.5 291t-58.5 123q-33 42 -90 74t-135 32t-135 -32t-90 -74q-43 -56 -58.5 -123t-15.5 -291zM696 1557v221h221v-221h-221zM335 1557v221h222v-221h-222z" />
<glyph unicode="&#xd7;" horiz-adv-x="1032" d="M57 151l356 363l-356 366l110 114l353 -367l352 367l111 -114l-368 -366l368 -363l-111 -114l-352 369l-353 -369z" />
<glyph unicode="&#xd8;" horiz-adv-x="1249" d="M106 727q0 263 14 339t50 140q51 95 167.5 179t288.5 84q171 0 287.5 -84t169.5 -179q35 -64 49 -140t14 -339t-14 -339t-49 -140q-53 -96 -169.5 -178.5t-287.5 -82.5q-172 0 -288.5 82.5t-167.5 178.5q-36 64 -50 140t-14 339zM327 727q0 -225 15.5 -292t58.5 -121 q33 -44 90 -75.5t135 -31.5t135 31.5t90 75.5q43 54 58.5 121t15.5 292q0 224 -15.5 291t-58.5 123q-33 42 -90 74t-135 32t-135 -32t-90 -74q-43 -56 -58.5 -123t-15.5 -291zM300 -13l489 1482h160l-489 -1482h-160z" />
<glyph unicode="&#xd9;" horiz-adv-x="1290" d="M129 492v964h221v-939q0 -151 85.5 -230.5t211.5 -79.5t211.5 79.5t85.5 230.5v939h221v-964q0 -228 -151 -366.5t-367 -138.5q-217 0 -367.5 138.5t-150.5 366.5zM695 1553l-282 299h267l182 -299h-167z" />
<glyph unicode="&#xda;" horiz-adv-x="1290" d="M129 492v964h221v-939q0 -151 85.5 -230.5t211.5 -79.5t211.5 79.5t85.5 230.5v939h221v-964q0 -228 -151 -366.5t-367 -138.5q-217 0 -367.5 138.5t-150.5 366.5zM439 1550l183 299h266l-282 -299h-167z" />
<glyph unicode="&#xdb;" horiz-adv-x="1290" d="M286 1548l295 234h131l299 -234h-167l-207 111l-184 -111h-167zM129 492v964h221v-939q0 -151 85.5 -230.5t211.5 -79.5t211.5 79.5t85.5 230.5v939h221v-964q0 -228 -151 -366.5t-367 -138.5q-217 0 -367.5 138.5t-150.5 366.5z" />
<glyph unicode="&#xdc;" horiz-adv-x="1290" d="M129 492v964h221v-939q0 -151 85.5 -230.5t211.5 -79.5t211.5 79.5t85.5 230.5v939h221v-964q0 -228 -151 -366.5t-367 -138.5q-217 0 -367.5 138.5t-150.5 366.5zM716 1557v221h221v-221h-221zM356 1557v221h221v-221h-221z" />
<glyph unicode="&#xdd;" d="M409 -1v599l-437 858h232l310 -647l309 647h233l-438 -858v-599h-209zM297 1558l183 299h266l-282 -299h-167z" />
<glyph unicode="&#xde;" horiz-adv-x="1214" d="M155 -1v1457h221v-299h308q85 0 163.5 -18t163.5 -84q66 -51 112 -140.5t46 -207.5q0 -156 -116.5 -297t-340.5 -141h-336v-270h-221zM376 948v-470h328q123 0 183.5 74t60.5 161q0 132 -95 194q-61 41 -157 41h-320z" />
<glyph unicode="&#xdf;" horiz-adv-x="1099" d="M526 789v196h125q110 0 110 121q0 80 -32 111q-57 46 -181 43q-114 -3 -158.5 -35.5t-47.5 -95.5v-1130h-209v1130q0 171 123.5 255.5t312.5 84.5q178 0 289.5 -94.5t111.5 -251.5q0 -169 -149 -232q149 -60 149 -227v-371q0 -122 -79.5 -208t-208.5 -86h-129v196h73 q135 0 135 109v364q0 121 -114 121h-121z" />
<glyph unicode="&#xe0;" horiz-adv-x="984" d="M687 -5v92h-4q-29 -54 -87 -78q-62 -26 -162 -26q-172 4 -260 92q-96 88 -96 225q0 130 83 218t245 90h281v110q1 138 -207 134q-72 0 -120 -16q-47 -21 -71 -65l-160 126q116 155 341 151q189 2 304 -74q113 -79 115 -268v-711h-202zM687 360v76h-243q-178 -5 -176 -126 q0 -52 46 -90q44 -41 145 -41q128 -2 180 31q48 33 48 150zM549 1169l-282 299h267l182 -299h-167z" />
<glyph unicode="&#xe1;" horiz-adv-x="984" d="M687 -5v92h-4q-29 -54 -87 -78q-62 -26 -162 -26q-172 4 -260 92q-96 88 -96 225q0 130 83 218t245 90h281v110q1 138 -207 134q-72 0 -120 -16q-47 -21 -71 -65l-160 126q116 155 341 151q189 2 304 -74q113 -79 115 -268v-711h-202zM687 360v76h-243q-178 -5 -176 -126 q0 -52 46 -90q44 -41 145 -41q128 -2 180 31q48 33 48 150zM267 1169l183 299h266l-282 -299h-167z" />
<glyph unicode="&#xe2;" horiz-adv-x="984" d="M133 1160l295 234h131l299 -234h-167l-207 111l-184 -111h-167zM687 -5v92h-4q-29 -54 -87 -78q-62 -26 -162 -26q-172 4 -260 92q-96 88 -96 225q0 130 83 218t245 90h281v110q1 138 -207 134q-72 0 -120 -16q-47 -21 -71 -65l-160 126q116 155 341 151q189 2 304 -74 q113 -79 115 -268v-711h-202zM687 360v76h-243q-178 -5 -176 -126q0 -52 46 -90q44 -41 145 -41q128 -2 180 31q48 33 48 150z" />
<glyph unicode="&#xe3;" horiz-adv-x="984" d="M687 -5v92h-4q-29 -54 -87 -78q-62 -26 -162 -26q-172 4 -260 92q-96 88 -96 225q0 130 83 218t245 90h281v110q1 138 -207 134q-72 0 -120 -16q-47 -21 -71 -65l-160 126q116 155 341 151q189 2 304 -74q113 -79 115 -268v-711h-202zM687 360v76h-243q-178 -5 -176 -126 q0 -52 46 -90q44 -41 145 -41q128 -2 180 31q48 33 48 150zM257 1189h-119q16 109 76 175q57 63 149 63q40 0 73 -10q43 -13 70 -26q34 -16 68 -27q29 -14 59 -14q31 -2 58 18q25 18 36 72h119q-14 -96 -65 -164q-53 -73 -153 -74q-39 0 -74 14q-39 10 -76 24 q-77 36 -137 38q-20 0 -52 -16q-32 -22 -32 -73z" />
<glyph unicode="&#xe4;" d="M682 -1v92h-5q-63 -104 -256 -104q-174 0 -270 90.5t-96 226.5q0 123 85 215t253 92h289v108q0 133 -213 133q-148 0 -197 -79l-164 124q109 152 350 152q192 0 312 -75t120 -267v-708h-208zM682 363v76h-250q-181 0 -181 -125q0 -53 45.5 -92t151.5 -39q130 0 182 29 t52 151zM583 1198v221h221v-221h-221zM223 1198v221h221v-221h-221z" />
<glyph unicode="&#xe5;" horiz-adv-x="984" d="M687 -5v92h-4q-29 -54 -87 -78q-62 -26 -162 -26q-172 4 -260 92q-96 88 -96 225q0 130 83 218t245 90h281v110q1 138 -207 134q-72 0 -120 -16q-47 -21 -71 -65l-160 126q116 155 341 151q189 2 304 -74q113 -79 115 -268v-711h-202zM687 360v76h-243q-178 -5 -176 -126 q0 -52 46 -90q44 -41 145 -41q128 -2 180 31q48 33 48 150z" />
<glyph unicode="&#xe6;" horiz-adv-x="1636" d="M1537 438h-646q0 -128 69.5 -192t177.5 -64q129 0 228 100l151 -129q-77 -90 -173.5 -128.5t-201.5 -38.5q-160 0 -315 96q-21 27 -56 81q-117 -130 -175 -154q-62 -26 -162 -26q-172 4 -260 92q-96 88 -96 225q0 130 83 218t245 90h279l2 14v96q1 138 -207 134 q-72 0 -120 -16q-47 -21 -71 -65l-160 126q116 155 341 151q189 2 304 -74q26 -18 46 -43q139 117 290 117q171 0 299 -118.5t128 -319.5v-172zM687 360q-4 36 -5 76h-238q-178 -5 -176 -126q0 -52 46 -90q44 -41 145 -41q128 -2 180 31q48 33 48 150zM891 610h438 q-5 117 -66 179t-153 62q-93 0 -154.5 -62t-64.5 -179z" />
<glyph unicode="&#xe7;" horiz-adv-x="909" d="M747 304l154 -138q-68 -78 -161.5 -128.5t-211.5 -50.5q-180 0 -325.5 122.5t-145.5 407.5t145.5 408.5t325.5 123.5q118 0 211.5 -51t161.5 -129l-154 -137q-88 108 -211 108q-270 0 -270 -323q0 -322 270 -322q124 0 211 109zM431 -4h101l-88 -123h4q24 8 55 8 q82 0 129 -45q45 -45 45 -110q-2 -99 -72 -145q-70 -49 -172 -49q-96 2 -201 49l35 86q71 -29 140 -31q111 0 116 87q0 41 -28 57q-27 19 -70 19q-40 2 -78 -22l-46 39z" />
<glyph unicode="&#xe8;" d="M941 439h-646q0 -128 69.5 -192t177.5 -64q129 0 228 100l151 -129q-77 -90 -173.5 -128.5t-201.5 -38.5q-160 0 -310 103.5t-150 423.5q0 303 138.5 419t289.5 116q171 0 299 -118.5t128 -319.5v-172zM295 611h438q-5 117 -66 179t-153 62q-93 0 -154.5 -62t-64.5 -179z M569 1169l-282 299h267l182 -299h-167z" />
<glyph unicode="&#xe9;" d="M941 439h-646q0 -128 69.5 -192t177.5 -64q129 0 228 100l151 -129q-77 -90 -173.5 -128.5t-201.5 -38.5q-160 0 -310 103.5t-150 423.5q0 303 138.5 419t289.5 116q171 0 299 -118.5t128 -319.5v-172zM295 611h438q-5 117 -66 179t-153 62q-93 0 -154.5 -62t-64.5 -179z M287 1169l183 299h266l-282 -299h-167z" />
<glyph unicode="&#xea;" d="M175 1150l295 234h131l299 -234h-167l-207 111l-184 -111h-167zM941 439h-646q0 -128 69.5 -192t177.5 -64q129 0 228 100l151 -129q-77 -90 -173.5 -128.5t-201.5 -38.5q-160 0 -310 103.5t-150 423.5q0 303 138.5 419t289.5 116q171 0 299 -118.5t128 -319.5v-172z M295 611h438q-5 117 -66 179t-153 62q-93 0 -154.5 -62t-64.5 -179z" />
<glyph unicode="&#xeb;" d="M583 1198v221h221v-221h-221zM223 1198v221h221v-221h-221zM941 439h-646q0 -128 69.5 -192t177.5 -64q129 0 228 100l151 -129q-77 -90 -173.5 -128.5t-201.5 -38.5q-160 0 -310 103.5t-150 423.5q0 303 138.5 419t289.5 116q171 0 299 -118.5t128 -319.5v-172zM295 611 h438q-5 117 -66 179t-153 62q-93 0 -154.5 -62t-64.5 -179z" />
<glyph unicode="&#xec;" horiz-adv-x="491" d="M143 -1v1038h209v-1038h-209zM303 1169l-282 299h267l182 -299h-167z" />
<glyph unicode="&#xed;" horiz-adv-x="491" d="M143 -1v1038h209v-1038h-209zM21 1169l183 299h266l-282 -299h-167z" />
<glyph unicode="&#xee;" horiz-adv-x="491" d="M143 -1v1038h209v-1038h-209zM-106 1157l295 234h131l299 -234h-167l-207 111l-184 -111h-167z" />
<glyph unicode="&#xef;" horiz-adv-x="491" d="M143 -1v1038h209v-1038h-209zM317 1222v221h221v-221h-221zM-43 1222v221h221v-221h-221z" />
<glyph unicode="&#xf0;" d="M226 1133v209h184l-56 113h224q31 -60 58 -113h207v-209h-102q156 -310 174 -365q26 -82 26 -249q0 -170 -26 -252t-86 -148q-43 -48 -119 -90t-196 -42q-122 0 -197.5 42t-118.5 90q-60 66 -86 148t-26 252q0 167 26 249t86 148q43 47 118.5 90t197.5 43q22 0 42 -2 l-43 86h-287zM733 517q0 113 -11.5 159t-39.5 88q-55 76 -168 76q-115 0 -168 -76q-30 -42 -40.5 -88t-10.5 -157q0 -114 10.5 -160.5t40.5 -87.5q53 -76 168 -76q113 0 168 76q28 41 39.5 87t11.5 159z" />
<glyph unicode="&#xf1;" horiz-adv-x="1099" d="M137 -1v1038h209v-111h4q97 123 270 123q121 0 233.5 -92t112.5 -268v-690h-209v618q0 105 -58.5 164t-145.5 59q-90 0 -148.5 -59t-58.5 -164v-618h-209zM314 1189h-119q16 109 76 175q57 63 149 63q40 0 73 -10q43 -13 70 -26q34 -16 68 -27q29 -14 59 -14q31 -2 58 18 q25 18 36 72h119q-14 -96 -65 -164q-53 -73 -153 -74q-39 0 -74 14q-39 10 -76 24q-77 36 -137 38q-20 0 -52 -16q-32 -22 -32 -73z" />
<glyph unicode="&#xf2;" d="M86 519q0 167 26 249t86 148q43 47 118.5 90t197.5 43q120 0 196 -43t119 -90q60 -66 86 -148t26 -249q0 -170 -26 -252t-86 -148q-43 -48 -119 -90t-196 -42q-122 0 -197.5 42t-118.5 90q-60 66 -86 148t-26 252zM733 517q0 113 -11.5 159t-39.5 88q-55 76 -168 76 q-115 0 -168 -76q-30 -42 -40.5 -88t-10.5 -157q0 -114 10.5 -160.5t40.5 -87.5q53 -76 168 -76q113 0 168 76q28 41 39.5 87t11.5 159zM569 1169l-282 299h267l182 -299h-167z" />
<glyph unicode="&#xf3;" d="M86 519q0 167 26 249t86 148q43 47 118.5 90t197.5 43q120 0 196 -43t119 -90q60 -66 86 -148t26 -249q0 -170 -26 -252t-86 -148q-43 -48 -119 -90t-196 -42q-122 0 -197.5 42t-118.5 90q-60 66 -86 148t-26 252zM733 517q0 113 -11.5 159t-39.5 88q-55 76 -168 76 q-115 0 -168 -76q-30 -42 -40.5 -88t-10.5 -157q0 -114 10.5 -160.5t40.5 -87.5q53 -76 168 -76q113 0 168 76q28 41 39.5 87t11.5 159zM287 1169l183 299h266l-282 -299h-167z" />
<glyph unicode="&#xf4;" d="M123 1160l295 234h131l299 -234h-167l-207 111l-184 -111h-167zM86 519q0 167 26 249t86 148q43 47 118.5 90t197.5 43q120 0 196 -43t119 -90q60 -66 86 -148t26 -249q0 -170 -26 -252t-86 -148q-43 -48 -119 -90t-196 -42q-122 0 -197.5 42t-118.5 90q-60 66 -86 148 t-26 252zM733 517q0 113 -11.5 159t-39.5 88q-55 76 -168 76q-115 0 -168 -76q-30 -42 -40.5 -88t-10.5 -157q0 -114 10.5 -160.5t40.5 -87.5q53 -76 168 -76q113 0 168 76q28 41 39.5 87t11.5 159z" />
<glyph unicode="&#xf5;" d="M86 519q0 167 26 249t86 148q43 47 118.5 90t197.5 43q120 0 196 -43t119 -90q60 -66 86 -148t26 -249q0 -170 -26 -252t-86 -148q-43 -48 -119 -90t-196 -42q-122 0 -197.5 42t-118.5 90q-60 66 -86 148t-26 252zM733 517q0 113 -11.5 159t-39.5 88q-55 76 -168 76 q-115 0 -168 -76q-30 -42 -40.5 -88t-10.5 -157q0 -114 10.5 -160.5t40.5 -87.5q53 -76 168 -76q113 0 168 76q28 41 39.5 87t11.5 159zM277 1189h-119q16 109 76 175q57 63 149 63q40 0 73 -10q43 -13 70 -26q34 -16 68 -27q29 -14 59 -14q31 -2 58 18q25 18 36 72h119 q-14 -96 -65 -164q-53 -73 -153 -74q-39 0 -74 14q-39 10 -76 24q-77 36 -137 38q-20 0 -52 -16q-32 -22 -32 -73z" />
<glyph unicode="&#xf6;" d="M86 519q0 167 26 249t86 148q43 47 118.5 90t197.5 43q120 0 196 -43t119 -90q60 -66 86 -148t26 -249q0 -170 -26 -252t-86 -148q-43 -48 -119 -90t-196 -42q-122 0 -197.5 42t-118.5 90q-60 66 -86 148t-26 252zM733 517q0 113 -11.5 159t-39.5 88q-55 76 -168 76 q-115 0 -168 -76q-30 -42 -40.5 -88t-10.5 -157q0 -114 10.5 -160.5t40.5 -87.5q53 -76 168 -76q113 0 168 76q28 41 39.5 87t11.5 159zM583 1198v221h221v-221h-221zM223 1198v221h221v-221h-221z" />
<glyph unicode="&#xf7;" horiz-adv-x="1139" d="M78 434v160h1007v-160h-1007zM448 939q0 58 40 98q37 39 93 39q58 0 96 -39q38 -40 38 -98q0 -57 -38 -96q-37 -41 -96 -41q-57 0 -93 41q-40 40 -40 96zM448 89q0 59 40 98q37 39 93 39q58 0 96 -39q38 -38 38 -98q0 -58 -38 -96q-38 -39 -96 -41q-56 2 -93 41 q-40 38 -40 96z" />
<glyph unicode="&#xf8;" d="M86 519q0 167 26 249t86 148q43 47 118.5 90t197.5 43q120 0 196 -43t119 -90q60 -66 86 -148t26 -249q0 -170 -26 -252t-86 -148q-43 -48 -119 -90t-196 -42q-122 0 -197.5 42t-118.5 90q-60 66 -86 148t-26 252zM733 517q0 113 -11.5 159t-39.5 88q-55 76 -168 76 q-115 0 -168 -76q-30 -42 -40.5 -88t-10.5 -157q0 -114 10.5 -160.5t40.5 -87.5q53 -76 168 -76q113 0 168 76q28 41 39.5 87t11.5 159zM187.499 -12.3164l502.55 1062.02h164.434l-502.55 -1062.02h-164.434z" />
<glyph unicode="&#xf9;" horiz-adv-x="1099" d="M137 347v690h209v-619q0 -106 58.5 -164.5t148.5 -58.5q87 0 145.5 58.5t58.5 164.5v619h209v-1038h-209v110h-4q-97 -122 -268 -122q-123 0 -235.5 91.5t-112.5 268.5zM607 1169l-282 299h267l182 -299h-167z" />
<glyph unicode="&#xfa;" horiz-adv-x="1099" d="M137 347v690h209v-619q0 -106 58.5 -164.5t148.5 -58.5q87 0 145.5 58.5t58.5 164.5v619h209v-1038h-209v110h-4q-97 -122 -268 -122q-123 0 -235.5 91.5t-112.5 268.5zM325 1169l183 299h266l-282 -299h-167z" />
<glyph unicode="&#xfb;" horiz-adv-x="1099" d="M179 1159l295 234h131l299 -234h-167l-207 111l-184 -111h-167zM137 347v690h209v-619q0 -106 58.5 -164.5t148.5 -58.5q87 0 145.5 58.5t58.5 164.5v619h209v-1038h-209v110h-4q-97 -122 -268 -122q-123 0 -235.5 91.5t-112.5 268.5z" />
<glyph unicode="&#xfc;" horiz-adv-x="1099" d="M137 347v690h209v-619q0 -106 58.5 -164.5t148.5 -58.5q87 0 145.5 58.5t58.5 164.5v619h209v-1038h-209v110h-4q-97 -122 -268 -122q-123 0 -235.5 91.5t-112.5 268.5zM610 1198v221h221v-221h-221zM249 1198v221h222v-221h-222z" />
<glyph unicode="&#xfd;" horiz-adv-x="909" d="M360 39l-372 998h220l246 -727h4l246 727h221l-446 -1253q-44 -120 -121 -162.5t-172 -42.5h-70v197h62q94 0 125 90zM230 1169l183 299h266l-282 -299h-167z" />
<glyph unicode="&#xfe;" horiz-adv-x="1062" d="M137 -421v1878h198v-529q120 121 279 121q95 0 164 -38.5t114 -96.5q43 -56 58.5 -130.5t15.5 -266.5q0 -191 -15.5 -266t-58.5 -130q-45 -59 -114 -96.5t-164 -37.5q-81 0 -145.5 33t-122.5 89v-530h-209zM551 195q147 0 176.5 101t29.5 221t-29.5 221.5t-176.5 101.5 t-176 -105t-29 -218t29 -217.5t176 -104.5z" />
<glyph unicode="&#xff;" horiz-adv-x="909" d="M583 1198v221h221v-221h-221zM223 1198v221h221v-221h-221zM360 39l-372 998h220l246 -727h4l246 727h221l-446 -1253q-44 -120 -121 -162.5t-172 -42.5h-70v197h62q94 0 125 90z" />
<glyph unicode="&#x152;" horiz-adv-x="1640" d="M733 -4q-51 -9 -107 -9q-172 0 -288.5 82.5t-167.5 178.5q-36 64 -50 140t-14 339t14 339t50 140q51 95 167.5 179t288.5 84q57 0 108 -10h696v-212h-508v-415h403v-197h-403v-428h508v-208zM626 1247q-78 0 -135 -32t-90 -74q-43 -56 -58.5 -123t-15.5 -291 q0 -225 15.5 -292t58.5 -121q33 -44 90 -75.5t135 -31.5q40 0 75 8v1023q-35 9 -75 9z" />
<glyph unicode="&#x153;" horiz-adv-x="1748" d="M86 519q0 167 26 249t86 148q43 47 118.5 90t197.5 43q120 0 196 -43t119 -90q60 -66 86 -148t26 -249q0 -170 -26 -252t-86 -148q-43 -48 -119 -90t-196 -42q-122 0 -197.5 42t-118.5 90q-60 66 -86 148t-26 252zM733 517q0 113 -11.5 159t-39.5 88q-55 76 -168 76 q-115 0 -168 -76q-30 -42 -40.5 -88t-10.5 -157q0 -114 10.5 -160.5t40.5 -87.5q53 -76 168 -76q113 0 168 76q28 41 39.5 87t11.5 159zM1587 445h-646q0 -128 69.5 -192t177.5 -64q129 0 228 100l151 -129q-77 -90 -173.5 -128.5t-201.5 -38.5q-160 0 -310 103.5 t-150 423.5q0 303 138.5 419t289.5 116q171 0 299 -118.5t128 -319.5v-172zM941 617h438q-5 117 -66 179t-153 62q-93 0 -154.5 -62t-64.5 -179z" />
<glyph unicode="&#x178;" d="M589 1556v221h221v-221h-221zM228 1556v221h222v-221h-222zM409 -1v599l-437 858h232l310 -647l309 647h233l-438 -858v-599h-209z" />
<glyph unicode="&#x2c6;" horiz-adv-x="1201" d="M343 1550l295 234h131l299 -234h-167l-207 111l-184 -111h-167z" />
<glyph unicode="&#x2dc;" horiz-adv-x="800" d="M173 1189h-119q16 109 76 175q57 63 149 63q40 0 73 -10q43 -13 70 -26q34 -16 68 -27q29 -14 59 -14q31 -2 58 18q25 18 36 72h119q-14 -96 -65 -164q-53 -73 -153 -74q-39 0 -74 14q-39 10 -76 24q-77 36 -137 38q-20 0 -52 -16q-32 -22 -32 -73z" />
<glyph unicode="&#x2000;" horiz-adv-x="976" />
<glyph unicode="&#x2001;" horiz-adv-x="1953" />
<glyph unicode="&#x2002;" horiz-adv-x="976" />
<glyph unicode="&#x2003;" horiz-adv-x="1953" />
<glyph unicode="&#x2004;" horiz-adv-x="651" />
<glyph unicode="&#x2005;" horiz-adv-x="488" />
<glyph unicode="&#x2006;" horiz-adv-x="325" />
<glyph unicode="&#x2007;" horiz-adv-x="325" />
<glyph unicode="&#x2008;" horiz-adv-x="244" />
<glyph unicode="&#x2009;" horiz-adv-x="390" />
<glyph unicode="&#x200a;" horiz-adv-x="108" />
<glyph unicode="&#x2010;" horiz-adv-x="833" d="M110 461v209h617v-209h-617z" />
<glyph unicode="&#x2011;" horiz-adv-x="833" d="M110 461v209h617v-209h-617z" />
<glyph unicode="&#x2012;" horiz-adv-x="833" d="M110 461v209h617v-209h-617z" />
<glyph unicode="&#x2013;" horiz-adv-x="1114" d="M67 465v196h994v-196h-994z" />
<glyph unicode="&#x2014;" horiz-adv-x="2040" d="M46 465v196h1990v-196h-1990z" />
<glyph unicode="&#x2018;" horiz-adv-x="400" d="M102 1095v210l202 151v-361h-202z" />
<glyph unicode="&#x2019;" horiz-adv-x="400" d="M102 1095v361h202v-209z" />
<glyph unicode="&#x201a;" horiz-adv-x="400" d="M102 -157v360h202v-208z" />
<glyph unicode="&#x201c;" horiz-adv-x="682" d="M390 1095v210l202 151v-361h-202zM72 1095v210l202 151v-361h-202z" />
<glyph unicode="&#x201d;" horiz-adv-x="661" d="M81 1095v361h202v-209zM398 1095v361h203v-209z" />
<glyph unicode="&#x201e;" horiz-adv-x="661" d="M81 -157v360h202v-208zM398 -157v360h203v-208z" />
<glyph unicode="&#x2022;" horiz-adv-x="813" d="M67 725q1 155 106 258q99 105 248 107q151 -2 251 -107q101 -104 103 -258q-2 -153 -103 -256q-99 -106 -251 -109q-150 3 -248 109q-105 102 -106 256z" />
<glyph unicode="&#x2026;" horiz-adv-x="1473" d="M143 -1v208h209v-208h-209zM634 -1v208h209v-208h-209zM1125 -1v208h209v-208h-209z" />
<glyph unicode="&#x202f;" horiz-adv-x="390" />
<glyph unicode="&#x203a;" horiz-adv-x="1264" d="M1016 -1l-386 1158h-4l-383 -1159h-237l530 1458h184l530 -1457h-234z" />
<glyph unicode="&#x205f;" horiz-adv-x="488" />
<glyph unicode="&#x20ac;" horiz-adv-x="1626" d="M1549 1235l-61 -128q-78 94 -201.5 154t-280.5 60q-197 0 -342.5 -114.5t-193.5 -283.5h932l-63 -132h-899q-4 -54 -4 -69q0 -17 4 -63h839l-63 -132h-746q56 -186 204.5 -294t352.5 -108q141 0 261.5 56t199.5 151v-178q-79 -63 -204.5 -112t-266.5 -49 q-252 0 -445.5 142.5t-250.5 391.5h-237l63 132h149q-3 27 -3 65q0 40 3 67h-212l63 132h174q57 248 251.5 389t454.5 141q149 0 293 -59t229 -159z" />
<glyph unicode="&#x2122;" horiz-adv-x="1914" d="M331 611v699h-246v146h648v-146h-247v-699h-155zM1669 611v686h-4l-263 -686h-102l-261 686h-4v-686h-154v845h242l228 -624l230 624h242v-845h-154z" />
<glyph unicode="&#x25fc;" horiz-adv-x="1035" d="M0 1035h1035v-1035h-1035v1035z" />
</font>
</defs>
</svg>
