<?xml version="1.0" standalone="no"?>
<!DOCTYPE svg PUBLIC "-//W3C//DTD SVG 20010904//EN"
 "http://www.w3.org/TR/2001/REC-SVG-20010904/DTD/svg10.dtd">
<svg version="1.0" xmlns="http://www.w3.org/2000/svg"
 width="480.000000pt" height="480.000000pt" viewBox="0 0 480.000000 480.000000"
 preserveAspectRatio="xMidYMid meet">
<metadata>
Created by potrace 1.11, written by Peter Selinger 2001-2013
</metadata>
<g transform="translate(0.000000,480.000000) scale(0.100000,-0.100000)"
fill="#000000" stroke="none">
<path d="M2260 4469 c-374 -32 -698 -143 -1005 -343 -383 -250 -682 -639 -824
-1073 -81 -244 -120 -539 -101 -752 28 -322 81 -520 205 -776 292 -601 865
-1028 1530 -1139 306 -51 581 -38 895 45 553 145 1047 544 1308 1057 131 256
193 486 222 813 19 213 -20 508 -101 752 -142 434 -441 823 -824 1073 -313
204 -628 310 -1020 344 -133 11 -148 11 -285 -1z m546 -242 c165 -37 282 -80
449 -162 181 -90 302 -175 448 -315 240 -229 387 -459 487 -759 65 -194 81
-287 87 -521 4 -162 2 -229 -11 -319 -10 -63 -22 -123 -27 -133 -35 -66 -227
72 -291 208 -26 56 -32 83 -40 192 -20 274 -63 453 -157 641 -214 433 -622
733 -1105 811 -469 77 -957 -81 -1297 -420 -220 -219 -370 -515 -413 -814 -14
-98 -20 -173 -17 -228 0 -14 13 -40 27 -57 22 -27 32 -31 74 -31 65 0 96 35
105 117 20 175 107 304 253 378 142 71 333 55 464 -40 66 -48 134 -138 158
-209 28 -82 28 -221 0 -301 -38 -111 -141 -216 -260 -267 -55 -23 -55 -23
-598 -26 l-543 -3 -14 34 c-7 18 -21 85 -31 148 -22 155 -15 479 15 621 60
289 197 579 381 803 70 85 222 233 310 302 214 167 503 299 770 352 155 30
145 29 415 26 224 -3 262 -6 361 -28z m-115 -576 c477 -109 845 -468 965 -938
17 -67 28 -148 34 -253 15 -254 56 -357 200 -501 72 -73 99 -93 178 -130 88
-42 92 -45 87 -72 -6 -37 -73 -179 -88 -189 -7 -4 -57 -8 -112 -8 -365 0 -682
207 -816 532 -43 104 -58 180 -68 346 -19 285 -93 476 -259 669 -136 157 -345
288 -547 339 -134 35 -325 43 -446 20 -47 -9 -96 -16 -109 -16 -22 0 -22 1 -7
18 46 51 302 158 442 186 126 24 131 25 300 21 112 -3 186 -10 246 -24z m-526
-396 c288 -60 533 -264 636 -530 78 -200 78 -421 0 -622 -43 -109 -98 -191
-195 -289 -96 -95 -182 -153 -291 -195 -148 -58 -174 -59 -905 -57 l-665 3
-37 75 c-21 41 -38 85 -38 97 l0 22 508 4 c446 3 514 5 566 21 304 90 492 336
490 641 -2 236 -127 440 -344 563 -94 52 -198 77 -327 76 -81 -1 -113 3 -113
11 0 14 83 71 156 108 61 30 169 66 232 77 79 13 253 11 327 -5z m846 -1383
c43 -77 144 -196 224 -264 41 -34 75 -70 75 -79 0 -36 -185 -176 -325 -247
-75 -37 -186 -77 -290 -104 -77 -21 -106 -21 -857 -25 -553 -3 -783 -1 -798 7
-26 14 -140 157 -140 175 0 12 100 15 633 17 l632 3 100 28 c112 30 253 95
347 158 90 61 224 201 290 301 35 53 63 85 70 82 7 -2 25 -26 39 -52z m595
-472 c67 -24 208 -50 265 -50 21 0 41 -5 44 -10 7 -12 -51 -94 -109 -152 l-37
-38 -269 0 c-148 0 -271 4 -274 8 -3 5 25 31 62 58 37 27 104 84 149 127 45
42 89 77 96 77 8 0 40 -9 73 -20z m-106 -474 c0 -18 -127 -99 -256 -164 -258
-129 -529 -192 -834 -192 -371 0 -683 90 -1001 286 -49 31 -89 62 -89 70 0 12
148 14 1090 14 929 0 1090 -2 1090 -14z"/>
</g>
</svg>
