<?xml version="1.0" standalone="no"?>
<!DOCTYPE svg PUBLIC "-//W3C//DTD SVG 20010904//EN"
 "http://www.w3.org/TR/2001/REC-SVG-20010904/DTD/svg10.dtd">
<svg version="1.0" xmlns="http://www.w3.org/2000/svg"
 width="480.000000pt" height="480.000000pt" viewBox="0 0 480.000000 480.000000"
 preserveAspectRatio="xMidYMid meet">
<metadata>
Created by potrace 1.11, written by Peter Selinger 2001-2013
</metadata>
<g transform="translate(0.000000,480.000000) scale(0.100000,-0.100000)"
fill="#000000" stroke="none">
<path d="M2237 4469 c-529 -47 -1050 -308 -1395 -699 -357 -406 -556 -982
-513 -1487 50 -592 322 -1108 771 -1467 332 -264 736 -422 1177 -458 332 -27
725 52 1050 211 674 330 1099 957 1164 1714 35 415 -95 893 -346 1267 -209
311 -479 546 -820 711 -179 87 -313 133 -495 169 -226 46 -395 57 -593 39z
m423 -219 c281 -34 607 -163 855 -338 97 -69 333 -301 403 -397 166 -225 288
-507 338 -773 33 -182 29 -535 -9 -688 -15 -61 -36 -67 -109 -27 -75 40 -147
117 -187 198 -31 64 -35 81 -43 205 -28 428 -165 748 -437 1021 -586 585
-1534 585 -2121 -1 -118 -118 -202 -234 -280 -390 -87 -172 -128 -321 -150
-533 -10 -98 -9 -111 9 -151 24 -54 70 -75 126 -56 45 15 65 52 76 144 34 269
295 448 554 381 136 -36 240 -120 299 -245 29 -61 31 -71 31 -185 0 -114 -2
-123 -32 -188 -38 -80 -117 -164 -191 -201 -108 -55 -124 -56 -679 -56 -484 0
-513 1 -522 18 -5 10 -18 58 -28 108 -25 125 -25 508 0 641 88 465 347 879
729 1163 231 173 578 314 853 349 100 12 415 13 515 1z m-85 -580 c306 -44
542 -166 761 -393 230 -239 333 -481 354 -828 10 -173 23 -228 82 -342 60
-115 159 -210 288 -276 55 -29 100 -56 100 -61 0 -18 -70 -173 -86 -191 -14
-16 -32 -19 -109 -19 -175 0 -370 56 -497 141 -149 100 -277 259 -336 414 -40
107 -51 163 -62 335 -13 202 -47 327 -133 482 -149 272 -442 478 -756 533
-108 19 -273 19 -381 0 -99 -17 -100 -17 -100 -7 0 15 108 78 206 118 106 44
227 78 329 93 84 12 257 12 340 1z m-365 -426 c247 -64 460 -241 570 -476 58
-124 74 -199 74 -353 0 -154 -16 -229 -74 -353 -90 -191 -231 -332 -423 -422
-162 -76 -130 -73 -910 -77 l-697 -4 -41 85 c-23 47 -39 92 -36 100 5 13 78
15 514 18 l508 3 80 27 c214 73 361 220 432 430 23 72 27 99 27 198 -1 98 -5
126 -27 189 -78 216 -220 357 -432 428 -69 23 -97 27 -203 28 -67 0 -122 3
-122 7 0 13 82 69 161 108 80 41 161 68 244 81 75 12 281 2 355 -17z m786
-1351 c62 -102 101 -151 203 -251 l114 -113 -49 -50 c-67 -69 -226 -174 -336
-221 -50 -21 -143 -53 -207 -71 l-116 -32 -776 -3 -776 -3 -63 68 c-72 79 -98
121 -78 128 7 3 294 6 638 8 604 2 628 3 701 24 294 83 508 237 660 476 23 37
48 67 56 67 7 0 20 -12 29 -27z m600 -493 c68 -24 208 -50 266 -50 71 0 61
-31 -49 -147 l-49 -53 -261 0 c-153 0 -264 4 -268 9 -3 6 32 38 77 73 46 34
113 91 150 125 37 35 69 63 71 63 2 0 30 -9 63 -20z m-102 -475 c-1 -34 -289
-189 -464 -250 -393 -137 -810 -141 -1200 -13 -209 68 -525 236 -505 269 9 13
2170 7 2169 -6z"/>
</g>
</svg>
