<?xml version="1.0" encoding="UTF-8" standalone="no"?>
<svg
   version="1.1"
   id="svg833"
   xml:space="preserve"
   width="27.5"
   height="55.363525"
   viewBox="0 0 27.500001 55.363525"
   sodipodi:docname="favicon.svg"
   inkscape:version="1.1 (c4e8f9e, 2021-05-24)"
   xmlns:inkscape="http://www.inkscape.org/namespaces/inkscape"
   xmlns:sodipodi="http://sodipodi.sourceforge.net/DTD/sodipodi-0.dtd"
   xmlns="http://www.w3.org/2000/svg"
   xmlns:svg="http://www.w3.org/2000/svg"
   xmlns:rdf="http://www.w3.org/1999/02/22-rdf-syntax-ns#"
   xmlns:cc="http://creativecommons.org/ns#"
   xmlns:dc="http://purl.org/dc/elements/1.1/"><sodipodi:namedview
     id="namedview847"
     pagecolor="#ffffff"
     bordercolor="#666666"
     borderopacity="1.0"
     inkscape:pageshadow="2"
     inkscape:pageopacity="0.0"
     inkscape:pagecheckerboard="0"
     showgrid="false"
     inkscape:zoom="9.0806197"
     inkscape:cx="27.255849"
     inkscape:cy="24.337546"
     inkscape:current-layer="g843" /><metadata
     id="metadata839"><rdf:RDF><cc:Work
         rdf:about=""><dc:format>image/svg+xml</dc:format><dc:type
           rdf:resource="http://purl.org/dc/dcmitype/StillImage" /></cc:Work></rdf:RDF></metadata><defs
     id="defs837" /><g
     id="g841"
     transform="matrix(1.3333333,0,0,1.3333333,0,1.0507548e-6)"><g
       id="g843"><g
         id="g845"><path
           d="m 12.441,20.562 c 0,3.29 -2.668,5.954 -5.957,5.954 -3.285,0 -5.953,-2.664 -5.953,-5.954 0,-3.289 2.668,-5.953 5.953,-5.953 3.289,0 5.957,2.664 5.957,5.953 z"
           style="fill:none;stroke:#002fa7;stroke-width:1.06311;stroke-linecap:butt;stroke-linejoin:miter;stroke-miterlimit:4;stroke-dasharray:none;stroke-opacity:1"
           id="path847" /></g><g
         id="g849"><path
           d="M 14.043,8.246 10.25,14.133"
           style="fill:none;stroke:#002fa7;stroke-width:1.125;stroke-linecap:butt;stroke-linejoin:miter;stroke-miterlimit:4;stroke-dasharray:none;stroke-opacity:1"
           id="path851" /></g><g
         id="g853"><path
           d="M 13.934,32.918 10.141,27.031"
           style="fill:#ff0000;fill-opacity:1;fill-rule:nonzero;stroke:#002fa7;stroke-width:1.125;stroke-linecap:butt;stroke-linejoin:miter;stroke-miterlimit:4;stroke-dasharray:none;stroke-opacity:1"
           id="path855" /></g><g
         id="g857"><path
           d="m 20.121,37.473 c 0,2.007 -1.629,3.632 -3.633,3.632 -2.008,0 -3.636,-1.625 -3.636,-3.632 0,-2.008 1.628,-3.633 3.636,-3.633 2.004,0 3.633,1.625 3.633,3.633 z"
           style="fill:none;stroke:#00bfff;stroke-width:0.831681;stroke-linecap:butt;stroke-linejoin:miter;stroke-miterlimit:4;stroke-dasharray:none;stroke-opacity:1"
           id="path859" /></g><g
         id="g861"><path
           d="m 20.121,4.051 c 0,2.008 -1.629,3.633 -3.633,3.633 -2.008,0 -3.636,-1.625 -3.636,-3.633 0,-2.008 1.628,-3.637 3.636,-3.637 2.004,0 3.633,1.629 3.633,3.637 z"
           style="fill:none;stroke:#00bfff;stroke-width:0.831681;stroke-linecap:butt;stroke-linejoin:miter;stroke-miterlimit:4;stroke-dasharray:none;stroke-opacity:1"
           id="path863" /></g></g></g></svg>
