<svg fill="none" height="80" viewBox="0 0 80 80" width="80" xmlns="http://www.w3.org/2000/svg" xmlns:xlink="http://www.w3.org/1999/xlink"><linearGradient id="a" gradientUnits="userSpaceOnUse" x1="38.2125" x2="60.6248" y1="-.258347" y2="112.481"><stop offset="0" stop-color="#e43eff"/><stop offset="1" stop-color="#0094ff"/></linearGradient><path clip-rule="evenodd" d="m23.349 25.1787-5.5784 8.3677h-2.488c-.8239 0-1.4918.6679-1.4918 1.4918s.6679 1.4919 1.4918 1.4919h2.488l5.5785 8.3678-2.7347 4.1022c-.4571.6855-.2718 1.6118.4137 2.0688.6856.457 1.6118.2718 2.0689-.4138l2.8436-4.2655h8.2627l5.5786 8.3679-2.7348 4.1021c-.457.6856-.2717 1.6118.4138 2.0688.6856.4571 1.6118.2718 2.0688-.4137l2.8437-4.2656h8.2627l6.1302 9.1952c.457.6856 1.3832.8708 2.0688.4138.6855-.457.8708-1.3833.4137-2.0688l-6.0214-9.0322 5.5783-8.3674h9.0611c.8239 0 1.4918-.6679 1.4918-1.4919 0-.8239-.6679-1.4918-1.4918-1.4918h-9.061l-5.5785-8.3678 6.0213-9.0319c.3341-.5012.3341-1.154 0-1.6551l-6.573-9.8595c-.2767-.4151-.7425-.6644-1.2413-.6644h-9.8595c-.4988 0-.9646.2493-1.2413.6644l-6.1301 9.1951h-8.263l-6.1301-9.1952c-.4571-.6855-1.3833-.8708-2.0689-.4138-.6855.4571-.8707 1.3833-.4137 2.0689zm19.0242 8.3677h8.2627l5.5785-8.3677-5.5785-8.3677h-8.2627l-5.5785 8.3677zm-5.5785 11.3514 5.5785-8.3677h8.2627l5.5785 8.3677-5.5785 8.3676h-8.2627zm-16.4327-9.8596 5.5784-8.3677h8.2627l5.5785 8.3677-5.5785 8.3677h-8.2627zm14.6395 31.2219c.9076 0 1.6433-.7357 1.6433-1.6432 0-.9076-.7357-1.6433-1.6433-1.6433-.9075 0-1.6432.7357-1.6432 1.6433 0 .9075.7357 1.6432 1.6432 1.6432zm-14.7889-11.5028c0 .9075-.7357 1.6432-1.6432 1.6432-.9076 0-1.6433-.7357-1.6433-1.6432 0-.9076.7357-1.6433 1.6433-1.6433.9075 0 1.6432.7357 1.6432 1.6433zm-11.50294-18.0758c.90754 0 1.64324-.7358 1.64324-1.6433s-.7357-1.6433-1.64324-1.6433c-.90755 0-1.64326.7358-1.64326 1.6433s.73571 1.6433 1.64326 1.6433z" fill="url(#a)" fill-rule="evenodd"/></svg>