<svg fill="none" height="80" viewBox="0 0 80 80" width="80" xmlns="http://www.w3.org/2000/svg"><path clip-rule="evenodd" d="m51.2942 35.7647h-.0929c-1.2515.0001-2.3298.0002-3.1934-.1159-.9254-.1245-1.8125-.405-2.532-1.1246-.7195-.7195-1.0001-1.6065-1.1245-2.532-.1161-.8635-.116-1.9418-.116-3.1933v-.0929-5.6471-.0929c0-1.2515-.0001-2.3298.116-3.1933.1244-.9255.405-1.8125 1.1245-2.532.7195-.7196 1.6066-1.0001 2.532-1.1246.8636-.1161 1.9419-.116 3.1934-.1159h.0929 5.647.093c1.2515-.0001 2.3298-.0002 3.1933.1159.9254.1245 1.8125.405 2.532 1.1246.7195.7195 1.0001 1.6065 1.1245 2.532.1161.8635.1161 1.9418.116 3.1933v.0929 5.6471.0929c.0001 1.2515.0001 2.3298-.116 3.1933-.1244.9255-.405 1.8125-1.1245 2.532-.7195.7196-1.6066 1.0001-2.532 1.1246-.8635.1161-1.9418.116-3.1933.1159h-.093zm-3.8218-3.237c.1075.1075.2994.2404.9118.3227.6529.0878 1.5391.0908 2.91.0908h5.647c1.3709 0 2.2571-.003 2.9101-.0908.6123-.0823.8042-.2152.9117-.3227.1075-.1074.2404-.2994.3227-.9117.0878-.6529.0908-1.5391.0908-2.91v-5.6471c0-1.3709-.003-2.2571-.0908-2.91-.0823-.6123-.2152-.8043-.3227-.9117-.1075-.1075-.2994-.2404-.9117-.3227-.653-.0878-1.5392-.0908-2.9101-.0908h-5.647c-1.3709 0-2.2571.003-2.91.0908-.6124.0823-.8043.2152-.9118.3227-.1074.1074-.2403.2994-.3227.9117-.0877.6529-.0907 1.5391-.0907 2.91v5.6471c0 1.3709.003 2.2571.0907 2.91.0824.6123.2153.8043.3227.9117zm-1.8256 14.5311c1.3709 0 2.2571.003 2.9101.0908.6123.0823.8042.2152.9117.3227.1075.1074.2404.2994.3227.9117.0878.6529.0908 1.5391.0908 2.91v5.6471c0 1.3709-.003 2.2571-.0908 2.91-.0823.6123-.2152.8042-.3227.9117s-.2994.2404-.9117.3227c-.653.0878-1.5391.0908-2.9101.0908h-9.8822v-14.1175zm-9.8822-2.8235h9.8822.093c1.2515-.0001 2.3298-.0002 3.1933.1159.9254.1245 1.8125.405 2.532 1.1246.7195.7195 1.0001 1.6065 1.1245 2.532.1161.8634.1161 1.9417.116 3.1931v.0001.0001.0929 5.6471.0929.0001.0001c.0001 1.2514.0001 2.3297-.116 3.1931-.1244.9254-.405 1.8125-1.1245 2.532-.7195.7196-1.6066 1.0001-2.532 1.1246-.8635.1161-1.9417.116-3.1931.1159h-.0001-.0001-.093-9.8822-1.4118-1.4118-9.8822-.093c-1.2515.0001-2.3298.0002-3.1933-.1159-.9254-.1245-1.8125-.405-2.532-1.1246-.7195-.7195-1.0001-1.6066-1.1245-2.532-.1161-.8635-.1161-1.9418-.116-3.1933v-.0929-9.8823-1.4118-1.4117-9.8823-.0929c-.0001-1.2515-.0001-2.3299.116-3.1934.1244-.9254.405-1.8125 1.1245-2.532s1.6066-1.0001 2.532-1.1245c.8635-.1161 1.9418-.116 3.1933-.116h.093 5.647.0929c1.2515 0 2.3298-.0001 3.1934.116.9254.1244 1.8125.405 2.532 1.1245s1.0001 1.6066 1.1245 2.532c.1161.8636.116 1.9419.116 3.1934v.0929zm-2.8236 0v-9.8823c0-1.3709-.0029-2.2571-.0907-2.91-.0824-.6124-.2153-.8043-.3227-.9118-.1075-.1074-.2994-.2403-.9118-.3227-.6529-.0878-1.5391-.0908-2.91-.0908h-5.647c-1.3709 0-2.2571.003-2.9101.0908-.6123.0824-.8042.2153-.9117.3227-.1075.1075-.2404.2994-.3227.9118-.0878.6529-.0908 1.5391-.0908 2.91v9.8823zm-14.1175 2.8235v9.8823c0 1.3709.003 2.2571.0908 2.91.0823.6123.2152.8042.3227.9117s.2994.2404.9117.3227c.653.0878 1.5392.0908 2.9101.0908h9.8822v-14.1175z" fill="#fff" fill-rule="evenodd"/></svg>