<svg fill="none" height="80" viewBox="0 0 80 80" width="80" xmlns="http://www.w3.org/2000/svg" xmlns:xlink="http://www.w3.org/1999/xlink"><linearGradient id="a" gradientUnits="userSpaceOnUse" x1="40" x2="68.1482" y1="-3.27146" y2="115.91"><stop offset="0" stop-color="#e43eff"/><stop offset="1" stop-color="#0094ff"/></linearGradient><path clip-rule="evenodd" d="m50.2419 50.2419c.6499-3.1197 1.0174-6.5784 1.0174-10.2419s-.3675-7.1222-1.0174-10.2419c-3.1197-.6499-6.5784-1.0174-10.2419-1.0174s-7.1222.3675-10.2419 1.0174c-.6499 3.1197-1.0174 6.5784-1.0174 10.2419s.3675 7.1222 1.0174 10.2419c3.1197.6499 6.5784 1.0174 10.2419 1.0174s7.1222-.3675 10.2419-1.0174zm-.7434 3.0107c-2.9673.5318-6.1653.8215-9.4985.8215s-6.5312-.2897-9.4985-.8215c.5753 1.9972 1.2729 3.8096 2.0643 5.3923 2.3973 4.7946 5.1883 6.6884 7.4342 6.6884s5.0369-1.8938 7.4342-6.6884c.7914-1.5827 1.489-3.3951 2.0643-5.3923zm-22.0895-.6616c2.3107 9.2246 7.0811 15.5571 12.591 15.5571s10.2803-6.3325 12.591-15.5571c9.2246-2.3107 15.5571-7.0811 15.5571-12.591s-6.3325-10.2803-15.5571-12.591c-2.3107-9.2246-7.0811-15.5571-12.591-15.5571s-10.2803 6.3325-12.591 15.5571c-9.2246 2.3107-15.5571 7.0811-15.5571 12.591s6.3325 10.2803 15.5571 12.591zm-.6616-3.0925c-1.9972-.5753-3.8096-1.2729-5.3923-2.0643-4.7946-2.3973-6.6884-5.1883-6.6884-7.4342s1.8938-5.0369 6.6884-7.4342c1.5827-.7914 3.3951-1.489 5.3923-2.0643-.5318 2.9673-.8215 6.1653-.8215 9.4985s.2897 6.5312.8215 9.4985zm3.7541-22.7511c2.9673-.5318 6.1653-.8215 9.4985-.8215s6.5312.2897 9.4985.8215c-.5753-1.9972-1.2729-3.8096-2.0643-5.3923-2.3973-4.7946-5.1883-6.6884-7.4342-6.6884s-5.0369 1.8938-7.4342 6.6884c-.7914 1.5827-1.489 3.3951-2.0643 5.3923zm22.7511 3.7541c1.9972.5753 3.8096 1.2729 5.3923 2.0643 4.7946 2.3973 6.6884 5.1883 6.6884 7.4342s-1.8938 5.0369-6.6884 7.4342c-1.5827.7914-3.3951 1.489-5.3923 2.0643.5318-2.9673.8215-6.1653.8215-9.4985s-.2897-6.5312-.8215-9.4985zm-13.2526 12.3133c1.5546 0 2.8148-1.2602 2.8148-2.8148s-1.2602-2.8148-2.8148-2.8148-2.8148 1.2602-2.8148 2.8148 1.2602 2.8148 2.8148 2.8148zm0 2.8148c3.1092 0 5.6296-2.5205 5.6296-5.6296 0-3.1092-2.5204-5.6296-5.6296-5.6296s-5.6296 2.5204-5.6296 5.6296c0 3.1091 2.5204 5.6296 5.6296 5.6296z" fill="url(#a)" fill-rule="evenodd"/></svg>