<svg fill="none" height="80" viewBox="0 0 80 80" width="80" xmlns="http://www.w3.org/2000/svg" xmlns:xlink="http://www.w3.org/1999/xlink"><linearGradient id="a" gradientUnits="userSpaceOnUse" x1="40" x2="67.8031" y1="-3.97786" y2="114.512"><stop offset="0" stop-color="#e43eff"/><stop offset="1" stop-color="#0094ff"/></linearGradient><path clip-rule="evenodd" d="m42.8163 14.5512c-.8929-.3698-1.8499-.5601-2.8163-.5601s-1.9234.1903-2.8163.5601c-.8928.3699-1.7041.912-2.3875 1.5953-.6833.6834-1.2254 1.4947-1.5952 2.3875-.3699.8929-.5602 1.8499-.5602 2.8163s.1903 1.9234.5602 2.8162c.3698.8929.9119 1.7042 1.5952 2.3876.6834.6833 1.4947 1.2254 2.3875 1.5952.8929.3699 1.8499.5602 2.8163.5602s1.9234-.1903 2.8163-.5602c.8928-.3698 1.7041-.9119 2.3875-1.5952.6833-.6834 1.2254-1.4947 1.5952-2.3876.3699-.8928.5602-1.8498.5602-2.8162s-.1903-1.9234-.5602-2.8163c-.3698-.8928-.9119-1.7041-1.5952-2.3875-.6834-.6833-1.4947-1.2254-2.3875-1.5953zm-2.8163-3.5038c1.353 0 2.6927.2665 3.9428.7842 1.25.5178 2.3858 1.2767 3.3425 2.2334s1.7156 2.0925 2.2334 3.3425c.2193.5295.3935 1.0751.5215 1.6309 2.8526 1.2497 5.4483 3.0216 7.6526 5.2259 2.3234 2.3234 4.1665 5.0818 5.424 8.1175 1.2574 3.0357 1.9046 6.2894 1.9046 9.5753 0 .9248-.0513 1.847-.153 2.7626.417.3885.8021.8119 1.1507 1.2662.8236 1.0734 1.4278 2.2985 1.778 3.6054s.4395 2.67.2629 4.0114-.6157 2.6349-1.2922 3.8067c-.6765 1.1717-1.5771 2.1987-2.6505 3.0224-1.0735.8236-2.2986 1.4278-3.6055 1.778s-2.67.4395-4.0114.2629c-.5671-.0747-1.1257-.1963-1.6701-.3629-1.622 1.1937-3.3859 2.1898-5.255 2.964-3.0358 1.2575-6.2894 1.9047-9.5753 1.9047-3.2858 0-6.5395-.6472-9.5753-1.9047-1.869-.7742-3.633-1.7703-5.255-2.964-.5444.1666-1.103.2882-1.6701.3629-1.3414.1766-2.7045.0873-4.0114-.2629s-2.532-.9544-3.6054-1.778c-1.0735-.8237-1.9741-1.8507-2.6506-3.0224-.6765-1.1718-1.1156-2.4653-1.2922-3.8067s-.0873-2.7045.2629-4.0114.9544-2.532 1.778-3.6054c.3486-.4543.7337-.8777 1.1507-1.2662-.1017-.9156-.153-1.8378-.153-2.7626 0-3.2859.6472-6.5395 1.9046-9.5753 1.2575-3.0357 3.1005-5.7941 5.424-8.1175 2.2043-2.2043 4.8-3.9762 7.6526-5.2259.128-.5558.3022-1.1014.5215-1.6309.5178-1.25 1.2767-2.3858 2.2334-3.3425s2.0925-1.7156 3.3425-2.2334c1.25-.5177 2.5898-.7842 3.9428-.7842zm-10.2491 11.3551c-1.973 1.0341-3.7816 2.3627-5.3622 3.9433-2.0501 2.0501-3.6763 4.4839-4.7858 7.1625s-1.6806 5.5495-1.6806 8.4488c0 .3001.0061.5999.0183.8992.9103-.4081 1.8767-.6825 2.8694-.8132 1.3414-.1766 2.7045-.0872 4.0114.2629 1.3069.3502 2.532.9544 3.6054 1.778 1.0734.8237 1.9741 1.8507 2.6506 3.0224.6765 1.1718 1.1156 2.4653 1.2922 3.8067s.0872 2.7045-.263 4.0114c-.3501 1.3069-.9543 2.532-1.778 3.6054-.6098.7949-1.3312 1.495-2.1403 2.0795 1.0664.6753 2.1912 1.2595 3.3629 1.7448 2.6786 1.1095 5.5495 1.6806 8.4488 1.6806s5.7702-.5711 8.4488-1.6806c1.1717-.4853 2.2965-1.0695 3.3629-1.7448-.8091-.5845-1.5305-1.2846-2.1403-2.0795-.8237-1.0734-1.4279-2.2985-1.778-3.6054-.3502-1.3069-.4396-2.67-.263-4.0114s.6157-2.6349 1.2922-3.8067c.6765-1.1717 1.5772-2.1987 2.6506-3.0224 1.0734-.8236 2.2985-1.4278 3.6054-1.778 1.3069-.3501 2.67-.4395 4.0114-.2629.9927.1307 1.9591.4051 2.8694.8132.0122-.2993.0183-.5991.0183-.8992 0-2.8993-.571-5.7702-1.6806-8.4488-1.1095-2.6786-2.7357-5.1124-4.7858-7.1625-1.5806-1.5806-3.3892-2.9092-5.3622-3.9433-.1019.992-.3474 1.9658-.7304 2.8905-.5178 1.2501-1.2767 2.3858-2.2334 3.3426-.9567.9567-2.0925 1.7156-3.3425 2.2334-1.25.5177-2.5898.7842-3.9428.7842s-2.6927-.2665-3.9428-.7842c-1.25-.5178-2.3858-1.2767-3.3425-2.2334-.9567-.9568-1.7156-2.0925-2.2334-3.3425-.383-.9248-.6285-1.8986-.7304-2.8906zm-.2998 28.8948c-.1262-.9581-.4398-1.8821-.923-2.719-.4833-.837-1.1266-1.5705-1.8933-2.1589-.7667-.5883-1.6418-1.0198-2.5753-1.27-.9335-.2501-1.9071-.3139-2.8653-.1878-.9582.1262-1.8821.4398-2.719.923-.837.4832-1.5706 1.1266-2.1589 1.8933s-1.0199 1.6418-1.27 2.5753-.3139 1.9071-.1878 2.8653c.1261.9581.4398 1.8821.923 2.719.4832.837 1.1265 1.5706 1.8933 2.1589.7667.5883 1.6418 1.0199 2.5753 1.27s1.9071.3139 2.8653.1878c.9581-.1262 1.882-.4398 2.719-.923.8369-.4832 1.5705-1.1266 2.1589-1.8933.5883-.7667 1.0198-1.6418 1.27-2.5753.2501-.9335.3139-1.9071.1878-2.8653zm22.0208-2.719c-.4832.8369-.7968 1.7609-.9229 2.719-.1262.9582-.0624 1.9318.1878 2.8653.2501.9335.6816 1.8086 1.27 2.5753.5883.7667 1.3219 1.4101 2.1588 1.8933.837.4832 1.7609.7968 2.7191.923.9581.1261 1.9317.0623 2.8652-.1878s1.8086-.6817 2.5753-1.27c.7668-.5883 1.4101-1.3219 1.8933-2.1589.4832-.8369.7969-1.7609.923-2.719.1261-.9582.0623-1.9318-.1878-2.8653s-.6817-1.8086-1.27-2.5753-1.3219-1.4101-2.1589-1.8933c-.8369-.4832-1.7608-.7968-2.719-.923-.9582-.1261-1.9318-.0623-2.8653.1878-.9335.2502-1.8086.6817-2.5753 1.27-.7667.5884-1.41 1.3219-1.8933 2.1589z" fill="url(#a)" fill-rule="evenodd"/></svg>