<svg fill="none" height="80" viewBox="0 0 80 80" width="80" xmlns="http://www.w3.org/2000/svg"><path clip-rule="evenodd" d="m33.3926 37.9338c-.4183-.2987-.6274-.4481-.835-.4665-.1821-.0162-.3639.0334-.5126.1397-.1695.1212-.2739.3561-.4827.8258l-7.7816 17.5086c-.3727.8385-.559 1.2578-.4796 1.5276.0688.2341.2452.4213.4748.5039.2646.0953.6942-.0658 1.5534-.388l14.4927-5.4348c.1591-.0597.2386-.0895.3205-.1013.0725-.0105.1462-.0105.2188 0 .0818.0118.1614.0416.3204.1013l14.4928 5.4348c.8592.3222 1.2888.4833 1.5533.388.2296-.0826.406-.2698.4749-.5039.0794-.2698-.107-.6891-.4797-1.5276l-7.7816-17.5086c-.2087-.4697-.3131-.7046-.4826-.8258-.1487-.1063-.3305-.1558-.5126-.1397-.2076.0184-.4167.1678-.835.4665l-5.9699 4.2642c-.532.3801-1.2468.3801-1.7788 0zm.4536-4.6396c-.1446.3253-.2169.4879-.2181.6472-.0011.1405.0366.2786.1088.3992.0819.1366.2268.2401.5164.447l5.287 3.7764c.2561.1829.3841.2743.5237.3097.1233.0312.2525.0312.3758 0 .1396-.0354.2676-.1268.5237-.3097l5.287-3.7764c.2896-.2069.4344-.3104.5163-.447.0723-.1206.1099-.2586.1089-.3992-.0012-.1593-.0735-.3219-.2181-.6472l-5.287-11.8958c-.3543-.7972-.5315-1.1958-.7783-1.3184-.2145-.1065-.4664-.1065-.6808 0-.2469.1226-.424.5212-.7783 1.3184z" fill="#296cff" fill-rule="evenodd"/></svg>