<svg fill="none" height="80" viewBox="0 0 80 80" width="80" xmlns="http://www.w3.org/2000/svg" xmlns:xlink="http://www.w3.org/1999/xlink"><linearGradient id="a" gradientUnits="userSpaceOnUse" x1="38.9017" x2="72.1475" y1="-3.4483" y2="115.091"><stop offset="0" stop-color="#e43eff"/><stop offset="1" stop-color="#0094ff"/></linearGradient><path clip-rule="evenodd" d="m17.8166 13.2588c-.0918-.8264-.8361-1.4218-1.6625-1.33-.8263.0918-1.4218.8361-1.3299 1.6625l.8496 7.6468c.7618 6.8562 4.4405 12.7457 9.712 16.486.6781.4811 1.6178.3214 2.0989-.3566.4811-.6781.3215-1.6178-.3566-2.099-.9579-.6796-1.8553-1.4404-2.6817-2.2731h28.9105c-3.7063 3.7345-8.8375 6.0218-14.4552 6.0218-11.9086 0-21.9128 8.9542-23.2279 20.79l-.8496 7.6468c-.0919.8263.5036 1.5706 1.3299 1.6624.8264.0918 1.5707-.5036 1.6625-1.3299l.8496-7.6468.0053-.0469h40.4604l.0053.0469.8496 7.6468c.0918.8263.8361 1.4217 1.6625 1.3299.8263-.0918 1.4218-.8361 1.3299-1.6624l-.8496-7.6468c-.9948-8.9534-6.962-16.2579-14.9644-19.2846 8.0024-3.0267 13.9696-10.3311 14.9644-19.2845l.8496-7.6468c.0919-.8264-.5036-1.5707-1.3299-1.6625-.8264-.0918-1.5707.5036-1.6625 1.33l-.8496 7.6468-.0052.0465h-40.4605l-.0053-.0465zm37.9806 16.7634c1.2294-1.8251 2.1729-3.8649 2.7631-6.0593h-39.3173c.5901 2.1943 1.5335 4.2342 2.763 6.0593.108-.0246.2205-.0376.336-.0376h33.1193c.1155 0 .2279.013.3359.0376zm2.7631 27.0598c-.5863-2.1793-1.521-4.2062-2.738-6.0216h-33.8412c-1.217 1.8154-2.1517 3.8423-2.7379 6.0216zm-19.6586-15.054c5.6175 0 10.7486 2.2872 14.4549 6.0216h-28.9098c3.7063-3.7344 8.8374-6.0216 14.4549-6.0216z" fill="url(#a)" fill-rule="evenodd"/></svg>