<svg fill="none" height="80" viewBox="0 0 80 80" width="80" xmlns="http://www.w3.org/2000/svg" xmlns:xlink="http://www.w3.org/1999/xlink"><linearGradient id="a" gradientUnits="userSpaceOnUse" x1="58.3334" x2="131.369" y1="-84.9785" y2="224.262"><stop offset="0" stop-color="#e43eff"/><stop offset="1" stop-color="#0094ff"/></linearGradient><mask id="b" height="80" maskUnits="userSpaceOnUse" width="80" x="0" y="0"><path clip-rule="evenodd" d="m41.722 19.982c-1.0963-.4872-2.3476-.4872-3.4438 0l-25.2702 11.2312 25.2702 11.2312c1.0962.4872 2.3475.4872 3.4438 0l25.2701-11.2312zm-4.5918-2.5829c1.8271-.812 3.9126-.812 5.7397 0l25.7932 11.4637c.9824.4366 1.4909 1.3351 1.5256 2.25.0023.033.0034.0664.0034.1001v13.543c0 .7805-.6327 1.4132-1.4132 1.4132s-1.4132-.6327-1.4132-1.4132v-10.6157l-7.4371 3.3054c.0685.1661.1064.3481.1064.5389v16.9288c0 .1155-.0142.2307-.0422.3428l-1.3711-.3428c1.3711.3428 1.3707.3444 1.3703.346l-.0009.0034-.0019.0072-.0043.0165c-.0019.007-.004.0146-.0063.0228-.0016.0055-.0033.0114-.0051.0175-.0087.0302-.02.0669-.0342.1095-.0285.0854-.0687.1948-.1244.3248-.1115.26-.2842.6011-.5463.9943-.5267.79-1.4006 1.7697-2.8255 2.7196-2.8452 1.8968-7.8039 3.6231-16.443 3.6231s-13.5978-1.7263-16.443-3.6231c-1.4249-.9499-2.2987-1.9296-2.8255-2.7196-.262-.3932-.4348-.7343-.5463-.9943-.0556-.13-.0959-.2394-.1244-.3248-.0142-.0426-.0255-.0793-.0342-.1095-.0044-.0151-.0082-.0285-.0113-.0403l-.0044-.0165-.0019-.0072-.0008-.0034c-.0004-.0016-.0008-.0032 1.3702-.346l-1.371.3428c-.0281-.1121-.0422-.2273-.0422-.3428v-16.9288c0-.1908.0378-.3728.1064-.5389l-8.7347-3.882c-2.03657-.9052-2.03657-3.7957 0-4.7008zm-14.3385 21.2554v16.0125c.0494.1123.1397.2924.2917.5204.3197.4796.9271 1.1928 2.0415 1.9358 2.2334 1.4889 6.5856 3.1484 14.8752 3.1484 8.2897 0 12.6418-1.6595 14.8752-3.1484 1.1144-.743 1.7218-1.4562 2.0415-1.9358.152-.228.2423-.4081.2917-.5204v-16.0125l-14.3386 6.3727c-1.8271.812-3.9126.812-5.7397 0z" fill="#e43eff" fill-rule="evenodd"/></mask><g mask="url(#b)"><path d="m-14.7028-45.7379h146.072v146.072h-146.072z" fill="url(#a)"/></g></svg>