<svg fill="none" height="1875" viewBox="0 0 1729 1875" width="1729" xmlns="http://www.w3.org/2000/svg"><g fill="#d9d9d9"><circle cx="14.5" cy="14.5" r="14.5"/><circle cx="82.5" cy="14.5" r="14.5"/><circle cx="150.5" cy="14.5" r="14.5"/><circle cx="218.5" cy="14.5" r="14.5"/><circle cx="286.5" cy="14.5" r="14.5"/><circle cx="354.5" cy="14.5" r="14.5"/><circle cx="422.5" cy="14.5" r="14.5"/><circle cx="490.5" cy="14.5" r="14.5"/><circle cx="558.5" cy="14.5" r="14.5"/><circle cx="626.5" cy="14.5" r="14.5"/><circle cx="694.5" cy="14.5" r="14.5"/><circle cx="762.5" cy="14.5" r="14.5"/><circle cx="830.5" cy="14.5" r="14.5"/><circle cx="898.5" cy="14.5" r="14.5"/><circle cx="966.5" cy="14.5" r="14.5"/><circle cx="1034.5" cy="14.5" r="14.5"/><circle cx="1102.5" cy="14.5" r="14.5"/><circle cx="1170.5" cy="14.5" r="14.5"/><circle cx="1238.5" cy="14.5" r="14.5"/><circle cx="1306.5" cy="14.5" r="14.5"/><circle cx="1374.5" cy="14.5" r="14.5"/><circle cx="1442.5" cy="14.5" r="14.5"/><circle cx="1510.5" cy="14.5" r="14.5"/><circle cx="1578.5" cy="14.5" r="14.5"/><circle cx="1646.5" cy="14.5" r="14.5"/><circle cx="1714.5" cy="14.5" r="14.5"/><circle cx="14.5" cy="85.5" r="14.5"/><circle cx="82.5" cy="85.5" r="14.5"/><circle cx="150.5" cy="85.5" r="14.5"/><circle cx="218.5" cy="85.5" r="14.5"/><circle cx="286.5" cy="85.5" r="14.5"/><circle cx="354.5" cy="85.5" r="14.5"/><circle cx="422.5" cy="85.5" r="14.5"/><circle cx="490.5" cy="85.5" r="14.5"/><circle cx="558.5" cy="85.5" r="14.5"/><circle cx="626.5" cy="85.5" r="14.5"/><circle cx="694.5" cy="85.5" r="14.5"/><circle cx="762.5" cy="85.5" r="14.5"/><circle cx="830.5" cy="85.5" r="14.5"/><circle cx="898.5" cy="85.5" r="14.5"/><circle cx="966.5" cy="85.5" r="14.5"/><circle cx="1034.5" cy="85.5" r="14.5"/><circle cx="1102.5" cy="85.5" r="14.5"/><circle cx="1170.5" cy="85.5" r="14.5"/><circle cx="1238.5" cy="85.5" r="14.5"/><circle cx="1306.5" cy="85.5" r="14.5"/><circle cx="1374.5" cy="85.5" r="14.5"/><circle cx="1442.5" cy="85.5" r="14.5"/><circle cx="1510.5" cy="85.5" r="14.5"/><circle cx="1578.5" cy="85.5" r="14.5"/><circle cx="1646.5" cy="85.5" r="14.5"/><circle cx="1714.5" cy="85.5" r="14.5"/><circle cx="14.5" cy="156.5" r="14.5"/><circle cx="82.5" cy="156.5" r="14.5"/><circle cx="150.5" cy="156.5" r="14.5"/><circle cx="218.5" cy="156.5" r="14.5"/><circle cx="286.5" cy="156.5" r="14.5"/><circle cx="354.5" cy="156.5" r="14.5"/><circle cx="422.5" cy="156.5" r="14.5"/><circle cx="490.5" cy="156.5" r="14.5"/><circle cx="558.5" cy="156.5" r="14.5"/><circle cx="626.5" cy="156.5" r="14.5"/><circle cx="694.5" cy="156.5" r="14.5"/><circle cx="762.5" cy="156.5" r="14.5"/><circle cx="830.5" cy="156.5" r="14.5"/><circle cx="898.5" cy="156.5" r="14.5"/><circle cx="966.5" cy="156.5" r="14.5"/><circle cx="1034.5" cy="156.5" r="14.5"/><circle cx="1102.5" cy="156.5" r="14.5"/><circle cx="1170.5" cy="156.5" r="14.5"/><circle cx="1238.5" cy="156.5" r="14.5"/><circle cx="1306.5" cy="156.5" r="14.5"/><circle cx="1374.5" cy="156.5" r="14.5"/><circle cx="1442.5" cy="156.5" r="14.5"/><circle cx="1510.5" cy="156.5" r="14.5"/><circle cx="1578.5" cy="156.5" r="14.5"/><circle cx="1646.5" cy="156.5" r="14.5"/><circle cx="1714.5" cy="156.5" r="14.5"/><circle cx="14.5" cy="227.5" r="14.5"/><circle cx="82.5" cy="227.5" r="14.5"/><circle cx="150.5" cy="227.5" r="14.5"/><circle cx="218.5" cy="227.5" r="14.5"/><circle cx="286.5" cy="227.5" r="14.5"/><circle cx="354.5" cy="227.5" r="14.5"/><circle cx="422.5" cy="227.5" r="14.5"/><circle cx="490.5" cy="227.5" r="14.5"/><circle cx="558.5" cy="227.5" r="14.5"/><circle cx="626.5" cy="227.5" r="14.5"/><circle cx="694.5" cy="227.5" r="14.5"/><circle cx="762.5" cy="227.5" r="14.5"/><circle cx="830.5" cy="227.5" r="14.5"/><circle cx="898.5" cy="227.5" r="14.5"/><circle cx="966.5" cy="227.5" r="14.5"/><circle cx="1034.5" cy="227.5" r="14.5"/><circle cx="1102.5" cy="227.5" r="14.5"/><circle cx="1170.5" cy="227.5" r="14.5"/><circle cx="1238.5" cy="227.5" r="14.5"/><circle cx="1306.5" cy="227.5" r="14.5"/><circle cx="1374.5" cy="227.5" r="14.5"/><circle cx="1442.5" cy="227.5" r="14.5"/><circle cx="1510.5" cy="227.5" r="14.5"/><circle cx="1578.5" cy="227.5" r="14.5"/><circle cx="1646.5" cy="227.5" r="14.5"/><circle cx="1714.5" cy="227.5" r="14.5"/><circle cx="14.5" cy="298.5" r="14.5"/><circle cx="82.5" cy="298.5" r="14.5"/><circle cx="150.5" cy="298.5" r="14.5"/><circle cx="218.5" cy="298.5" r="14.5"/><circle cx="286.5" cy="298.5" r="14.5"/><circle cx="354.5" cy="298.5" r="14.5"/><circle cx="422.5" cy="298.5" r="14.5"/><circle cx="490.5" cy="298.5" r="14.5"/><circle cx="558.5" cy="298.5" r="14.5"/><circle cx="626.5" cy="298.5" r="14.5"/><circle cx="694.5" cy="298.5" r="14.5"/><circle cx="762.5" cy="298.5" r="14.5"/><circle cx="830.5" cy="298.5" r="14.5"/><circle cx="898.5" cy="298.5" r="14.5"/><circle cx="966.5" cy="298.5" r="14.5"/><circle cx="1034.5" cy="298.5" r="14.5"/><circle cx="1102.5" cy="298.5" r="14.5"/><circle cx="1170.5" cy="298.5" r="14.5"/><circle cx="1238.5" cy="298.5" r="14.5"/><circle cx="1306.5" cy="298.5" r="14.5"/><circle cx="1374.5" cy="298.5" r="14.5"/><circle cx="1442.5" cy="298.5" r="14.5"/><circle cx="1510.5" cy="298.5" r="14.5"/><circle cx="1578.5" cy="298.5" r="14.5"/><circle cx="1646.5" cy="298.5" r="14.5"/><circle cx="1714.5" cy="298.5" r="14.5"/><circle cx="14.5" cy="369.5" r="14.5"/><circle cx="82.5" cy="369.5" r="14.5"/><circle cx="150.5" cy="369.5" r="14.5"/><circle cx="218.5" cy="369.5" r="14.5"/><circle cx="286.5" cy="369.5" r="14.5"/><circle cx="354.5" cy="369.5" r="14.5"/><circle cx="422.5" cy="369.5" r="14.5"/><circle cx="490.5" cy="369.5" r="14.5"/><circle cx="558.5" cy="369.5" r="14.5"/><circle cx="626.5" cy="369.5" r="14.5"/><circle cx="694.5" cy="369.5" r="14.5"/><circle cx="762.5" cy="369.5" r="14.5"/><circle cx="830.5" cy="369.5" r="14.5"/><circle cx="898.5" cy="369.5" r="14.5"/><circle cx="966.5" cy="369.5" r="14.5"/><circle cx="1034.5" cy="369.5" r="14.5"/><circle cx="1102.5" cy="369.5" r="14.5"/><circle cx="1170.5" cy="369.5" r="14.5"/><circle cx="1238.5" cy="369.5" r="14.5"/><circle cx="1306.5" cy="369.5" r="14.5"/><circle cx="1374.5" cy="369.5" r="14.5"/><circle cx="1442.5" cy="369.5" r="14.5"/><circle cx="1510.5" cy="369.5" r="14.5"/><circle cx="1578.5" cy="369.5" r="14.5"/><circle cx="1646.5" cy="369.5" r="14.5"/><circle cx="1714.5" cy="369.5" r="14.5"/><circle cx="14.5" cy="440.5" r="14.5"/><circle cx="82.5" cy="440.5" r="14.5"/><circle cx="150.5" cy="440.5" r="14.5"/><circle cx="218.5" cy="440.5" r="14.5"/><circle cx="286.5" cy="440.5" r="14.5"/><circle cx="354.5" cy="440.5" r="14.5"/><circle cx="422.5" cy="440.5" r="14.5"/><circle cx="490.5" cy="440.5" r="14.5"/><circle cx="558.5" cy="440.5" r="14.5"/><circle cx="626.5" cy="440.5" r="14.5"/><circle cx="694.5" cy="440.5" r="14.5"/><circle cx="762.5" cy="440.5" r="14.5"/><circle cx="830.5" cy="440.5" r="14.5"/><circle cx="898.5" cy="440.5" r="14.5"/><circle cx="966.5" cy="440.5" r="14.5"/><circle cx="1034.5" cy="440.5" r="14.5"/><circle cx="1102.5" cy="440.5" r="14.5"/><circle cx="1170.5" cy="440.5" r="14.5"/><circle cx="1238.5" cy="440.5" r="14.5"/><circle cx="1306.5" cy="440.5" r="14.5"/><circle cx="1374.5" cy="440.5" r="14.5"/><circle cx="1442.5" cy="440.5" r="14.5"/><circle cx="1510.5" cy="440.5" r="14.5"/><circle cx="1578.5" cy="440.5" r="14.5"/><circle cx="1646.5" cy="440.5" r="14.5"/><circle cx="1714.5" cy="440.5" r="14.5"/><circle cx="14.5" cy="511.5" r="14.5"/><circle cx="82.5" cy="511.5" r="14.5"/><circle cx="150.5" cy="511.5" r="14.5"/><circle cx="218.5" cy="511.5" r="14.5"/><circle cx="286.5" cy="511.5" r="14.5"/><circle cx="354.5" cy="511.5" r="14.5"/><circle cx="422.5" cy="511.5" r="14.5"/><circle cx="490.5" cy="511.5" r="14.5"/><circle cx="558.5" cy="511.5" r="14.5"/><circle cx="626.5" cy="511.5" r="14.5"/><circle cx="694.5" cy="511.5" r="14.5"/><circle cx="762.5" cy="511.5" r="14.5"/><circle cx="830.5" cy="511.5" r="14.5"/><circle cx="898.5" cy="511.5" r="14.5"/><circle cx="966.5" cy="511.5" r="14.5"/><circle cx="1034.5" cy="511.5" r="14.5"/><circle cx="1102.5" cy="511.5" r="14.5"/><circle cx="1170.5" cy="511.5" r="14.5"/><circle cx="1238.5" cy="511.5" r="14.5"/><circle cx="1306.5" cy="511.5" r="14.5"/><circle cx="1374.5" cy="511.5" r="14.5"/><circle cx="1442.5" cy="511.5" r="14.5"/><circle cx="1510.5" cy="511.5" r="14.5"/><circle cx="1578.5" cy="511.5" r="14.5"/><circle cx="1646.5" cy="511.5" r="14.5"/><circle cx="1714.5" cy="511.5" r="14.5"/><circle cx="14.5" cy="582.5" r="14.5"/><circle cx="82.5" cy="582.5" r="14.5"/><circle cx="150.5" cy="582.5" r="14.5"/><circle cx="218.5" cy="582.5" r="14.5"/><circle cx="286.5" cy="582.5" r="14.5"/><circle cx="354.5" cy="582.5" r="14.5"/><circle cx="422.5" cy="582.5" r="14.5"/><circle cx="490.5" cy="582.5" r="14.5"/><circle cx="558.5" cy="582.5" r="14.5"/><circle cx="626.5" cy="582.5" r="14.5"/><circle cx="694.5" cy="582.5" r="14.5"/><circle cx="762.5" cy="582.5" r="14.5"/><circle cx="830.5" cy="582.5" r="14.5"/><circle cx="898.5" cy="582.5" r="14.5"/><circle cx="966.5" cy="582.5" r="14.5"/><circle cx="1034.5" cy="582.5" r="14.5"/><circle cx="1102.5" cy="582.5" r="14.5"/><circle cx="1170.5" cy="582.5" r="14.5"/><circle cx="1238.5" cy="582.5" r="14.5"/><circle cx="1306.5" cy="582.5" r="14.5"/><circle cx="1374.5" cy="582.5" r="14.5"/><circle cx="1442.5" cy="582.5" r="14.5"/><circle cx="1510.5" cy="582.5" r="14.5"/><circle cx="1578.5" cy="582.5" r="14.5"/><circle cx="1646.5" cy="582.5" r="14.5"/><circle cx="1714.5" cy="582.5" r="14.5"/><circle cx="14.5" cy="653.5" r="14.5"/><circle cx="82.5" cy="653.5" r="14.5"/><circle cx="150.5" cy="653.5" r="14.5"/><circle cx="218.5" cy="653.5" r="14.5"/><circle cx="286.5" cy="653.5" r="14.5"/><circle cx="354.5" cy="653.5" r="14.5"/><circle cx="422.5" cy="653.5" r="14.5"/><circle cx="490.5" cy="653.5" r="14.5"/><circle cx="558.5" cy="653.5" r="14.5"/><circle cx="626.5" cy="653.5" r="14.5"/><circle cx="694.5" cy="653.5" r="14.5"/><circle cx="762.5" cy="653.5" r="14.5"/><circle cx="830.5" cy="653.5" r="14.5"/><circle cx="898.5" cy="653.5" r="14.5"/><circle cx="966.5" cy="653.5" r="14.5"/><circle cx="1034.5" cy="653.5" r="14.5"/><circle cx="1102.5" cy="653.5" r="14.5"/><circle cx="1170.5" cy="653.5" r="14.5"/><circle cx="1238.5" cy="653.5" r="14.5"/><circle cx="1306.5" cy="653.5" r="14.5"/><circle cx="1374.5" cy="653.5" r="14.5"/><circle cx="1442.5" cy="653.5" r="14.5"/><circle cx="1510.5" cy="653.5" r="14.5"/><circle cx="1578.5" cy="653.5" r="14.5"/><circle cx="1646.5" cy="653.5" r="14.5"/><circle cx="1714.5" cy="653.5" r="14.5"/><circle cx="14.5" cy="724.5" r="14.5"/><circle cx="82.5" cy="724.5" r="14.5"/><circle cx="150.5" cy="724.5" r="14.5"/><circle cx="218.5" cy="724.5" r="14.5"/><circle cx="286.5" cy="724.5" r="14.5"/><circle cx="354.5" cy="724.5" r="14.5"/><circle cx="422.5" cy="724.5" r="14.5"/><circle cx="490.5" cy="724.5" r="14.5"/><circle cx="558.5" cy="724.5" r="14.5"/><circle cx="626.5" cy="724.5" r="14.5"/><circle cx="694.5" cy="724.5" r="14.5"/><circle cx="762.5" cy="724.5" r="14.5"/><circle cx="830.5" cy="724.5" r="14.5"/><circle cx="898.5" cy="724.5" r="14.5"/><circle cx="966.5" cy="724.5" r="14.5"/><circle cx="1034.5" cy="724.5" r="14.5"/><circle cx="1102.5" cy="724.5" r="14.5"/><circle cx="1170.5" cy="724.5" r="14.5"/><circle cx="1238.5" cy="724.5" r="14.5"/><circle cx="1306.5" cy="724.5" r="14.5"/><circle cx="1374.5" cy="724.5" r="14.5"/><circle cx="1442.5" cy="724.5" r="14.5"/><circle cx="1510.5" cy="724.5" r="14.5"/><circle cx="1578.5" cy="724.5" r="14.5"/><circle cx="1646.5" cy="724.5" r="14.5"/><circle cx="1714.5" cy="724.5" r="14.5"/><circle cx="14.5" cy="795.5" r="14.5"/><circle cx="82.5" cy="795.5" r="14.5"/><circle cx="150.5" cy="795.5" r="14.5"/><circle cx="218.5" cy="795.5" r="14.5"/><circle cx="286.5" cy="795.5" r="14.5"/><circle cx="354.5" cy="795.5" r="14.5"/><circle cx="422.5" cy="795.5" r="14.5"/><circle cx="490.5" cy="795.5" r="14.5"/><circle cx="558.5" cy="795.5" r="14.5"/><circle cx="626.5" cy="795.5" r="14.5"/><circle cx="694.5" cy="795.5" r="14.5"/><circle cx="762.5" cy="795.5" r="14.5"/><circle cx="830.5" cy="795.5" r="14.5"/><circle cx="898.5" cy="795.5" r="14.5"/><circle cx="966.5" cy="795.5" r="14.5"/><circle cx="1034.5" cy="795.5" r="14.5"/><circle cx="1102.5" cy="795.5" r="14.5"/><circle cx="1170.5" cy="795.5" r="14.5"/><circle cx="1238.5" cy="795.5" r="14.5"/><circle cx="1306.5" cy="795.5" r="14.5"/><circle cx="1374.5" cy="795.5" r="14.5"/><circle cx="1442.5" cy="795.5" r="14.5"/><circle cx="1510.5" cy="795.5" r="14.5"/><circle cx="1578.5" cy="795.5" r="14.5"/><circle cx="1646.5" cy="795.5" r="14.5"/><circle cx="1714.5" cy="795.5" r="14.5"/><circle cx="14.5" cy="866.5" r="14.5"/><circle cx="82.5" cy="866.5" r="14.5"/><circle cx="150.5" cy="866.5" r="14.5"/><circle cx="218.5" cy="866.5" r="14.5"/><circle cx="286.5" cy="866.5" r="14.5"/><circle cx="354.5" cy="866.5" r="14.5"/><circle cx="422.5" cy="866.5" r="14.5"/><circle cx="490.5" cy="866.5" r="14.5"/><circle cx="558.5" cy="866.5" r="14.5"/><circle cx="626.5" cy="866.5" r="14.5"/><circle cx="694.5" cy="866.5" r="14.5"/><circle cx="762.5" cy="866.5" r="14.5"/><circle cx="830.5" cy="866.5" r="14.5"/><circle cx="898.5" cy="866.5" r="14.5"/><circle cx="966.5" cy="866.5" r="14.5"/><circle cx="1034.5" cy="866.5" r="14.5"/><circle cx="1102.5" cy="866.5" r="14.5"/><circle cx="1170.5" cy="866.5" r="14.5"/><circle cx="1238.5" cy="866.5" r="14.5"/><circle cx="1306.5" cy="866.5" r="14.5"/><circle cx="1374.5" cy="866.5" r="14.5"/><circle cx="1442.5" cy="866.5" r="14.5"/><circle cx="1510.5" cy="866.5" r="14.5"/><circle cx="1578.5" cy="866.5" r="14.5"/><circle cx="1646.5" cy="866.5" r="14.5"/><circle cx="1714.5" cy="866.5" r="14.5"/><circle cx="14.5" cy="937.5" r="14.5"/><circle cx="82.5" cy="937.5" r="14.5"/><circle cx="150.5" cy="937.5" r="14.5"/><circle cx="218.5" cy="937.5" r="14.5"/><circle cx="286.5" cy="937.5" r="14.5"/><circle cx="354.5" cy="937.5" r="14.5"/><circle cx="422.5" cy="937.5" r="14.5"/><circle cx="490.5" cy="937.5" r="14.5"/><circle cx="558.5" cy="937.5" r="14.5"/><circle cx="626.5" cy="937.5" r="14.5"/><circle cx="694.5" cy="937.5" r="14.5"/><circle cx="762.5" cy="937.5" r="14.5"/><circle cx="830.5" cy="937.5" r="14.5"/><circle cx="898.5" cy="937.5" r="14.5"/><circle cx="966.5" cy="937.5" r="14.5"/><circle cx="1034.5" cy="937.5" r="14.5"/><circle cx="1102.5" cy="937.5" r="14.5"/><circle cx="1170.5" cy="937.5" r="14.5"/><circle cx="1238.5" cy="937.5" r="14.5"/><circle cx="1306.5" cy="937.5" r="14.5"/><circle cx="1374.5" cy="937.5" r="14.5"/><circle cx="1442.5" cy="937.5" r="14.5"/><circle cx="1510.5" cy="937.5" r="14.5"/><circle cx="1578.5" cy="937.5" r="14.5"/><circle cx="1646.5" cy="937.5" r="14.5"/><circle cx="1714.5" cy="937.5" r="14.5"/><circle cx="14.5" cy="1008.5" r="14.5"/><circle cx="82.5" cy="1008.5" r="14.5"/><circle cx="150.5" cy="1008.5" r="14.5"/><circle cx="218.5" cy="1008.5" r="14.5"/><circle cx="286.5" cy="1008.5" r="14.5"/><circle cx="354.5" cy="1008.5" r="14.5"/><circle cx="422.5" cy="1008.5" r="14.5"/><circle cx="490.5" cy="1008.5" r="14.5"/><circle cx="558.5" cy="1008.5" r="14.5"/><circle cx="626.5" cy="1008.5" r="14.5"/><circle cx="694.5" cy="1008.5" r="14.5"/><circle cx="762.5" cy="1008.5" r="14.5"/><circle cx="830.5" cy="1008.5" r="14.5"/><circle cx="898.5" cy="1008.5" r="14.5"/><circle cx="966.5" cy="1008.5" r="14.5"/><circle cx="1034.5" cy="1008.5" r="14.5"/><circle cx="1102.5" cy="1008.5" r="14.5"/><circle cx="1170.5" cy="1008.5" r="14.5"/><circle cx="1238.5" cy="1008.5" r="14.5"/><circle cx="1306.5" cy="1008.5" r="14.5"/><circle cx="1374.5" cy="1008.5" r="14.5"/><circle cx="1442.5" cy="1008.5" r="14.5"/><circle cx="1510.5" cy="1008.5" r="14.5"/><circle cx="1578.5" cy="1008.5" r="14.5"/><circle cx="1646.5" cy="1008.5" r="14.5"/><circle cx="1714.5" cy="1008.5" r="14.5"/><circle cx="14.5" cy="1079.5" r="14.5"/><circle cx="82.5" cy="1079.5" r="14.5"/><circle cx="150.5" cy="1079.5" r="14.5"/><circle cx="218.5" cy="1079.5" r="14.5"/><circle cx="286.5" cy="1079.5" r="14.5"/><circle cx="354.5" cy="1079.5" r="14.5"/><circle cx="422.5" cy="1079.5" r="14.5"/><circle cx="490.5" cy="1079.5" r="14.5"/><circle cx="558.5" cy="1079.5" r="14.5"/><circle cx="626.5" cy="1079.5" r="14.5"/><circle cx="694.5" cy="1079.5" r="14.5"/><circle cx="762.5" cy="1079.5" r="14.5"/><circle cx="830.5" cy="1079.5" r="14.5"/><circle cx="898.5" cy="1079.5" r="14.5"/><circle cx="966.5" cy="1079.5" r="14.5"/><circle cx="1034.5" cy="1079.5" r="14.5"/><circle cx="1102.5" cy="1079.5" r="14.5"/><circle cx="1170.5" cy="1079.5" r="14.5"/><circle cx="1238.5" cy="1079.5" r="14.5"/><circle cx="1306.5" cy="1079.5" r="14.5"/><circle cx="1374.5" cy="1079.5" r="14.5"/><circle cx="1442.5" cy="1079.5" r="14.5"/><circle cx="1510.5" cy="1079.5" r="14.5"/><circle cx="1578.5" cy="1079.5" r="14.5"/><circle cx="1646.5" cy="1079.5" r="14.5"/><circle cx="1714.5" cy="1079.5" r="14.5"/><circle cx="14.5" cy="1150.5" r="14.5"/><circle cx="82.5" cy="1150.5" r="14.5"/><circle cx="150.5" cy="1150.5" r="14.5"/><circle cx="218.5" cy="1150.5" r="14.5"/><circle cx="286.5" cy="1150.5" r="14.5"/><circle cx="354.5" cy="1150.5" r="14.5"/><circle cx="422.5" cy="1150.5" r="14.5"/><circle cx="490.5" cy="1150.5" r="14.5"/><circle cx="558.5" cy="1150.5" r="14.5"/><circle cx="626.5" cy="1150.5" r="14.5"/><circle cx="694.5" cy="1150.5" r="14.5"/><circle cx="762.5" cy="1150.5" r="14.5"/><circle cx="830.5" cy="1150.5" r="14.5"/><circle cx="898.5" cy="1150.5" r="14.5"/><circle cx="966.5" cy="1150.5" r="14.5"/><circle cx="1034.5" cy="1150.5" r="14.5"/><circle cx="1102.5" cy="1150.5" r="14.5"/><circle cx="1170.5" cy="1150.5" r="14.5"/><circle cx="1238.5" cy="1150.5" r="14.5"/><circle cx="1306.5" cy="1150.5" r="14.5"/><circle cx="1374.5" cy="1150.5" r="14.5"/><circle cx="1442.5" cy="1150.5" r="14.5"/><circle cx="1510.5" cy="1150.5" r="14.5"/><circle cx="1578.5" cy="1150.5" r="14.5"/><circle cx="1646.5" cy="1150.5" r="14.5"/><circle cx="1714.5" cy="1150.5" r="14.5"/><circle cx="14.5" cy="1221.5" r="14.5"/><circle cx="82.5" cy="1221.5" r="14.5"/><circle cx="150.5" cy="1221.5" r="14.5"/><circle cx="218.5" cy="1221.5" r="14.5"/><circle cx="286.5" cy="1221.5" r="14.5"/><circle cx="354.5" cy="1221.5" r="14.5"/><circle cx="422.5" cy="1221.5" r="14.5"/><circle cx="490.5" cy="1221.5" r="14.5"/><circle cx="558.5" cy="1221.5" r="14.5"/><circle cx="626.5" cy="1221.5" r="14.5"/><circle cx="694.5" cy="1221.5" r="14.5"/><circle cx="762.5" cy="1221.5" r="14.5"/><circle cx="830.5" cy="1221.5" r="14.5"/><circle cx="898.5" cy="1221.5" r="14.5"/><circle cx="966.5" cy="1221.5" r="14.5"/><circle cx="1034.5" cy="1221.5" r="14.5"/><circle cx="1102.5" cy="1221.5" r="14.5"/><circle cx="1170.5" cy="1221.5" r="14.5"/><circle cx="1238.5" cy="1221.5" r="14.5"/><circle cx="1306.5" cy="1221.5" r="14.5"/><circle cx="1374.5" cy="1221.5" r="14.5"/><circle cx="1442.5" cy="1221.5" r="14.5"/><circle cx="1510.5" cy="1221.5" r="14.5"/><circle cx="1578.5" cy="1221.5" r="14.5"/><circle cx="1646.5" cy="1221.5" r="14.5"/><circle cx="1714.5" cy="1221.5" r="14.5"/><circle cx="14.5" cy="1292.5" r="14.5"/><circle cx="82.5" cy="1292.5" r="14.5"/><circle cx="150.5" cy="1292.5" r="14.5"/><circle cx="218.5" cy="1292.5" r="14.5"/><circle cx="286.5" cy="1292.5" r="14.5"/><circle cx="354.5" cy="1292.5" r="14.5"/><circle cx="422.5" cy="1292.5" r="14.5"/><circle cx="490.5" cy="1292.5" r="14.5"/><circle cx="558.5" cy="1292.5" r="14.5"/><circle cx="626.5" cy="1292.5" r="14.5"/><circle cx="694.5" cy="1292.5" r="14.5"/><circle cx="762.5" cy="1292.5" r="14.5"/><circle cx="830.5" cy="1292.5" r="14.5"/><circle cx="898.5" cy="1292.5" r="14.5"/><circle cx="966.5" cy="1292.5" r="14.5"/><circle cx="1034.5" cy="1292.5" r="14.5"/><circle cx="1102.5" cy="1292.5" r="14.5"/><circle cx="1170.5" cy="1292.5" r="14.5"/><circle cx="1238.5" cy="1292.5" r="14.5"/><circle cx="1306.5" cy="1292.5" r="14.5"/><circle cx="1374.5" cy="1292.5" r="14.5"/><circle cx="1442.5" cy="1292.5" r="14.5"/><circle cx="1510.5" cy="1292.5" r="14.5"/><circle cx="1578.5" cy="1292.5" r="14.5"/><circle cx="1646.5" cy="1292.5" r="14.5"/><circle cx="1714.5" cy="1292.5" r="14.5"/><circle cx="14.5" cy="1363.5" r="14.5"/><circle cx="82.5" cy="1363.5" r="14.5"/><circle cx="150.5" cy="1363.5" r="14.5"/><circle cx="218.5" cy="1363.5" r="14.5"/><circle cx="286.5" cy="1363.5" r="14.5"/><circle cx="354.5" cy="1363.5" r="14.5"/><circle cx="422.5" cy="1363.5" r="14.5"/><circle cx="490.5" cy="1363.5" r="14.5"/><circle cx="558.5" cy="1363.5" r="14.5"/><circle cx="626.5" cy="1363.5" r="14.5"/><circle cx="694.5" cy="1363.5" r="14.5"/><circle cx="762.5" cy="1363.5" r="14.5"/><circle cx="830.5" cy="1363.5" r="14.5"/><circle cx="898.5" cy="1363.5" r="14.5"/><circle cx="966.5" cy="1363.5" r="14.5"/><circle cx="1034.5" cy="1363.5" r="14.5"/><circle cx="1102.5" cy="1363.5" r="14.5"/><circle cx="1170.5" cy="1363.5" r="14.5"/><circle cx="1238.5" cy="1363.5" r="14.5"/><circle cx="1306.5" cy="1363.5" r="14.5"/><circle cx="1374.5" cy="1363.5" r="14.5"/><circle cx="1442.5" cy="1363.5" r="14.5"/><circle cx="1510.5" cy="1363.5" r="14.5"/><circle cx="1578.5" cy="1363.5" r="14.5"/><circle cx="1646.5" cy="1363.5" r="14.5"/><circle cx="1714.5" cy="1363.5" r="14.5"/><circle cx="14.5" cy="1434.5" r="14.5"/><circle cx="82.5" cy="1434.5" r="14.5"/><circle cx="150.5" cy="1434.5" r="14.5"/><circle cx="218.5" cy="1434.5" r="14.5"/><circle cx="286.5" cy="1434.5" r="14.5"/><circle cx="354.5" cy="1434.5" r="14.5"/><circle cx="422.5" cy="1434.5" r="14.5"/><circle cx="490.5" cy="1434.5" r="14.5"/><circle cx="558.5" cy="1434.5" r="14.5"/><circle cx="626.5" cy="1434.5" r="14.5"/><circle cx="694.5" cy="1434.5" r="14.5"/><circle cx="762.5" cy="1434.5" r="14.5"/><circle cx="830.5" cy="1434.5" r="14.5"/><circle cx="898.5" cy="1434.5" r="14.5"/><circle cx="966.5" cy="1434.5" r="14.5"/><circle cx="1034.5" cy="1434.5" r="14.5"/><circle cx="1102.5" cy="1434.5" r="14.5"/><circle cx="1170.5" cy="1434.5" r="14.5"/><circle cx="1238.5" cy="1434.5" r="14.5"/><circle cx="1306.5" cy="1434.5" r="14.5"/><circle cx="1374.5" cy="1434.5" r="14.5"/><circle cx="1442.5" cy="1434.5" r="14.5"/><circle cx="1510.5" cy="1434.5" r="14.5"/><circle cx="1578.5" cy="1434.5" r="14.5"/><circle cx="1646.5" cy="1434.5" r="14.5"/><circle cx="1714.5" cy="1434.5" r="14.5"/><circle cx="14.5" cy="1505.5" r="14.5"/><circle cx="82.5" cy="1505.5" r="14.5"/><circle cx="150.5" cy="1505.5" r="14.5"/><circle cx="218.5" cy="1505.5" r="14.5"/><circle cx="286.5" cy="1505.5" r="14.5"/><circle cx="354.5" cy="1505.5" r="14.5"/><circle cx="422.5" cy="1505.5" r="14.5"/><circle cx="490.5" cy="1505.5" r="14.5"/><circle cx="558.5" cy="1505.5" r="14.5"/><circle cx="626.5" cy="1505.5" r="14.5"/><circle cx="694.5" cy="1505.5" r="14.5"/><circle cx="762.5" cy="1505.5" r="14.5"/><circle cx="830.5" cy="1505.5" r="14.5"/><circle cx="898.5" cy="1505.5" r="14.5"/><circle cx="966.5" cy="1505.5" r="14.5"/><circle cx="1034.5" cy="1505.5" r="14.5"/><circle cx="1102.5" cy="1505.5" r="14.5"/><circle cx="1170.5" cy="1505.5" r="14.5"/><circle cx="1238.5" cy="1505.5" r="14.5"/><circle cx="1306.5" cy="1505.5" r="14.5"/><circle cx="1374.5" cy="1505.5" r="14.5"/><circle cx="1442.5" cy="1505.5" r="14.5"/><circle cx="1510.5" cy="1505.5" r="14.5"/><circle cx="1578.5" cy="1505.5" r="14.5"/><circle cx="1646.5" cy="1505.5" r="14.5"/><circle cx="1714.5" cy="1505.5" r="14.5"/><circle cx="14.5" cy="1576.5" r="14.5"/><circle cx="82.5" cy="1576.5" r="14.5"/><circle cx="150.5" cy="1576.5" r="14.5"/><circle cx="218.5" cy="1576.5" r="14.5"/><circle cx="286.5" cy="1576.5" r="14.5"/><circle cx="354.5" cy="1576.5" r="14.5"/><circle cx="422.5" cy="1576.5" r="14.5"/><circle cx="490.5" cy="1576.5" r="14.5"/><circle cx="558.5" cy="1576.5" r="14.5"/><circle cx="626.5" cy="1576.5" r="14.5"/><circle cx="694.5" cy="1576.5" r="14.5"/><circle cx="762.5" cy="1576.5" r="14.5"/><circle cx="830.5" cy="1576.5" r="14.5"/><circle cx="898.5" cy="1576.5" r="14.5"/><circle cx="966.5" cy="1576.5" r="14.5"/><circle cx="1034.5" cy="1576.5" r="14.5"/><circle cx="1102.5" cy="1576.5" r="14.5"/><circle cx="1170.5" cy="1576.5" r="14.5"/><circle cx="1238.5" cy="1576.5" r="14.5"/><circle cx="1306.5" cy="1576.5" r="14.5"/><circle cx="1374.5" cy="1576.5" r="14.5"/><circle cx="1442.5" cy="1576.5" r="14.5"/><circle cx="1510.5" cy="1576.5" r="14.5"/><circle cx="1578.5" cy="1576.5" r="14.5"/><circle cx="1646.5" cy="1576.5" r="14.5"/><circle cx="1714.5" cy="1576.5" r="14.5"/><circle cx="14.5" cy="1647.5" r="14.5"/><circle cx="82.5" cy="1647.5" r="14.5"/><circle cx="150.5" cy="1647.5" r="14.5"/><circle cx="218.5" cy="1647.5" r="14.5"/><circle cx="286.5" cy="1647.5" r="14.5"/><circle cx="354.5" cy="1647.5" r="14.5"/><circle cx="422.5" cy="1647.5" r="14.5"/><circle cx="490.5" cy="1647.5" r="14.5"/><circle cx="558.5" cy="1647.5" r="14.5"/><circle cx="626.5" cy="1647.5" r="14.5"/><circle cx="694.5" cy="1647.5" r="14.5"/><circle cx="762.5" cy="1647.5" r="14.5"/><circle cx="830.5" cy="1647.5" r="14.5"/><circle cx="898.5" cy="1647.5" r="14.5"/><circle cx="966.5" cy="1647.5" r="14.5"/><circle cx="1034.5" cy="1647.5" r="14.5"/><circle cx="1102.5" cy="1647.5" r="14.5"/><circle cx="1170.5" cy="1647.5" r="14.5"/><circle cx="1238.5" cy="1647.5" r="14.5"/><circle cx="1306.5" cy="1647.5" r="14.5"/><circle cx="1374.5" cy="1647.5" r="14.5"/><circle cx="1442.5" cy="1647.5" r="14.5"/><circle cx="1510.5" cy="1647.5" r="14.5"/><circle cx="1578.5" cy="1647.5" r="14.5"/><circle cx="1646.5" cy="1647.5" r="14.5"/><circle cx="1714.5" cy="1647.5" r="14.5"/><circle cx="14.5" cy="1718.5" r="14.5"/><circle cx="82.5" cy="1718.5" r="14.5"/><circle cx="150.5" cy="1718.5" r="14.5"/><circle cx="218.5" cy="1718.5" r="14.5"/><circle cx="286.5" cy="1718.5" r="14.5"/><circle cx="354.5" cy="1718.5" r="14.5"/><circle cx="422.5" cy="1718.5" r="14.5"/><circle cx="490.5" cy="1718.5" r="14.5"/><circle cx="558.5" cy="1718.5" r="14.5"/><circle cx="626.5" cy="1718.5" r="14.5"/><circle cx="694.5" cy="1718.5" r="14.5"/><circle cx="762.5" cy="1718.5" r="14.5"/><circle cx="830.5" cy="1718.5" r="14.5"/><circle cx="898.5" cy="1718.5" r="14.5"/><circle cx="966.5" cy="1718.5" r="14.5"/><circle cx="1034.5" cy="1718.5" r="14.5"/><circle cx="1102.5" cy="1718.5" r="14.5"/><circle cx="1170.5" cy="1718.5" r="14.5"/><circle cx="1238.5" cy="1718.5" r="14.5"/><circle cx="1306.5" cy="1718.5" r="14.5"/><circle cx="1374.5" cy="1718.5" r="14.5"/><circle cx="1442.5" cy="1718.5" r="14.5"/><circle cx="1510.5" cy="1718.5" r="14.5"/><circle cx="1578.5" cy="1718.5" r="14.5"/><circle cx="1646.5" cy="1718.5" r="14.5"/><circle cx="1714.5" cy="1718.5" r="14.5"/><circle cx="14.5" cy="1789.5" r="14.5"/><circle cx="82.5" cy="1789.5" r="14.5"/><circle cx="150.5" cy="1789.5" r="14.5"/><circle cx="218.5" cy="1789.5" r="14.5"/><circle cx="286.5" cy="1789.5" r="14.5"/><circle cx="354.5" cy="1789.5" r="14.5"/><circle cx="422.5" cy="1789.5" r="14.5"/><circle cx="490.5" cy="1789.5" r="14.5"/><circle cx="558.5" cy="1789.5" r="14.5"/><circle cx="626.5" cy="1789.5" r="14.5"/><circle cx="694.5" cy="1789.5" r="14.5"/><circle cx="762.5" cy="1789.5" r="14.5"/><circle cx="830.5" cy="1789.5" r="14.5"/><circle cx="898.5" cy="1789.5" r="14.5"/><circle cx="966.5" cy="1789.5" r="14.5"/><circle cx="1034.5" cy="1789.5" r="14.5"/><circle cx="1102.5" cy="1789.5" r="14.5"/><circle cx="1170.5" cy="1789.5" r="14.5"/><circle cx="1238.5" cy="1789.5" r="14.5"/><circle cx="1306.5" cy="1789.5" r="14.5"/><circle cx="1374.5" cy="1789.5" r="14.5"/><circle cx="1442.5" cy="1789.5" r="14.5"/><circle cx="1510.5" cy="1789.5" r="14.5"/><circle cx="1578.5" cy="1789.5" r="14.5"/><circle cx="1646.5" cy="1789.5" r="14.5"/><circle cx="1714.5" cy="1789.5" r="14.5"/><circle cx="14.5" cy="1860.5" r="14.5"/><circle cx="82.5" cy="1860.5" r="14.5"/><circle cx="150.5" cy="1860.5" r="14.5"/><circle cx="218.5" cy="1860.5" r="14.5"/><circle cx="286.5" cy="1860.5" r="14.5"/><circle cx="354.5" cy="1860.5" r="14.5"/><circle cx="422.5" cy="1860.5" r="14.5"/><circle cx="490.5" cy="1860.5" r="14.5"/><circle cx="558.5" cy="1860.5" r="14.5"/><circle cx="626.5" cy="1860.5" r="14.5"/><circle cx="694.5" cy="1860.5" r="14.5"/><circle cx="762.5" cy="1860.5" r="14.5"/><circle cx="830.5" cy="1860.5" r="14.5"/><circle cx="898.5" cy="1860.5" r="14.5"/><circle cx="966.5" cy="1860.5" r="14.5"/><circle cx="1034.5" cy="1860.5" r="14.5"/><circle cx="1102.5" cy="1860.5" r="14.5"/><circle cx="1170.5" cy="1860.5" r="14.5"/><circle cx="1238.5" cy="1860.5" r="14.5"/><circle cx="1306.5" cy="1860.5" r="14.5"/><circle cx="1374.5" cy="1860.5" r="14.5"/><circle cx="1442.5" cy="1860.5" r="14.5"/><circle cx="1510.5" cy="1860.5" r="14.5"/><circle cx="1578.5" cy="1860.5" r="14.5"/><circle cx="1646.5" cy="1860.5" r="14.5"/><circle cx="1714.5" cy="1860.5" r="14.5"/></g></svg>