<svg fill="none" height="80" viewBox="0 0 80 80" width="80" xmlns="http://www.w3.org/2000/svg"><path clip-rule="evenodd" d="m30.2128 20h-.1074c-2.677 0-4.8348-.0001-6.5318.2281-1.7619.2369-3.2454.7436-4.4236 1.9219-1.1783 1.1782-1.685 2.6617-1.9219 4.4236-.2282 1.697-.2281 3.8548-.2281 6.5317v.0001.1074 11.7447.1074c0 2.677-.0001 4.8347.2281 6.5317.2369 1.7619.7436 3.2454 1.9219 4.4237 1.1782 1.1782 2.6617 1.685 4.4236 1.9218 1.697.2282 3.8548.2282 6.5318.2281h.1074 19.5744.1074c2.677.0001 4.8348.0001 6.5318-.2281 1.7619-.2368 3.2454-.7436 4.4237-1.9218 1.1782-1.1783 1.6849-2.6618 1.9218-4.4237.2282-1.697.2282-3.8548.2281-6.5318v-.1073-11.7447-.1074c.0001-2.677.0001-4.8348-.2281-6.5318-.2369-1.7619-.7436-3.2454-1.9218-4.4236-1.1783-1.1783-2.6618-1.685-4.4237-1.9219-1.697-.2282-3.8548-.2281-6.5317-.2281h-.1075zm-8.9866 4.2262c.5417-.5418 1.3023-.895 2.7386-1.0881 1.4786-.1988 3.4382-.2019 6.248-.2019h19.5744c2.8098 0 4.7694.0031 6.248.2019 1.4363.1931 2.1969.5463 2.7387 1.0881.5417.5417.8949 1.3023 1.088 2.7386.094.6987.1442 1.5047.1711 2.4571l-17.924 9.7768c-1.3146.717-2.9034.717-4.218-.0001l-17.924-9.7767c.0269-.9524.0771-1.7584.1711-2.4571.1931-1.4363.5463-2.1969 1.0881-2.7386zm-1.29 8.5235v.4631 11.7447c0 2.8097.0031 4.7693.2019 6.2479.1931 1.4363.5463 2.1969 1.0881 2.7387.5417.5417 1.3023.8949 2.7386 1.088 1.4786.1988 3.4382.202 6.248.202h19.5744c2.8098 0 4.7694-.0032 6.248-.202 1.4363-.1931 2.1969-.5463 2.7387-1.088.5417-.5418.8949-1.3024 1.088-2.7387.1988-1.4786.2019-3.4382.2019-6.2479v-11.7447c0-.157 0-.3114 0-.4631l-16.5488 9.0266c-2.191 1.1951-4.839 1.1951-7.03 0z" fill="#fff" fill-rule="evenodd"/></svg>