<svg fill="none" height="80" viewBox="0 0 80 80" width="80" xmlns="http://www.w3.org/2000/svg" xmlns:xlink="http://www.w3.org/1999/xlink"><linearGradient id="a" gradientUnits="userSpaceOnUse" x1="39.251" x2="66.6497" y1="-1.4786" y2="114.531"><stop offset="0" stop-color="#e43eff"/><stop offset="1" stop-color="#0094ff"/></linearGradient><path clip-rule="evenodd" d="m63.652 21.4619c0 2.8838-2.3379 5.2217-5.2217 5.2217-2.8839 0-5.2217-2.3379-5.2217-5.2217 0-2.8839 2.3378-5.2217 5.2217-5.2217 2.8838 0 5.2217 2.3378 5.2217 5.2217zm2.998 0c0 4.5396-3.6801 8.2197-8.2197 8.2197-1.7283 0-3.332-.5334-4.6555-1.4446l-7.7486 7.7487c.6412.9314 1.0953 2.0015 1.3081 3.1562h8.5638c.6521-2.2976 2.7656-3.9805 5.2721-3.9805 3.0264 0 5.4798 2.4534 5.4798 5.4798s-2.4534 5.4798-5.4798 5.4798c-2.5067 0-4.6203-1.6832-5.2723-3.9811h-8.5635c-.2128 1.1548-.6669 2.225-1.3081 3.1565l4.2564 4.2564c.7895-.4409 1.6993-.6921 2.6677-.6921 3.0265 0 5.4798 2.4534 5.4798 5.4798s-2.4533 5.4798-5.4798 5.4798c-3.0264 0-5.4797-2.4534-5.4797-5.4798 0-.9685.2512-1.8783.6921-2.6678l-4.2564-4.2564c-1.3235.9111-2.9271 1.4445-4.6554 1.4445-1.7282 0-3.3319-.5334-4.6553-1.4445l-7.7489 7.7488c.9111 1.3235 1.4444 2.9271 1.4444 4.6552 0 4.5396-3.6801 8.2197-8.2197 8.2197s-8.2196-3.6801-8.2196-8.2197 3.68-8.2196 8.2196-8.2196c1.7283 0 3.332.5333 4.6555 1.4445l7.7488-7.7488c-.9111-1.3235-1.4444-2.9271-1.4444-4.6553s.5333-3.3319 1.4444-4.6553l-9.7362-9.7363c-.7895.4409-1.6993.6921-2.6678.6921-3.0264 0-5.4797-2.4534-5.4797-5.4798s2.4533-5.4798 5.4797-5.4798c3.0265 0 5.4798 2.4534 5.4798 5.4798 0 .9685-.2512 1.8783-.6921 2.6679l9.7362 9.7362c1.3235-.9111 2.9271-1.4445 4.6553-1.4445s3.3318.5333 4.6553 1.4444l7.7487-7.7487c-.9111-1.3234-1.4444-2.9271-1.4444-4.6552 0-4.5396 3.6801-8.2197 8.2197-8.2197s8.2197 3.6801 8.2197 8.2197zm-27.399 24.4009c2.8839 0 5.2217-2.3379 5.2217-5.2217 0-2.8839-2.3378-5.2217-5.2217-5.2217-2.8838 0-5.2216 2.3378-5.2216 5.2217 0 2.8838 2.3378 5.2217 5.2216 5.2217zm16.1812 8.4777c0 1.3706-1.1111 2.4818-2.4818 2.4818-1.3706 0-2.4817-1.1112-2.4817-2.4818 0-1.3707 1.1111-2.4818 2.4817-2.4818 1.3707 0 2.4818 1.1111 2.4818 2.4818zm5.738-11.2175c1.3707 0 2.4818-1.1112 2.4818-2.4818 0-1.3707-1.1111-2.4818-2.4818-2.4818-1.3706 0-2.4817 1.1111-2.4817 2.4818 0 1.3706 1.1111 2.4818 2.4817 2.4818zm-41.0984-19.1794c1.3707 0 2.4818-1.1111 2.4818-2.4818 0-1.3706-1.1111-2.4818-2.4818-2.4818-1.3706 0-2.4817 1.1112-2.4817 2.4818 0 1.3707 1.1111 2.4818 2.4817 2.4818zm5.2214 35.8767c0 2.8839-2.3378 5.2217-5.2217 5.2217-2.8838 0-5.2216-2.3378-5.2216-5.2217 0-2.8838 2.3378-5.2216 5.2216-5.2216 2.8839 0 5.2217 2.3378 5.2217 5.2216z" fill="url(#a)" fill-rule="evenodd"/></svg>