<svg width="627" height="627" viewBox="0 0 627 627" fill="none" xmlns="http://www.w3.org/2000/svg">
<circle cx="320" cy="151" r="5" fill="white"/>
<circle cx="490" cy="320" r="5" fill="white"/>
<circle cx="320" cy="490" r="5" fill="white"/>
<circle cx="151" cy="320" r="5" fill="white"/>
<circle cx="444.001" cy="198.635" r="5" transform="rotate(45 444.001 198.635)" fill="white"/>
<circle cx="444.708" cy="438.344" r="5" transform="rotate(45 444.708 438.344)" fill="white"/>
<circle cx="204.292" cy="438.344" r="5" transform="rotate(45 204.292 438.344)" fill="white"/>
<circle cx="204.999" cy="198.635" r="5" transform="rotate(45 204.999 198.635)" fill="white"/>
<circle cx="387.061" cy="162.609" r="5" transform="rotate(22.6143 387.061 162.609)" fill="white"/>
<circle cx="479.006" cy="383.985" r="5" transform="rotate(22.6143 479.006 383.985)" fill="white"/>
<circle cx="256.707" cy="475.545" r="5" transform="rotate(22.6143 256.707 475.545)" fill="white"/>
<circle cx="166.07" cy="253.631" r="5" transform="rotate(22.6143 166.07 253.631)" fill="white"/>
<circle cx="483.211" cy="254.264" r="5" transform="rotate(67.6143 483.211 254.264)" fill="white"/>
<circle cx="391.69" cy="475.814" r="5" transform="rotate(67.6143 391.69 475.814)" fill="white"/>
<circle cx="169.758" cy="383.368" r="5" transform="rotate(67.6143 169.758 383.368)" fill="white"/>
<circle cx="262.585" cy="162.361" r="5" transform="rotate(67.6143 262.585 162.361)" fill="white"/>
<circle cx="316.7" cy="89" r="5" fill="white"/>
<circle cx="545.748" cy="316.7" r="5" fill="white"/>
<circle cx="316.7" cy="545.748" r="5" fill="white"/>
<circle cx="89" cy="316.7" r="5" fill="white"/>
<circle cx="485.508" cy="152.461" r="5" transform="rotate(45 485.508 152.461)" fill="white"/>
<circle cx="486.461" cy="475.431" r="5" transform="rotate(45 486.461 475.431)" fill="white"/>
<circle cx="162.539" cy="475.431" r="5" transform="rotate(45 162.539 475.431)" fill="white"/>
<circle cx="163.492" cy="152.461" r="5" transform="rotate(45 163.492 152.461)" fill="white"/>
<circle cx="407.856" cy="104.107" r="5" transform="rotate(22.6143 407.856 104.107)" fill="white"/>
<circle cx="531.736" cy="402.376" r="5" transform="rotate(22.6143 531.736 402.376)" fill="white"/>
<circle cx="232.224" cy="525.738" r="5" transform="rotate(22.6143 232.224 525.738)" fill="white"/>
<circle cx="110.106" cy="226.744" r="5" transform="rotate(22.6143 110.106 226.744)" fill="white"/>
<circle cx="539.282" cy="227.6" r="5" transform="rotate(67.6143 539.282 227.6)" fill="white"/>
<circle cx="415.972" cy="526.105" r="5" transform="rotate(67.6143 415.972 526.105)" fill="white"/>
<circle cx="116.955" cy="401.548" r="5" transform="rotate(67.6143 116.955 401.548)" fill="white"/>
<circle cx="242.024" cy="103.777" r="5" transform="rotate(67.6143 242.024 103.777)" fill="white"/>
<circle cx="312.229" cy="5" r="5" fill="white"/>
<circle cx="621.277" cy="312.23" r="5" fill="white"/>
<circle cx="312.229" cy="621.277" r="5" fill="white"/>
<circle cx="5" cy="312.23" r="5" fill="white"/>
<circle cx="541.744" cy="89.903" r="5" transform="rotate(45 541.744 89.903)" fill="white"/>
<circle cx="543.03" cy="525.677" r="5" transform="rotate(45 543.03 525.677)" fill="white"/>
<circle cx="105.97" cy="525.677" r="5" transform="rotate(45 105.97 525.677)" fill="white"/>
<circle cx="107.256" cy="89.903" r="5" transform="rotate(45 107.256 89.903)" fill="white"/>
<circle cx="436.029" cy="24.8469" r="5" transform="rotate(22.6143 436.029 24.8469)" fill="white"/>
<circle cx="603.177" cy="427.292" r="5" transform="rotate(22.6143 603.177 427.292)" fill="white"/>
<circle cx="199.054" cy="593.741" r="5" transform="rotate(22.6143 199.054 593.741)" fill="white"/>
<circle cx="34.2835" cy="190.317" r="5" transform="rotate(22.6143 34.2835 190.317)" fill="white"/>
<circle cx="615.25" cy="191.476" r="5" transform="rotate(67.6143 615.25 191.476)" fill="white"/>
<circle cx="448.87" cy="594.24" r="5" transform="rotate(67.6143 448.87 594.24)" fill="white"/>
<circle cx="45.4143" cy="426.179" r="5" transform="rotate(67.6143 45.4143 426.179)" fill="white"/>
<circle cx="214.168" cy="24.4041" r="5" transform="rotate(67.6143 214.168 24.4041)" fill="white"/>
<circle cx="322.289" cy="194" r="5" fill="white"/>
<circle cx="451.336" cy="322.289" r="5" fill="white"/>
<circle cx="322.289" cy="451.336" r="5" fill="white"/>
<circle cx="194" cy="322.289" r="5" fill="white"/>
<circle cx="415.214" cy="230.659" r="5" transform="rotate(45 415.214 230.659)" fill="white"/>
<circle cx="415.75" cy="412.623" r="5" transform="rotate(45 415.75 412.623)" fill="white"/>
<circle cx="233.25" cy="412.623" r="5" transform="rotate(45 233.25 412.623)" fill="white"/>
<circle cx="233.786" cy="230.659" r="5" transform="rotate(45 233.786 230.659)" fill="white"/>
<circle cx="372.639" cy="203.183" r="5" transform="rotate(22.6143 372.639 203.183)" fill="white"/>
<circle cx="442.435" cy="371.23" r="5" transform="rotate(22.6143 442.435 371.23)" fill="white"/>
<circle cx="273.687" cy="440.734" r="5" transform="rotate(22.6143 273.687 440.734)" fill="white"/>
<circle cx="204.884" cy="272.278" r="5" transform="rotate(22.6143 204.884 272.278)" fill="white"/>
<circle cx="444.323" cy="272.756" r="5" transform="rotate(67.6143 444.323 272.756)" fill="white"/>
<circle cx="374.849" cy="440.936" r="5" transform="rotate(67.6143 374.849 440.936)" fill="white"/>
<circle cx="206.38" cy="370.759" r="5" transform="rotate(67.6143 206.38 370.759)" fill="white"/>
<circle cx="276.845" cy="202.992" r="5" transform="rotate(67.6143 276.845 202.992)" fill="white"/>
<circle cx="324.417" cy="234" r="5" fill="white"/>
<circle cx="415.37" cy="324.417" r="5" fill="white"/>
<circle cx="324.417" cy="415.37" r="5" fill="white"/>
<circle cx="234" cy="324.417" r="5" fill="white"/>
<circle cx="388.435" cy="260.448" r="5" transform="rotate(45 388.435 260.448)" fill="white"/>
<circle cx="388.813" cy="388.696" r="5" transform="rotate(45 388.813 388.696)" fill="white"/>
<circle cx="260.187" cy="388.696" r="5" transform="rotate(45 260.187 388.696)" fill="white"/>
<circle cx="260.565" cy="260.448" r="5" transform="rotate(45 260.565 260.448)" fill="white"/>
<circle cx="359.223" cy="240.926" r="5" transform="rotate(22.6143 359.223 240.926)" fill="white"/>
<circle cx="408.415" cy="359.366" r="5" transform="rotate(22.6143 408.415 359.366)" fill="white"/>
<circle cx="289.482" cy="408.351" r="5" transform="rotate(22.6143 289.482 408.351)" fill="white"/>
<circle cx="240.99" cy="289.624" r="5" transform="rotate(22.6143 240.99 289.624)" fill="white"/>
<circle cx="408.149" cy="289.958" r="5" transform="rotate(67.6143 408.149 289.958)" fill="white"/>
<circle cx="359.183" cy="408.49" r="5" transform="rotate(67.6143 359.183 408.49)" fill="white"/>
<circle cx="240.447" cy="359.03" r="5" transform="rotate(67.6143 240.447 359.03)" fill="white"/>
<circle cx="290.111" cy="240.789" r="5" transform="rotate(67.6143 290.111 240.789)" fill="white"/>
</svg>
