<svg fill="none" height="80" viewBox="0 0 80 80" width="80" xmlns="http://www.w3.org/2000/svg" xmlns:xlink="http://www.w3.org/1999/xlink"><linearGradient id="a" gradientUnits="userSpaceOnUse" x1="38.9082" x2="70.7255" y1="-3.25745" y2="110.331"><stop offset="0" stop-color="#e43eff"/><stop offset="1" stop-color="#0094ff"/></linearGradient><path clip-rule="evenodd" d="m21.5342 25.9817c-3.2806-.736-5.7317-3.6662-5.7317-7.1689 0-4.0576 3.2893-7.347 7.3469-7.347 4.0577 0 7.347 3.2894 7.347 7.347 0 3.5017-2.4497 6.4312-5.7288 7.1682.0054 1.632.0292 2.8663.1338 3.8657.1304 1.2455.3719 1.9402.73 2.4562.3303.476.7433.8889 1.2192 1.2193.5161.3581 1.2108.5995 2.4563.7299 1.2738.1334 2.9292.1355 5.3034.1355h12.888c.7365-3.2799 3.6664-5.7305 7.1686-5.7305 4.0576 0 7.347 3.2894 7.347 7.347s-3.2894 7.347-7.347 7.347c-3.5022 0-6.4321-2.4505-7.1686-5.7304h-12.888-.0899-.0001c-2.2631 0-4.0881 0-5.5501-.1531-1.5098-.158-2.8162-.4936-3.9629-1.2893-.0815-.0566-.162-.1147-.2413-.1742v9.9895c0 3.0939.0034 5.2517.2223 6.8798.2126 1.5815.6016 2.419 1.1981 3.0156.5965.5965 1.4341.9854 3.0156 1.1981 1.6281.2189 3.7859.2223 6.8797.2223h11.4166c.7365-3.28 3.6664-5.7305 7.1686-5.7305 4.0576 0 7.347 3.2894 7.347 7.347s-3.2894 7.347-7.347 7.347c-3.5022 0-6.4321-2.4505-7.1686-5.7304h-11.4166-.1182c-2.9477 0-5.3236 0-7.1923-.2512-1.9401-.2608-3.5736-.8188-4.8709-2.1162-1.2974-1.2974-1.8554-2.9309-2.1162-4.871-.2513-1.8686-.2512-4.2445-.2512-7.1922v-.1183-18.5851h.0136c-.0073-.4521-.0107-.9273-.0123-1.4268zm1.6152-3.055c-2.272 0-4.1139-1.8419-4.1139-4.1139s1.8419-4.1139 4.1139-4.1139c2.2721 0 4.114 1.8419 4.114 4.1139s-1.8419 4.1139-4.114 4.1139zm35.6314 35.9992c0-2.272-1.8419-4.1139-4.1139-4.1139-2.2721 0-4.1139 1.8419-4.1139 4.1139 0 2.2721 1.8418 4.1139 4.1139 4.1139 2.272 0 4.1139-1.8418 4.1139-4.1139zm0-22.9218c0-2.272-1.8419-4.1139-4.1139-4.1139-2.2721 0-4.1139 1.8419-4.1139 4.1139 0 2.2721 1.8418 4.1139 4.1139 4.1139 2.272 0 4.1139-1.8418 4.1139-4.1139z" fill="url(#a)" fill-rule="evenodd"/></svg>