<svg fill="none" height="80" viewBox="0 0 80 80" width="80" xmlns="http://www.w3.org/2000/svg" xmlns:xlink="http://www.w3.org/1999/xlink"><mask id="a" height="35" maskUnits="userSpaceOnUse" width="35" x="24" y="19"><path clip-rule="evenodd" d="m24.5605 23.5881c0-2.3295 1.8906-4.2201 4.2201-4.2201 2.3296 0 4.2202 1.8906 4.2202 4.2201s-1.8906 4.2202-4.2202 4.2202c-2.3295 0-4.2201-1.8907-4.2201-4.2202zm22.7892 5.9089c-6.0601 0-10.9742 4.8841-10.9742 10.9048v11.0379c0 .9322.7578 1.69 1.69 1.69h3.9369c.9321 0 1.6899-.7578 1.6899-1.69v-11.0379c0-2.1307 1.8456-3.8338 4.0363-3.6143 1.9019.1894 3.2767 1.9281 3.2767 3.8393v10.8129c0 .9322.7577 1.69 1.6899 1.69h3.9369c.9322 0 1.6899-.7578 1.6899-1.69v-11.0379c0-6.0207-4.9141-10.9048-10.9723-10.9048zm-16.0379 1.687h-5.0623c-.9322 0-1.6899.7559-1.6899 1.688v18.5686c0 .9321.7577 1.688 1.6899 1.688h5.0623c.9322 0 1.688-.7559 1.688-1.688v-18.5686c0-.9321-.7558-1.688-1.688-1.688z" fill="#fff" fill-rule="evenodd"/></mask><path clip-rule="evenodd" d="m24.5605 23.5881c0-2.3295 1.8906-4.2201 4.2201-4.2201 2.3296 0 4.2202 1.8906 4.2202 4.2201s-1.8906 4.2202-4.2202 4.2202c-2.3295 0-4.2201-1.8907-4.2201-4.2202zm22.7892 5.9089c-6.0601 0-10.9742 4.8841-10.9742 10.9048v11.0379c0 .9322.7578 1.69 1.69 1.69h3.9369c.9321 0 1.6899-.7578 1.6899-1.69v-11.0379c0-2.1307 1.8456-3.8338 4.0363-3.6143 1.9019.1894 3.2767 1.9281 3.2767 3.8393v10.8129c0 .9322.7577 1.69 1.6899 1.69h3.9369c.9322 0 1.6899-.7578 1.6899-1.69v-11.0379c0-6.0207-4.9141-10.9048-10.9723-10.9048zm-16.0379 1.687h-5.0623c-.9322 0-1.6899.7559-1.6899 1.688v18.5686c0 .9321.7577 1.688 1.6899 1.688h5.0623c.9322 0 1.688-.7559 1.688-1.688v-18.5686c0-.9321-.7558-1.688-1.688-1.688z" fill="#fff" fill-rule="evenodd"/><g mask="url(#a)"><path d="m18.9335 13.7411h45.0146v45.0146h-45.0146z" fill="#fff"/></g><circle cx="40" cy="40" r="37.6471" stroke="#fff" stroke-width="4.70588"/></svg>