<svg fill="none" height="80" viewBox="0 0 80 80" width="80" xmlns="http://www.w3.org/2000/svg" xmlns:xlink="http://www.w3.org/1999/xlink"><mask id="a" height="32" maskUnits="userSpaceOnUse" width="35" x="24" y="24"><path clip-rule="evenodd" d="m34.5175 55.0049c13.5906 0 21.4532-10.5521 21.4532-20.566 0-.2757 1.9318-1.9338 2.759-5.3905.1688-.7015-.5139-1.2548-1.1573-.9603-1.6505.7577-3.3254.1575-4.0532-.7052-2.7984-3.0517-7.478-3.198-10.4546-.3283-1.9187 1.8512-2.7328 4.6084-2.1382 7.2399-6.2852.4482-10.6009-2.5302-14.1496-6.6134-.4576-.5308-1.3073-.2514-1.4029.4501-.5252 3.905-.6903 13.3994 8.7178 18.8518-1.6337 2.3482-4.8316 3.7343-8.3915 4.3289-.7877.1331-.9753 1.2247-.2551 1.5774 2.821 1.3879 5.9213 2.1138 9.0724 2.11" fill="#fff" fill-rule="evenodd"/></mask><circle cx="40" cy="40.0001" r="37.6471" stroke="#fff" stroke-width="4.70588"/><path clip-rule="evenodd" d="m34.5175 55.0049c13.5906 0 21.4532-10.5521 21.4532-20.566 0-.2757 1.9318-1.9338 2.759-5.3905.1688-.7015-.5139-1.2548-1.1573-.9603-1.6505.7577-3.3254.1575-4.0532-.7052-2.7984-3.0517-7.478-3.198-10.4546-.3283-1.9187 1.8512-2.7328 4.6084-2.1382 7.2399-6.2852.4482-10.6009-2.5302-14.1496-6.6134-.4576-.5308-1.3073-.2514-1.4029.4501-.5252 3.905-.6903 13.3994 8.7178 18.8518-1.6337 2.3482-4.8316 3.7343-8.3915 4.3289-.7877.1331-.9753 1.2247-.2551 1.5774 2.821 1.3879 5.9213 2.1138 9.0724 2.11" fill="#231f20" fill-rule="evenodd"/><g mask="url(#a)"><path d="m19.3683 17.4922h45.0146v45.0146h-45.0146z" fill="#fff"/></g></svg>