<svg fill="none" height="453" viewBox="0 0 714 453" width="714" xmlns="http://www.w3.org/2000/svg" xmlns:xlink="http://www.w3.org/1999/xlink"><mask id="a" height="399" maskUnits="userSpaceOnUse" width="550" x="-112" y="64"><path d="m-110.335 459.658 145.3853-56.406 82.2737-48.465 31.339-44.847 140.764-65.005 52.186-55.255 76.88-101.3572" fill="none" stroke="#00e6d3" stroke-width="6.70092"/><circle cx="413.61" cy="88.4508" fill="#00e6d3" r="23.9174" transform="matrix(.98699769 -.16073447 .16073447 .98699769 -8.839205 67.631449)"/></mask><g mask="url(#a)"><path d="m20.5968-50.5745h737.6522v469.1385h-737.6522z" fill="#00cae6"/></g><g fill="#fff"><circle cx="572" cy="212.841" r="15" transform="matrix(-1 0 0 -1 1144 425.682)"/><circle cx="470.352" cy="303.876" r="15" transform="matrix(-1 0 0 -1 940.704 607.752)"/><circle cx="699" cy="202.841" r="15" transform="matrix(-1 0 0 -1 1398 405.682)"/><circle cx="416.332" cy="180.401" r="15" transform="matrix(-1 0 0 -1 832.664 360.802)"/><circle cx="364" cy="222.841" r="15" transform="matrix(-1 0 0 -1 728 445.682)"/><circle cx="102" cy="168.841" r="15" transform="matrix(-1 0 0 -1 204 337.682)"/><circle cx="175.627" cy="237.729" r="15" transform="matrix(-1 0 0 -1 351.254 475.458)"/><circle cx="166" cy="190.841" r="15" transform="matrix(-1 0 0 -1 332 381.682)"/><circle cx="15" cy="202.841" r="15" transform="matrix(-1 0 0 -1 30 405.682)"/><circle cx="269.704" cy="168.641" r="15" transform="matrix(-1 0 0 -1 539.408 337.282)"/><circle cx="600" cy="168.841" r="15" transform="matrix(-1 0 0 -1 1200 337.682)"/><circle cx="499" cy="237.841" r="15" transform="matrix(-1 0 0 -1 998 475.682)"/></g></svg>