<svg fill="none" height="326" viewBox="0 0 486 326" width="486" xmlns="http://www.w3.org/2000/svg"><g fill="#030d4f"><path d="m138.271 10.185v-1.92284h2.154c.318 0 .6-.06666.846-.19998.256-.13332.456-.31791.6-.55378.154-.23587.231-.50251.231-.79992 0-.46148-.17-.8358-.508-1.12295-.328-.28715-.754-.43072-1.277-.43072h-2.046v-1.92287l2.139-.01538c.758-.01026 1.43.13844 2.015.4461.584.2974 1.041.70762 1.369 1.23064s.492 1.12808.492 1.81518c0 .67685-.174 1.28192-.523 1.81519-.338.52302-.805.93323-1.4 1.23064-.595.28719-1.271.43069-2.03.43069zm-1.861 3.815v-10.76806h2.107v10.76806zm5.922 0-2.492-4.32261 1.616-1.15372 3.261 5.47633zm7.177.1846c-.759 0-1.431-.1692-2.015-.5076-.585-.3487-1.046-.8256-1.385-1.4307-.328-.605-.492-1.3024-.492-2.092 0-.78969.169-1.48705.508-2.09212.348-.60506.82-1.0768 1.415-1.41523.605-.34868 1.297-.52302 2.077-.52302.666 0 1.282.17947 1.846.53841.574.34868 1.035.86657 1.384 1.55367.349.67685.523 1.5024.523 2.47669h-2.061c.01-.6769-.062-1.21529-.216-1.61524-.143-.41021-.348-.70249-.615-.87683-.266-.1846-.579-.27689-.938-.27689-.4 0-.739.08204-1.015.24612-.277.16409-.488.41534-.631.75377-.133.32817-.2.75889-.2 1.29217 0 .4615.092.8461.277 1.1537.184.3077.43.5435.738.7076.308.1539.646.2308 1.015.2308.4 0 .723-.0872.97-.2615.256-.1744.451-.4.584-.6769l1.908.7384c-.216.4307-.498.805-.847 1.123-.338.3076-.743.5435-1.215.7076-.471.1641-1.01.2461-1.615.2461zm-2.569-3.4919.015-1.58448h5.415v1.58448zm7.61 3.3073v-10.76806h2.031v10.76806zm8.401 0-.077-1.5537v-2.3382c0-.46147-.051-.85117-.154-1.16909-.103-.32817-.262-.5743-.477-.73838-.205-.17434-.482-.26151-.831-.26151-.307 0-.584.06666-.83.19998s-.457.34868-.631.64608l-1.846-.6307c.144-.32817.354-.64608.631-.95374.277-.31792.636-.5743 1.077-.76915.451-.2051.999-.30766 1.646-.30766.769 0 1.41.13845 1.922.41534.523.27689.913.68711 1.17 1.23064.256.53327.379 1.18961.369 1.96901l-.046 4.26108zm-2.123.1846c-.923 0-1.641-.2051-2.154-.6153-.502-.4102-.753-.9897-.753-1.7383 0-.8204.271-1.4357.815-1.84595.554-.42047 1.328-.6307 2.323-.6307h1.953v1.50755h-1.246c-.666 0-1.128.082-1.384.2461-.257.1538-.385.3743-.385.6615 0 .2256.103.4051.308.5384.205.123.492.1846.861.1846.328 0 .621-.0769.877-.2308.257-.1641.456-.3692.6-.6153.154-.2564.231-.5179.231-.7845h.538c0 1.046-.205 1.8613-.615 2.4459-.4.5845-1.056.8768-1.969.8768zm8.879 0c-.851 0-1.497-.2102-1.938-.6307-.431-.4205-.646-1.0204-.646-1.7998v-7.84531h2.03v7.39921c0 .3282.072.5794.216.7537.143.1641.353.2462.63.2462.103 0 .216-.0205.339-.0616.123-.0512.251-.123.384-.2153l.708 1.5229c-.246.1846-.523.3333-.831.4461-.297.1231-.595.1846-.892.1846zm-3.83-6.15318v-1.72289h5.199v1.72289zm6.973 5.96858v-7.69147h2.031v7.69147zm1.016-8.93749c-.308 0-.58-.11281-.816-.33843-.236-.23587-.353-.51276-.353-.83067 0-.31792.117-.58968.353-.8153.236-.23587.508-.35381.816-.35381.318 0 .589.11794.815.35381.236.22562.354.49738.354.8153 0 .31791-.118.5948-.354.83067-.226.22562-.497.33843-.815.33843zm5.441 8.93749 2.923-7.69147h2.092l-3.154 7.69147zm-.169 0-3.154-7.69147h2.092l2.923 7.69147zm9.399.1846c-.759 0-1.43-.1692-2.015-.5076-.584-.3487-1.046-.8256-1.384-1.4307-.329-.605-.493-1.3024-.493-2.092 0-.78969.17-1.48705.508-2.09212.349-.60506.82-1.0768 1.415-1.41523.605-.34868 1.298-.52302 2.077-.52302.667 0 1.282.17947 1.846.53841.574.34868 1.036.86657 1.384 1.55367.349.67685.523 1.5024.523 2.47669h-2.061c.01-.6769-.061-1.21529-.215-1.61524-.144-.41021-.349-.70249-.616-.87683-.266-.1846-.579-.27689-.938-.27689-.4 0-.738.08204-1.015.24612-.277.16409-.487.41534-.631.75377-.133.32817-.2.75889-.2 1.29217 0 .4615.092.8461.277 1.1537.185.3077.431.5435.738.7076.308.1539.646.2308 1.016.2308.4 0 .723-.0872.969-.2615.256-.1744.451-.4.584-.6769l1.908.7384c-.216.4307-.498.805-.846 1.123-.339.3076-.744.5435-1.216.7076-.471.1641-1.01.2461-1.615.2461zm-2.569-3.4919.016-1.58448h5.414v1.58448zm15.183 3.4919c-.543 0-1.051-.0667-1.523-.2s-.892-.3179-1.261-.5538c-.369-.2461-.677-.5179-.923-.8153-.236-.2974-.39-.6102-.462-.9383l2.062-.6153c.133.3486.369.6512.707.9076.339.2461.764.3743 1.277.3845.544.0103.985-.1077 1.323-.3538.349-.2461.523-.564.523-.9537 0-.3385-.138-.6205-.415-.8461-.267-.23586-.636-.41533-1.108-.53839l-1.4-.36919c-.523-.13332-.984-.3333-1.384-.59994-.4-.27689-.713-.61531-.939-1.01527-.225-.39996-.338-.86657-.338-1.39985 0-1.01527.333-1.80493 1-2.36897.677-.5743 1.631-.86145 2.861-.86145.687 0 1.287.10256 1.8.30766.523.19485.959.47687 1.308.84606.348.3692.615.80504.799 1.30755l-2.046.6307c-.123-.34867-.348-.64608-.676-.89221-.329-.24612-.744-.36919-1.246-.36919-.513 0-.918.11794-1.216.35381-.287.23587-.43.56917-.43.99989 0 .33843.112.60507.338.79992.236.19485.554.34355.954.4461l1.415.35381c.923.22562 1.641.6307 2.154 1.21525.512.58455.769 1.23581.769 1.95361 0 .6359-.154 1.1948-.462 1.6768-.307.4717-.753.8409-1.338 1.1075-.585.2667-1.292.4-2.123.4zm8.606 0c-.851 0-1.498-.2102-1.939-.6307-.43-.4205-.646-1.0204-.646-1.7998v-7.84531h2.031v7.39921c0 .3282.072.5794.215.7537.144.1641.354.2462.631.2462.103 0 .215-.0205.338-.0616.123-.0512.252-.123.385-.2153l.708 1.5229c-.247.1846-.523.3333-.831.4461-.297.1231-.595.1846-.892.1846zm-3.831-6.15318v-1.72289h5.2v1.72289zm8.282 1.92287c0-.83068.159-1.51779.477-2.06132.328-.54353.743-.94861 1.246-1.21525.512-.26664 1.046-.39996 1.599-.39996v1.96902c-.471 0-.917.0564-1.338.16921-.41.11281-.743.2974-1 .55379-.256.25638-.384.58455-.384.98451zm-1.431 4.04571v-7.69147h2.031v7.69147zm10.905 0-.123-1.4152v-6.27627h2.031v7.69147zm-5.215-3.292v-4.39947h2.031v3.93807zm2.031-.4614c0 .5127.056.9178.169 1.2152.123.2872.292.4974.508.6307.225.1231.477.1846.753.1846.534.0103.939-.1487 1.216-.4769.277-.3384.415-.8255.415-1.4613h.692c0 .8204-.123 1.5177-.369 2.092-.236.5641-.574.9999-1.015 1.3076-.431.2974-.939.4461-1.523.4461-.923 0-1.636-.282-2.138-.8461-.493-.5743-.739-1.4511-.739-2.6305zm10.558 3.938c-.8 0-1.513-.1692-2.138-.5076-.626-.3487-1.113-.8256-1.462-1.4307-.348-.6153-.523-1.3126-.523-2.092 0-.78969.175-1.48705.523-2.09212.349-.60506.831-1.0768 1.446-1.41523.616-.34868 1.323-.52302 2.123-.52302.769 0 1.472.18973 2.108.56917.636.37945 1.097.92811 1.384 1.64598l-1.907.67685c-.144-.29741-.369-.53328-.677-.70762-.298-.18459-.631-.27689-1-.27689-.379 0-.713.0923-1 .27689-.287.17434-.513.42047-.677.73838-.164.31792-.246.68711-.246 1.10761 0 .4204.082.7896.246 1.1075.164.3077.395.5538.692.7384.298.1846.636.2769 1.016.2769.369 0 .702-.0974 1-.2923.307-.1948.533-.4512.677-.7691l1.922.6768c-.297.7282-.764 1.2922-1.399 1.6922-.626.3999-1.329.5999-2.108.5999zm7.859 0c-.851 0-1.497-.2102-1.938-.6307-.431-.4205-.646-1.0204-.646-1.7998v-7.84531h2.03v7.39921c0 .3282.072.5794.216.7537.143.1641.354.2462.63.2462.103 0 .216-.0205.339-.0616.123-.0512.251-.123.384-.2153l.708 1.5229c-.246.1846-.523.3333-.831.4461-.297.1231-.594.1846-.892.1846zm-3.83-6.15318v-1.72289h5.199v1.72289zm11.927 5.96858-.123-1.4152v-6.27627h2.03v7.69147zm-5.215-3.292v-4.39947h2.031v3.93807zm2.031-.4614c0 .5127.056.9178.169 1.2152.123.2872.292.4974.507.6307.226.1231.477.1846.754.1846.534.0103.939-.1487 1.216-.4769.276-.3384.415-.8255.415-1.4613h.692c0 .8204-.123 1.5177-.369 2.092-.236.5641-.574.9999-1.015 1.3076-.431.2974-.939.4461-1.523.4461-.923 0-1.636-.282-2.139-.8461-.492-.5743-.738-1.4511-.738-2.6305zm8.281-.29231c0-.83068.159-1.51779.477-2.06132.328-.54353.744-.94861 1.246-1.21525.513-.26664 1.046-.39996 1.6-.39996v1.96902c-.472 0-.918.0564-1.338.16921-.411.11281-.744.2974-1 .55379-.257.25638-.385.58455-.385.98451zm-1.43 4.04571v-7.69147h2.03v7.69147zm9.305.1846c-.759 0-1.431-.1692-2.015-.5076-.585-.3487-1.046-.8256-1.385-1.4307-.328-.605-.492-1.3024-.492-2.092 0-.78969.169-1.48705.508-2.09212.348-.60506.82-1.0768 1.415-1.41523.605-.34868 1.297-.52302 2.076-.52302.667 0 1.282.17947 1.846.53841.575.34868 1.036.86657 1.385 1.55367.349.67685.523 1.5024.523 2.47669h-2.061c.01-.6769-.062-1.21529-.216-1.61524-.143-.41021-.348-.70249-.615-.87683-.267-.1846-.579-.27689-.938-.27689-.4 0-.739.08204-1.016.24612-.277.16409-.487.41534-.63.75377-.134.32817-.2.75889-.2 1.29217 0 .4615.092.8461.277 1.1537.184.3077.43.5435.738.7076.308.1539.646.2308 1.015.2308.4 0 .723-.0872.969-.2615.257-.1744.452-.4.585-.6769l1.907.7384c-.215.4307-.497.805-.846 1.123-.338.3076-.743.5435-1.215.7076s-1.01.2461-1.615.2461zm-2.569-3.4919.015-1.58448h5.415v1.58448zm13.429-.2615v-1.93829h2.261c.472 0 .857-.15383 1.154-.46149.308-.30766.462-.71275.462-1.21526 0-.32816-.077-.61531-.231-.86144-.154-.25638-.364-.45636-.631-.59994-.267-.14357-.574-.21023-.923-.19997h-2.092v-1.92287l2.138-.01538c.759-.01026 1.431.14357 2.015.46148.585.30766 1.041.73326 1.37 1.27679.328.53327.492 1.15372.492 1.86133 0 .69737-.159 1.31781-.477 1.86134s-.754.97425-1.308 1.29217c-.553.30763-1.194.46153-1.923.46153zm-1.861 3.5688v-10.76806h2.107v10.76806zm10.377-4.04571c0-.83068.159-1.51779.477-2.06132.328-.54353.743-.94861 1.246-1.21525.512-.26664 1.046-.39996 1.6-.39996v1.96902c-.472 0-.918.0564-1.339.16921-.41.11281-.743.2974-1 .55379-.256.25638-.384.58455-.384.98451zm-1.431 4.04571v-7.69147h2.031v7.69147zm9.305.1846c-.758 0-1.43-.1692-2.015-.5076-.584-.3487-1.046-.8256-1.384-1.4307-.328-.605-.492-1.3024-.492-2.092 0-.78969.169-1.48705.507-2.09212.349-.60506.821-1.0768 1.415-1.41523.606-.34868 1.298-.52302 2.077-.52302.667 0 1.282.17947 1.846.53841.574.34868 1.036.86657 1.385 1.55367.348.67685.523 1.5024.523 2.47669h-2.062c.011-.6769-.061-1.21529-.215-1.61524-.144-.41021-.349-.70249-.615-.87683-.267-.1846-.58-.27689-.939-.27689-.4 0-.738.08204-1.015.24612-.277.16409-.487.41534-.631.75377-.133.32817-.2.75889-.2 1.29217 0 .4615.093.8461.277 1.1537.185.3077.431.5435.739.7076.307.1539.646.2308 1.015.2308.4 0 .723-.0872.969-.2615.256-.1744.451-.4.585-.6769l1.907.7384c-.215.4307-.497.805-.846 1.123-.339.3076-.744.5435-1.215.7076-.472.1641-1.01.2461-1.616.2461zm-2.568-3.4919.015-1.58448h5.415v1.58448zm13.086 3.3073-.108-1.4306v-9.33746h2.031v10.76806zm-2.415.1846c-.708 0-1.323-.1641-1.846-.4923-.513-.3281-.913-.7947-1.2-1.3998s-.431-1.3178-.431-2.1382c0-.83072.144-1.54346.431-2.13827.287-.60506.687-1.07167 1.2-1.39984.523-.32817 1.138-.49226 1.846-.49226.646 0 1.189.16409 1.63.49226.452.32817.795.79478 1.031 1.39984.236.59481.354 1.30755.354 2.13827 0 .8204-.118 1.5331-.354 2.1382s-.579 1.0717-1.031 1.3998c-.441.3282-.984.4923-1.63.4923zm.523-1.8613c.349 0 .656-.0923.923-.2769.277-.1846.492-.441.646-.7692s.231-.7025.231-1.1229c0-.4205-.077-.79482-.231-1.12299s-.369-.57943-.646-.75377c-.267-.18459-.58-.27689-.939-.27689-.369 0-.692.0923-.969.27689-.277.17434-.497.4256-.661.75377s-.246.70249-.246 1.12299c0 .4204.082.7947.246 1.1229s.384.5846.661.7692c.287.1846.616.2769.985.2769zm5.687 1.6767v-7.69147h2.031v7.69147zm1.016-8.93749c-.308 0-.58-.11281-.816-.33843-.236-.23587-.353-.51276-.353-.83067 0-.31792.117-.58968.353-.8153.236-.23587.508-.35381.816-.35381.318 0 .589.11794.815.35381.236.22562.354.49738.354.8153 0 .31791-.118.5948-.354.83067-.226.22562-.497.33843-.815.33843zm6.595 9.12209c-.8 0-1.513-.1692-2.139-.5076-.625-.3487-1.112-.8256-1.461-1.4307-.349-.6153-.523-1.3126-.523-2.092 0-.78969.174-1.48705.523-2.09212.349-.60506.831-1.0768 1.446-1.41523.615-.34868 1.323-.52302 2.123-.52302.769 0 1.471.18973 2.107.56917.636.37945 1.098.92811 1.385 1.64598l-1.908.67685c-.143-.29741-.369-.53328-.677-.70762-.297-.18459-.63-.27689-1-.27689-.379 0-.712.0923-.999.27689-.288.17434-.513.42047-.677.73838-.164.31792-.246.68711-.246 1.10761 0 .4204.082.7896.246 1.1075.164.3077.395.5538.692.7384s.636.2769 1.015.2769c.369 0 .703-.0974 1-.2923.308-.1948.533-.4512.677-.7691l1.923.6768c-.298.7282-.764 1.2922-1.4 1.6922-.626.3999-1.328.5999-2.107.5999zm7.859 0c-.852 0-1.498-.2102-1.939-.6307-.43-.4205-.646-1.0204-.646-1.7998v-7.84531h2.031v7.39921c0 .3282.072.5794.215.7537.144.1641.354.2462.631.2462.103 0 .215-.0205.338-.0616.123-.0512.252-.123.385-.2153l.708 1.5229c-.247.1846-.523.3333-.831.4461-.298.1231-.595.1846-.892.1846zm-3.831-6.15318v-1.72289h5.2v1.72289zm6.974 5.96858v-7.69147h2.031v7.69147zm1.015-8.93749c-.307 0-.579-.11281-.815-.33843-.236-.23587-.354-.51276-.354-.83067 0-.31792.118-.58968.354-.8153.236-.23587.508-.35381.815-.35381.318 0 .59.11794.816.35381.236.22562.353.49738.353.8153 0 .31791-.117.5948-.353.83067-.226.22562-.498.33843-.816.33843zm6.503 9.12209c-.779 0-1.477-.1692-2.092-.5076-.605-.3487-1.082-.8256-1.431-1.4307-.338-.605-.507-1.3024-.507-2.092 0-.78969.169-1.48705.507-2.09212.339-.60506.81-1.0768 1.416-1.41523.605-.34868 1.297-.52302 2.076-.52302.79 0 1.487.17434 2.092.52302.605.33843 1.077.81017 1.416 1.41523.338.60507.507 1.30243.507 2.09212 0 .7896-.169 1.487-.507 2.092-.339.6051-.811 1.082-1.416 1.4307-.594.3384-1.282.5076-2.061.5076zm0-1.8767c.379 0 .713-.0923 1-.2769s.508-.4359.661-.7538c.164-.3282.247-.7025.247-1.1229 0-.4205-.083-.78969-.247-1.10761-.164-.32817-.394-.58455-.692-.76915-.287-.18459-.62-.27689-1-.27689-.369 0-.702.0923-1 .27689-.287.1846-.512.44098-.676.76915-.165.31792-.247.68711-.247 1.10761 0 .4204.082.7947.247 1.1229.164.3179.394.5692.692.7538.297.1846.636.2769 1.015.2769zm5.323 1.6921v-7.69147h1.908l.123 1.41523v6.27624zm5.092 0v-3.938l2.031-.46152v4.39952zm0-3.938c0-.52305-.061-.92814-.185-1.21529-.112-.28714-.276-.49225-.492-.61531-.215-.13332-.466-.19998-.754-.19998-.523-.01026-.928.1487-1.215.47687-.277.32817-.415.81529-.415 1.46138h-.677c0-.82043.118-1.51266.354-2.0767.246-.5743.584-1.01015 1.015-1.30755.431-.30766.938-.46149 1.523-.46149.933 0 1.646.28715 2.138.86145.503.56404.749 1.43574.739 2.6151zm7.609 3.938v-10.76806h2.108v10.76806zm1.6 0v-1.9229h5.276v1.9229zm0-4.52259v-1.87671h4.569v1.87671zm0-4.3226v-1.92287h5.215v1.92287zm8.597 4.79948c0-.83068.159-1.51779.477-2.06132.328-.54353.743-.94861 1.246-1.21525.513-.26664 1.046-.39996 1.6-.39996v1.96902c-.472 0-.918.0564-1.339.16921-.41.11281-.743.2974-.999.55379-.257.25638-.385.58455-.385.98451zm-1.431 4.04571v-7.69147h2.031v7.69147zm7.26-4.04571c0-.83068.159-1.51779.477-2.06132.328-.54353.743-.94861 1.246-1.21525.512-.26664 1.046-.39996 1.599-.39996v1.96902c-.471 0-.917.0564-1.338.16921-.41.11281-.743.2974-1 .55379-.256.25638-.384.58455-.384.98451zm-1.431 4.04571v-7.69147h2.031v7.69147zm9.444.1846c-.78 0-1.477-.1692-2.092-.5076-.605-.3487-1.082-.8256-1.431-1.4307-.338-.605-.508-1.3024-.508-2.092 0-.78969.17-1.48705.508-2.09212.338-.60506.81-1.0768 1.415-1.41523.605-.34868 1.298-.52302 2.077-.52302.79 0 1.487.17434 2.092.52302.605.33843 1.077.81017 1.415 1.41523.339.60507.508 1.30243.508 2.09212 0 .7896-.169 1.487-.508 2.092-.338.6051-.81 1.082-1.415 1.4307-.595.3384-1.282.5076-2.061.5076zm0-1.8767c.379 0 .712-.0923 1-.2769.287-.1846.507-.4359.661-.7538.164-.3282.246-.7025.246-1.1229 0-.4205-.082-.78969-.246-1.10761-.164-.32817-.395-.58455-.692-.76915-.287-.18459-.621-.27689-1-.27689-.369 0-.703.0923-1 .27689-.287.1846-.513.44098-.677.76915-.164.31792-.246.68711-.246 1.10761 0 .4204.082.7947.246 1.1229.164.3179.395.5692.692.7538.298.1846.636.2769 1.016.2769zm6.754-2.35361c0-.83068.159-1.51779.477-2.06132.328-.54353.743-.94861 1.246-1.21525.512-.26664 1.046-.39996 1.599-.39996v1.96902c-.471 0-.917.0564-1.338.16921-.41.11281-.743.2974-1 .55379-.256.25638-.384.58455-.384.98451zm-1.431 4.04571v-7.69147h2.031v7.69147z"/><path d="m10.1585 67.7239.0132-8.6365.0923-.5933h1.0021l-.0264 9.2298zm-2.05694-6.8564v-1.0153c.1846.0088.40435-.0528.65927-.1846.25492-.1319.51863-.3033.79112-.5142.2725-.211.50985-.4308.71205-.6593l.6856.7516c-.2901.3076-.5933.5845-.9098.8306-.31644.2462-.63728.4439-.96252.5934-.32524.1406-.65048.2066-.97572.1978zm8.87494 7.0146c-.7033 0-1.3274-.2022-1.8724-.6065-.545-.4132-.9713-.9758-1.2789-1.6878-.3077-.7208-.4615-1.5471-.4615-2.4788 0-.9318.1538-1.7537.4615-2.4657.3076-.7208.7295-1.2834 1.2657-1.6877.545-.4132 1.1735-.6197 1.8856-.6197.712 0 1.3361.2065 1.8723.6197.545.4043.9713.9669 1.279 1.6877.3164.712.4746 1.5339.4746 2.4657 0 .9317-.1538 1.758-.4615 2.4788-.3076.712-.7339 1.2746-1.2789 1.6878-.545.4043-1.1735.6065-1.8855.6065zm0-1.0021c.4922 0 .9273-.1626 1.3053-.4879.3868-.3252.6857-.7691.8966-1.3317.2198-.5626.3297-1.213.3297-1.9514s-.1099-1.3889-.3297-1.9515c-.2109-.5713-.5098-1.0152-.8966-1.3317-.378-.3252-.8131-.4878-1.3053-.4878-.4923 0-.9274.1626-1.3054.4878-.378.3165-.6768.7604-.8966 1.3317-.211.5626-.3165 1.2131-.3165 1.9515s.1055 1.3888.3165 1.9514c.2198.5626.5186 1.0065.8966 1.3317.3868.3253.8219.4879 1.3054.4879zm8.4468 1.0021c-.7032 0-1.3273-.2022-1.8723-.6065-.545-.4132-.9713-.9758-1.279-1.6878-.3076-.7208-.4615-1.5471-.4615-2.4788 0-.9318.1539-1.7537.4615-2.4657.3077-.7208.7296-1.2834 1.2658-1.6877.545-.4132 1.1735-.6197 1.8855-.6197.7121 0 1.3362.2065 1.8724.6197.545.4043.9713.9669 1.2789 1.6877.3165.712.4747 1.5339.4747 2.4657 0 .9317-.1538 1.758-.4615 2.4788-.3076.712-.734 1.2746-1.2789 1.6878-.545.4043-1.1735.6065-1.8856.6065zm0-1.0021c.4923 0 .9274-.1626 1.3054-.4879.3868-.3252.6856-.7691.8966-1.3317.2198-.5626.3296-1.213.3296-1.9514s-.1098-1.3889-.3296-1.9515c-.211-.5713-.5098-1.0152-.8966-1.3317-.378-.3252-.8131-.4878-1.3054-.4878-.4922 0-.9273.1626-1.3053.4878-.378.3165-.6769.7604-.8966 1.3317-.211.5626-.3165 1.2131-.3165 1.9515s.1055 1.3888.3165 1.9514c.2197.5626.5186 1.0065.8966 1.3317.3868.3253.8219.4879 1.3053.4879zm5.5066.8439 6.5531-9.2298h1.2263l-6.5927 9.2298zm6.3949.2109c-.3956 0-.7516-.0923-1.068-.2769-.3077-.1934-.5494-.4527-.7252-.7779-.167-.334-.2505-.712-.2505-1.1339 0-.4308.0835-.8087.2505-1.134.1758-.3252.4175-.5801.7252-.7647.3164-.1934.6724-.2901 1.068-.2901.4043 0 .7604.0967 1.068.2901.3077.1846.5494.4395.7252.7647.1758.3253.2637.7032.2637 1.134 0 .4219-.0879.7999-.2637 1.1339-.1758.3252-.4175.5845-.7252.7779-.3076.1846-.6637.2769-1.068.2769zm0-.8438c.3428 0 .6197-.1275.8307-.3824.2109-.2549.3164-.5758.3164-.9625 0-.3868-.1055-.7077-.3164-.9626-.211-.2549-.4879-.3824-.8307-.3824-.3252 0-.5977.1275-.8175.3824-.211.2549-.3164.5758-.3164.9626 0 .3867.1054.7076.3164.9625.2198.2549.4923.3824.8175.3824zm-4.9973-4.4303c-.4043 0-.7603-.0923-1.068-.2769-.3076-.1934-.5494-.4527-.7252-.778-.1758-.334-.2637-.712-.2637-1.1339 0-.4307.0879-.8087.2637-1.1339.1758-.3253.4176-.5802.7252-.7648.3077-.1934.6637-.2901 1.068-.2901.4044 0 .7604.0967 1.0681.2901.3076.1846.5493.4395.7251.7648.1759.3252.2638.7032.2638 1.1339 0 .4219-.0879.7999-.2638 1.1339-.1758.3253-.4175.5846-.7251.778-.3077.1846-.6637.2769-1.0681.2769zm0-.8439c.3341 0 .6066-.1274.8175-.3824.211-.2549.3165-.5757.3165-.9625s-.1055-.7076-.3165-.9625c-.2109-.2549-.4834-.3824-.8175-.3824-.3252 0-.5977.1275-.8175.3824-.2109.2549-.3164.5757-.3164.9625s.1055.7076.3164.9625c.2198.255.4923.3824.8175.3824z"/><path d="m148.157 31.4999v-1.0285h2.109c.334 0 .633-.0747.897-.2241.264-.1583.475-.3692.633-.6329.167-.2725.25-.5802.25-.923 0-.5274-.184-.9538-.553-1.279-.361-.334-.831-.501-1.411-.501h-1.925v-1.0153l1.951-.0132c.598-.0088 1.125.1099 1.582.356.466.2373.827.5714 1.082 1.0021.263.4219.395.9054.395 1.4504s-.141 1.0284-.422 1.4504c-.281.4219-.664.7559-1.147 1.0021-.483.2373-1.028.356-1.635.356zm-1.055 3.626v-9.2298h1.121v9.2298zm5.208 0-2.215-3.7842.883-.5802 2.558 4.3644zm5.656.1582c-.641 0-1.213-.1451-1.714-.4351-.492-.2989-.879-.7077-1.16-1.2263s-.422-1.1163-.422-1.7932c0-.6768.136-1.2746.409-1.7932.281-.5186.668-.923 1.16-1.2131.501-.2988 1.068-.4483 1.701-.4483.65 0 1.222.1495 1.714.4483.501.2901.888.6945 1.16 1.2131.282.5186.422 1.1164.422 1.7932 0 .6769-.14 1.2746-.422 1.7932-.272.5186-.655.9274-1.147 1.2263-.492.29-1.059.4351-1.701.4351zm0-.9757c.44 0 .822-.1055 1.147-.3165.326-.211.581-.501.765-.8702.194-.3692.29-.7999.29-1.2922 0-.4922-.096-.923-.29-1.2922-.184-.3691-.444-.6592-.778-.8702s-.721-.3164-1.16-.3164c-.431 0-.813.1054-1.147.3164-.325.211-.585.5011-.778.8702-.185.3692-.277.8-.277 1.2922 0 .4835.092.9142.277 1.2922.193.3692.457.6592.791.8702.343.211.73.3165 1.16.3165zm7.649.9757c-.642 0-1.213-.1451-1.714-.4351-.493-.2989-.879-.7077-1.161-1.2263-.281-.5186-.422-1.1163-.422-1.7932 0-.6768.137-1.2746.409-1.7932.282-.5186.668-.923 1.161-1.2131.501-.2988 1.068-.4483 1.7-.4483.651 0 1.222.1495 1.715.4483.501.2901.887.6945 1.16 1.2131.281.5186.422 1.1164.422 1.7932 0 .6769-.141 1.2746-.422 1.7932-.273.5186-.655.9274-1.147 1.2263-.493.29-1.059.4351-1.701.4351zm0-.9757c.439 0 .822-.1055 1.147-.3165s.58-.501.765-.8702c.193-.3692.29-.7999.29-1.2922 0-.4922-.097-.923-.29-1.2922-.185-.3691-.444-.6592-.778-.8702s-.721-.3164-1.161-.3164c-.43 0-.813.1054-1.147.3164-.325.211-.584.5011-.778.8702-.184.3692-.277.8-.277 1.2922 0 .4835.093.9142.277 1.2922.194.3692.457.6592.792.8702.342.211.729.3165 1.16.3165zm7.213.9757c-.641 0-1.138-.167-1.49-.5011-.351-.334-.527-.8043-.527-1.4108v-6.896h1.055v6.7905c0 .334.088.5934.263.778.185.1758.44.2637.765.2637.106 0 .207-.0132.303-.0396.106-.0352.242-.1143.409-.2373l.409.857c-.229.1495-.435.2505-.62.3033-.184.0615-.373.0923-.567.0923zm-3.164-5.8148v-.9361h4.18v.9361zm13.581 3.0327-4.167-6.1576.448-.2373.528-.211 3.731 5.5247zm-4.351 2.6239v-9.2298h1.12v9.2298zm4.351-2.6239-.541-1.0812 3.732-5.5247.527.211.435.2241zm3.23 2.6239v-9.2298h1.108v9.2298zm6.154.1582c-.642 0-1.209-.1451-1.701-.4351-.492-.2989-.879-.7077-1.16-1.2263-.273-.5186-.409-1.1163-.409-1.7932 0-.6768.136-1.2746.409-1.7932.281-.5186.663-.923 1.147-1.2131.492-.2988 1.055-.4483 1.687-.4483.607 0 1.134.1539 1.583.4615.457.2989.808.7208 1.054 1.2658.247.545.37 1.1867.37 1.9251h-1.055c0-.5626-.075-1.0417-.224-1.4372-.15-.4044-.374-.7164-.673-.9362-.29-.2197-.646-.3296-1.068-.3296-.431 0-.813.1055-1.147.3164-.325.2022-.576.4923-.751.8703-.176.378-.264.8219-.264 1.3317 0 .501.097.9362.29 1.3053.193.3604.461.6461.804.8571.343.2022.73.3033 1.161.3033.457 0 .843-.1099 1.16-.3297.316-.2197.567-.5054.751-.857l.923.4615c-.167.3428-.391.6417-.672.8966-.273.2549-.598.4527-.976.5933-.369.1407-.782.211-1.239.211zm-2.571-3.2568.013-.9098h4.892v.9098zm10.942 3.0986-.066-1.0812v-2.3998c0-.5186-.061-.9449-.184-1.279-.115-.3428-.295-.5977-.541-.7647-.237-.1758-.554-.2637-.949-.2637-.378 0-.708.0747-.989.2241-.273.1495-.497.3824-.673.6988l-.949-.3823c.176-.3077.387-.5758.633-.8043.246-.2286.532-.4.857-.5143.334-.123.712-.1846 1.134-.1846.606 0 1.112.1187 1.516.356.405.2374.708.5934.91 1.0681.202.4658.299 1.0504.29 1.7536l-.013 3.5733zm-1.978.1582c-.773 0-1.38-.1758-1.819-.5274-.431-.3604-.646-.8571-.646-1.49 0-.668.219-1.1779.659-1.5295.448-.3604 1.072-.5406 1.872-.5406h1.886v.8834h-1.648c-.616 0-1.055.1011-1.319.3033-.255.2022-.382.4922-.382.8702 0 .3429.127.6153.382.8175.255.1934.611.2901 1.068.2901.378 0 .708-.0879.989-.2637s.497-.4131.646-.712c.15-.3077.224-.6549.224-1.0417h.646c0 .8966-.219 1.6131-.659 2.1493-.439.5274-1.072.7911-1.899.7911zm4.639-.1582v-6.5927h.988l.066 1.213v5.3797zm4.628 0v-3.3755l1.054-.3956v3.7711zm0-3.3755c0-.6505-.075-1.1471-.225-1.49-.149-.3428-.356-.5757-.619-.6988-.264-.1318-.563-.1978-.897-.1978-.58 0-1.033.2066-1.358.6198-.316.4043-.475.9801-.475 1.7272h-.514c0-.6944.101-1.2921.303-1.7932.203-.501.493-.8834.871-1.1471.386-.2637.852-.3956 1.397-.3956.8 0 1.429.2462 1.886.7384.466.4923.694 1.2394.685 2.2415zm9.238 3.5337c-.509 0-.962-.0528-1.358-.1582-.395-.1143-.738-.2681-1.028-.4615-.29-.2022-.528-.422-.712-.6593-.185-.2461-.321-.5054-.409-.7779l1.068-.3692c.132.3867.396.7252.791 1.0152.405.2813.897.422 1.477.422.712 0 1.27-.1407 1.675-.422.404-.2812.606-.6548.606-1.1207 0-.4307-.18-.778-.541-1.0417-.36-.2725-.835-.4834-1.424-.6329l-1.015-.2637c-.413-.1054-.795-.2593-1.147-.4615-.343-.2109-.62-.4746-.831-.7911-.202-.3252-.303-.712-.303-1.1603 0-.8351.268-1.4855.804-1.9514.545-.4747 1.328-.712 2.347-.712.607 0 1.13.1011 1.569.3032.44.1934.796.4439 1.068.7516.282.2989.48.6241.594.9757l-1.055.3692c-.167-.4395-.448-.7823-.844-1.0285-.395-.2549-.874-.3823-1.437-.3823-.589 0-1.059.145-1.411.4351-.343.2813-.514.668-.514 1.1603 0 .4219.136.7472.409.9757.272.2198.628.3824 1.068.4879l1.015.2505c.897.211 1.582.5626 2.057 1.0548.483.4835.725 1.0065.725 1.5691 0 .4835-.123.9274-.369 1.3317-.246.3956-.611.712-1.095.9494-.474.2285-1.068.3428-1.78.3428zm9.669 2.4788v-8.0035l.052-1.2262h1.003v9.2297zm-2.229-2.4788c-.589 0-1.107-.1451-1.556-.4351-.448-.2901-.799-.6945-1.054-1.2131-.246-.5274-.37-1.1295-.37-1.8064 0-.6856.124-1.2878.37-1.8064.255-.5186.606-.923 1.054-1.213.449-.2901.967-.4352 1.556-.4352.554 0 1.038.1451 1.451.4352.422.29.747.6944.975 1.213.229.5186.343 1.1208.343 1.8064 0 .6769-.114 1.279-.343 1.8064-.228.5186-.553.923-.975 1.2131-.413.29-.897.4351-1.451.4351zm.238-.9626c.386 0 .729-.1054 1.028-.3164s.532-.5054.699-.8834c.176-.378.264-.8087.264-1.2922s-.088-.9142-.264-1.2922c-.167-.3779-.4-.6724-.699-.8834-.299-.2109-.646-.3164-1.041-.3164-.414 0-.783.1055-1.108.3164-.317.211-.567.5055-.752.8834-.184.378-.277.8087-.277 1.2922s.093.9142.277 1.2922c.185.378.44.6724.765.8834s.695.3164 1.108.3164zm9.31.8044-.066-1.2131v-5.3796h1.055v6.5927zm-4.694-2.8217v-3.771h1.055v3.3754zm1.055-.3956c0 .6505.075 1.1471.224 1.49.15.3428.356.5801.62.712.272.123.576.1846.91.1846.571 0 1.015-.2066 1.331-.6197.326-.4132.488-.9889.488-1.7273h.515c0 .6944-.102 1.2921-.304 1.7932-.202.501-.496.8834-.883 1.1471-.378.2637-.84.3956-1.385.3956-.8 0-1.432-.2461-1.898-.7384-.457-.4923-.682-1.2394-.673-2.2415zm10.53 3.2173-.066-1.0812v-2.3998c0-.5186-.061-.9449-.184-1.279-.115-.3428-.295-.5977-.541-.7647-.237-.1758-.554-.2637-.949-.2637-.378 0-.708.0747-.989.2241-.273.1495-.497.3824-.673.6988l-.949-.3823c.176-.3077.387-.5758.633-.8043.246-.2286.532-.4.857-.5143.334-.123.712-.1846 1.134-.1846.606 0 1.112.1187 1.516.356.405.2374.708.5934.91 1.0681.202.4658.299 1.0504.29 1.7536l-.013 3.5733zm-1.978.1582c-.773 0-1.38-.1758-1.819-.5274-.431-.3604-.646-.8571-.646-1.49 0-.668.219-1.1779.659-1.5295.448-.3604 1.072-.5406 1.872-.5406h1.886v.8834h-1.648c-.616 0-1.055.1011-1.319.3033-.255.2022-.382.4922-.382.8702 0 .3429.127.6153.382.8175.255.1934.611.2901 1.068.2901.378 0 .708-.0879.989-.2637s.497-.4131.646-.712c.149-.3077.224-.6549.224-1.0417h.646c0 .8966-.219 1.6131-.659 2.1493-.439.5274-1.072.7911-1.899.7911zm5.219-3.7315c0-.712.136-1.2878.408-1.7273.273-.4483.62-.7779 1.042-.9889.431-.2197.883-.3296 1.358-.3296v.9889c-.387 0-.76.0659-1.121.1978-.351.123-.641.3296-.87.6197-.228.2901-.343.6856-.343 1.1867zm-.581 3.5733v-6.5927h1.055v6.5927zm7.343.1582c-.641 0-1.208-.1451-1.701-.4351-.492-.2989-.879-.7077-1.16-1.2263-.272-.5186-.409-1.1163-.409-1.7932 0-.6768.137-1.2746.409-1.7932.281-.5186.664-.923 1.147-1.2131.492-.2988 1.055-.4483 1.688-.4483.606 0 1.134.1539 1.582.4615.457.2989.809.7208 1.055 1.2658s.369 1.1867.369 1.9251h-1.055c0-.5626-.074-1.0417-.224-1.4372-.149-.4044-.373-.7164-.672-.9362-.29-.2197-.646-.3296-1.068-.3296-.431 0-.813.1055-1.147.3164-.326.2022-.576.4923-.752.8703s-.264.8219-.264 1.3317c0 .501.097.9362.29 1.3053.194.3604.462.6461.805.8571.343.2022.729.3033 1.16.3033.457 0 .844-.1099 1.16-.3297.317-.2197.567-.5054.752-.857l.923.4615c-.167.3428-.391.6417-.673.8966-.272.2549-.597.4527-.975.5933-.369.1407-.783.211-1.24.211zm-2.571-3.2568.013-.9098h4.892v.9098zm13.251 3.0986v-1.0285c.466 0 .897-.0879 1.292-.2637.396-.1846.743-.4439 1.042-.778.308-.334.545-.7164.712-1.1471.176-.4395.264-.9054.264-1.3976 0-.4923-.088-.9538-.264-1.3845-.167-.4395-.404-.8263-.712-1.1603-.299-.334-.646-.589-1.042-.7648-.395-.1846-.826-.2769-1.292-.2769v-1.0284c.87 0 1.635.1978 2.294.5933.668.3868 1.191.9274 1.569 1.6218.378.6945.567 1.4944.567 2.3998 0 .8966-.189 1.6921-.567 2.3865-.378.6945-.901 1.2395-1.569 1.635-.659.3956-1.424.5934-2.294.5934zm-1.912 0v-1.0285h1.912v1.0285zm-.896 0v-9.2298h1.12v9.2298zm.896-8.2014v-1.0284h1.912v1.0284zm10.766 8.3596c-.642 0-1.209-.1451-1.701-.4351-.492-.2989-.879-.7077-1.16-1.2263-.273-.5186-.409-1.1163-.409-1.7932 0-.6768.136-1.2746.409-1.7932.281-.5186.663-.923 1.147-1.2131.492-.2988 1.054-.4483 1.687-.4483.607 0 1.134.1539 1.583.4615.457.2989.808.7208 1.054 1.2658.247.545.37 1.1867.37 1.9251h-1.055c0-.5626-.075-1.0417-.224-1.4372-.15-.4044-.374-.7164-.673-.9362-.29-.2197-.646-.3296-1.068-.3296-.431 0-.813.1055-1.147.3164-.325.2022-.576.4923-.752.8703-.175.378-.263.8219-.263 1.3317 0 .501.096.9362.29 1.3053.193.3604.461.6461.804.8571.343.2022.73.3033 1.16.3033.458 0 .844-.1099 1.161-.3297.316-.2197.567-.5054.751-.857l.923.4615c-.167.3428-.391.6417-.672.8966-.273.2549-.598.4527-.976.5933-.369.1407-.782.211-1.239.211zm-2.571-3.2568.013-.9098h4.892v.9098zm8.731 3.0986 2.69-6.5927h1.107l-2.755 6.5927zm-.066 0-2.756-6.5927h1.095l2.69 6.5927zm4.965 0 .026-6.5927h1.055l-.026 6.5927zm.54-8.1222c-.175 0-.329-.066-.461-.1978-.132-.1319-.198-.2857-.198-.4615 0-.1846.066-.3384.198-.4615.132-.1319.286-.1978.461-.1978.185 0 .339.0659.462.1978.132.1231.198.2769.198.4615 0 .1758-.066.3296-.198.4615-.123.1318-.277.1978-.462.1978zm6.519 8.1222-.065-1.0812v-2.3998c0-.5186-.062-.9449-.185-1.279-.114-.3428-.294-.5977-.541-.7647-.237-.1758-.553-.2637-.949-.2637-.378 0-.708.0747-.989.2241-.272.1495-.497.3824-.672.6988l-.95-.3823c.176-.3077.387-.5758.633-.8043.246-.2286.532-.4.857-.5143.334-.123.712-.1846 1.134-.1846.607 0 1.112.1187 1.517.356.404.2374.707.5934.909 1.0681.202.4658.299 1.0504.29 1.7536l-.013 3.5733zm-1.977.1582c-.774 0-1.38-.1758-1.82-.5274-.431-.3604-.646-.8571-.646-1.49 0-.668.22-1.1779.659-1.5295.449-.3604 1.073-.5406 1.873-.5406h1.885v.8834h-1.648c-.615 0-1.055.1011-1.319.3033-.255.2022-.382.4922-.382.8702 0 .3429.127.6153.382.8175.255.1934.611.2901 1.068.2901.378 0 .708-.0879.989-.2637.282-.1758.497-.4131.646-.712.15-.3077.225-.6549.225-1.0417h.646c0 .8966-.22 1.6131-.66 2.1493-.439.5274-1.072.7911-1.898.7911zm7.117 0c-.642 0-1.139-.167-1.49-.5011-.352-.334-.528-.8043-.528-1.4108v-6.896h1.055v6.7905c0 .334.088.5934.264.778.184.1758.439.2637.765.2637.105 0 .206-.0132.303-.0396.105-.0352.242-.1143.409-.2373l.408.857c-.228.1495-.435.2505-.619.3033-.185.0615-.374.0923-.567.0923zm-3.165-5.8148v-.9361h4.18v.9361zm5.735 5.6566.026-6.5927h1.055l-.026 6.5927zm.541-8.1222c-.176 0-.33-.066-.462-.1978-.132-.1319-.198-.2857-.198-.4615 0-.1846.066-.3384.198-.4615.132-.1319.286-.1978.462-.1978.184 0 .338.0659.461.1978.132.1231.198.2769.198.4615 0 .1758-.066.3296-.198.4615-.123.1318-.277.1978-.461.1978zm5.372 8.2804c-.642 0-1.214-.1451-1.715-.4351-.492-.2989-.879-.7077-1.16-1.2263s-.422-1.1163-.422-1.7932c0-.6768.136-1.2746.409-1.7932.281-.5186.668-.923 1.16-1.2131.501-.2988 1.068-.4483 1.701-.4483.651 0 1.222.1495 1.714.4483.501.2901.888.6945 1.161 1.2131.281.5186.422 1.1164.422 1.7932 0 .6769-.141 1.2746-.422 1.7932-.273.5186-.655.9274-1.148 1.2263-.492.29-1.059.4351-1.7.4351zm0-.9757c.439 0 .821-.1055 1.147-.3165.325-.211.58-.501.764-.8702.194-.3692.291-.7999.291-1.2922 0-.4922-.097-.923-.291-1.2922-.184-.3691-.443-.6592-.778-.8702-.334-.211-.72-.3164-1.16-.3164-.431 0-.813.1054-1.147.3164-.325.211-.585.5011-.778.8702-.184.3692-.277.8-.277 1.2922 0 .4835.093.9142.277 1.2922.193.3692.457.6592.791.8702.343.211.73.3165 1.161.3165zm4.734.8175v-6.5927h.989l.066 1.213v5.3797zm4.628 0v-3.3755l1.055-.3956v3.7711zm0-3.3755c0-.6505-.075-1.1471-.224-1.49-.149-.3428-.356-.5757-.62-.6988-.263-.1318-.562-.1978-.896-.1978-.58 0-1.033.2066-1.358.6198-.317.4043-.475.9801-.475 1.7272h-.514c0-.6944.101-1.2921.303-1.7932.202-.501.492-.8834.87-1.1471.387-.2637.853-.3956 1.398-.3956.8 0 1.428.2462 1.885.7384.466.4923.695 1.2394.686 2.2415zm8 4.694c-.405-.5362-.774-1.1164-1.108-1.7405-.334-.6329-.598-1.3009-.791-2.0042-.193-.7032-.29-1.4328-.29-2.1887 0-.7648.097-1.4944.29-2.1888.193-.7032.457-1.3669.791-1.991.334-.6329.703-1.2174 1.108-1.7537h1.081c-.405.5626-.774 1.1648-1.108 1.8064-.334.6417-.598 1.3098-.791 2.0042-.193.6857-.29 1.3933-.29 2.1229 0 .7208.097 1.4284.29 2.1228s.457 1.3625.791 2.0042c.334.6329.703 1.235 1.108 1.8064zm3.976-4.9445v-1.0285h2.109c.335 0 .633-.0747.897-.2241.264-.1583.475-.3692.633-.6329.167-.2725.251-.5802.251-.923 0-.5274-.185-.9538-.554-1.279-.361-.334-.831-.501-1.411-.501h-1.925v-1.0153l1.951-.0132c.598-.0088 1.125.1099 1.583.356.465.2373.826.5714 1.081 1.0021.263.4219.395.9054.395 1.4504s-.14 1.0284-.422 1.4504c-.281.4219-.663.7559-1.147 1.0021-.483.2373-1.028.356-1.635.356zm-1.055 3.626v-9.2298h1.121v9.2298zm5.208 0-2.215-3.7842.883-.5802 2.558 4.3644zm7.397-2.6239-4.167-6.1576.449-.2373.527-.211 3.732 5.5247zm-4.351 2.6239v-9.2298h1.12v9.2298zm4.351-2.6239-.541-1.0812 3.732-5.5247.527.211.435.2241zm3.23 2.6239v-9.2298h1.108v9.2298zm6.523.1582c-.51 0-.962-.0528-1.358-.1582-.395-.1143-.738-.2681-1.028-.4615-.29-.2022-.528-.422-.712-.6593-.185-.2461-.321-.5054-.409-.7779l1.068-.3692c.132.3867.395.7252.791 1.0152.404.2813.897.422 1.477.422.712 0 1.27-.1407 1.674-.422.405-.2812.607-.6548.607-1.1207 0-.4307-.18-.778-.541-1.0417-.36-.2725-.835-.4834-1.424-.6329l-1.015-.2637c-.413-.1054-.796-.2593-1.147-.4615-.343-.2109-.62-.4746-.831-.7911-.202-.3252-.303-.712-.303-1.1603 0-.8351.268-1.4855.804-1.9514.545-.4747 1.327-.712 2.347-.712.607 0 1.13.1011 1.569.3032.44.1934.796.4439 1.068.7516.282.2989.479.6241.594.9757l-1.055.3692c-.167-.4395-.449-.7823-.844-1.0285-.396-.2549-.875-.3823-1.437-.3823-.589 0-1.06.145-1.411.4351-.343.2813-.514.668-.514 1.1603 0 .4219.136.7472.408.9757.273.2198.629.3824 1.068.4879l1.016.2505c.896.211 1.582.5626 2.057 1.0548.483.4835.725 1.0065.725 1.5691 0 .4835-.123.9274-.369 1.3317-.247.3956-.611.712-1.095.9494-.474.2285-1.068.3428-1.78.3428zm7.954-.1582v-1.0285c.466 0 .897-.0879 1.293-.2637.395-.1846.742-.4439 1.041-.778.308-.334.545-.7164.712-1.1471.176-.4395.264-.9054.264-1.3976 0-.4923-.088-.9538-.264-1.3845-.167-.4395-.404-.8263-.712-1.1603-.299-.334-.646-.589-1.041-.7648-.396-.1846-.827-.2769-1.293-.2769v-1.0284c.871 0 1.635.1978 2.295.5933.668.3868 1.191.9274 1.569 1.6218.378.6945.567 1.4944.567 2.3998 0 .8966-.189 1.6921-.567 2.3865-.378.6945-.901 1.2395-1.569 1.635-.66.3956-1.424.5934-2.295.5934zm-1.912 0v-1.0285h1.912v1.0285zm-.896 0v-9.2298h1.121v9.2298zm.896-8.2014v-1.0284h1.912v1.0284zm8.656 9.5199h-1.081c.413-.5714.782-1.1735 1.108-1.8064.334-.6417.597-1.3098.791-2.0042.193-.6944.29-1.402.29-2.1228 0-.7296-.097-1.4372-.29-2.1229-.194-.6944-.457-1.3625-.791-2.0042-.326-.6416-.695-1.2438-1.108-1.8064h1.081c.414.5363.783 1.1208 1.108 1.7537.334.6241.598 1.2878.791 1.991.193.6944.29 1.424.29 2.1888 0 .7559-.097 1.4855-.29 2.1887-.193.7033-.457 1.3713-.791 2.0042-.325.6241-.694 1.2043-1.108 1.7405z"/><path d="m16.0659 115.399 4.5622-8.544 1.0416.237-4.3775 8.307zm-.5274-8.215v-1.015h6.1312v.923l-.857.092zm10.352 8.373c-.3692 0-.7472-.053-1.1339-.158-.378-.115-.7384-.286-1.0812-.515-.3341-.228-.611-.523-.8307-.883l.8966-.514c.3076.387.6417.668 1.0021.844s.734.263 1.1207.263c.6066 0 1.0988-.184 1.4768-.553.3868-.378.5801-.871.5801-1.477 0-.598-.1846-1.086-.5537-1.464-.3692-.378-.8527-.567-1.4504-.567-.3253 0-.6461.075-.9626.224-.3164.141-.5625.317-.7383.528l-1.0021-.237.4483-4.879h4.9181v1.002h-4.8522l-.0659-.962h1.1075l-.5142 4.891-.857-.052c.123-.194.2769-.374.4614-.541.1846-.167.3956-.316.6329-.448.2462-.141.5055-.251.778-.33s.5494-.114.8307-.105c.5625 0 1.0636.123 1.5031.369s.7867.589 1.0416 1.028c.255.44.3824.945.3824 1.516 0 .598-.1362 1.126-.4087 1.583-.2637.448-.6329.8-1.1076 1.055-.4659.254-1.0065.382-1.6218.382zm5.0394-.158 6.5531-9.23h1.2263l-6.5927 9.23zm6.3949.211c-.3956 0-.7516-.093-1.068-.277-.3077-.194-.5494-.453-.7252-.778-.167-.334-.2505-.712-.2505-1.134 0-.431.0835-.809.2505-1.134.1758-.325.4175-.58.7252-.765.3164-.193.6724-.29 1.068-.29.4043 0 .7604.097 1.068.29.3077.185.5494.44.7252.765s.2637.703.2637 1.134c0 .422-.0879.8-.2637 1.134-.1758.325-.4175.584-.7252.778-.3076.184-.6637.277-1.068.277zm0-.844c.3428 0 .6197-.128.8307-.383.2109-.254.3164-.575.3164-.962s-.1055-.708-.3164-.963c-.211-.255-.4879-.382-.8307-.382-.3252 0-.5977.127-.8175.382-.211.255-.3164.576-.3164.963s.1054.708.3164.962c.2198.255.4923.383.8175.383zm-4.9973-4.43c-.4043 0-.7603-.093-1.068-.277-.3076-.194-.5494-.453-.7252-.778-.1758-.334-.2637-.712-.2637-1.134 0-.431.0879-.809.2637-1.134s.4176-.58.7252-.765c.3077-.193.6637-.29 1.068-.29.4044 0 .7604.097 1.0681.29.3076.185.5493.44.7251.765.1759.325.2638.703.2638 1.134 0 .422-.0879.8-.2638 1.134-.1758.325-.4175.584-.7251.778-.3077.184-.6637.277-1.0681.277zm0-.844c.3341 0 .6066-.128.8175-.383.211-.255.3165-.575.3165-.962s-.1055-.708-.3165-.963c-.2109-.255-.4834-.382-.8175-.382-.3252 0-.5977.127-.8175.382-.2109.255-.3164.576-.3164.963s.1055.707.3164.962c.2198.255.4923.383.8175.383z"/><path d="m17.4436 163.232c-.3692 0-.7472-.053-1.1339-.159-.378-.114-.7384-.285-1.0812-.514-.3341-.228-.611-.523-.8307-.883l.8966-.515c.3077.387.6417.669 1.0021.844.3604.176.734.264 1.1207.264.6066 0 1.0988-.185 1.4768-.554.3868-.378.5802-.87.5802-1.477 0-.597-.1846-1.085-.5538-1.463s-.8527-.567-1.4504-.567c-.3253 0-.6461.075-.9626.224-.3164.141-.5625.317-.7383.528l-1.0021-.238.4483-4.878h4.9181v1.002h-4.8522l-.0659-.963h1.1076l-.5143 4.892-.857-.053c.123-.193.2769-.373.4615-.54s.3955-.317.6329-.449c.2461-.14.5054-.25.7779-.329s.5494-.115.8307-.106c.5626 0 1.0636.123 1.5031.369s.7867.589 1.0417 1.029c.2549.439.3823.945.3823 1.516 0 .598-.1362 1.125-.4087 1.582-.2637.449-.6329.8-1.1076 1.055-.4659.255-1.0065.383-1.6218.383zm7.9797 0c-.7032 0-1.3273-.203-1.8723-.607-.545-.413-.9713-.976-1.279-1.688-.3076-.72-.4615-1.547-.4615-2.479 0-.931.1539-1.753.4615-2.465.3077-.721.7296-1.284 1.2658-1.688.545-.413 1.1735-.62 1.8855-.62.7121 0 1.3362.207 1.8724.62.545.404.9713.967 1.2789 1.688.3165.712.4747 1.534.4747 2.465 0 .932-.1538 1.759-.4615 2.479-.3076.712-.734 1.275-1.2789 1.688-.545.404-1.1735.607-1.8856.607zm0-1.003c.4923 0 .9274-.162 1.3054-.487.3868-.326.6856-.77.8966-1.332.2198-.563.3296-1.213.3296-1.952 0-.738-.1098-1.388-.3296-1.951-.211-.571-.5098-1.015-.8966-1.332-.378-.325-.8131-.488-1.3054-.488-.4922 0-.9273.163-1.3053.488-.378.317-.6769.761-.8966 1.332-.211.563-.3165 1.213-.3165 1.951 0 .739.1055 1.389.3165 1.952.2197.562.5186 1.006.8966 1.332.3868.325.8219.487 1.3053.487zm5.5066.844 6.5531-9.229h1.2263l-6.5927 9.229zm6.3949.211c-.3956 0-.7516-.092-1.068-.277-.3077-.193-.5494-.452-.7252-.778-.167-.334-.2505-.712-.2505-1.133 0-.431.0835-.809.2505-1.134.1758-.326.4175-.581.7252-.765.3164-.194.6724-.29 1.068-.29.4043 0 .7604.096 1.068.29.3077.184.5494.439.7252.765.1758.325.2637.703.2637 1.134 0 .421-.0879.799-.2637 1.133-.1758.326-.4175.585-.7252.778-.3076.185-.6637.277-1.068.277zm0-.844c.3428 0 .6197-.127.8307-.382.2109-.255.3164-.576.3164-.962 0-.387-.1055-.708-.3164-.963-.211-.255-.4879-.382-.8307-.382-.3252 0-.5977.127-.8175.382-.211.255-.3164.576-.3164.963 0 .386.1054.707.3164.962.2198.255.4923.382.8175.382zm-4.9973-4.43c-.4043 0-.7603-.092-1.068-.277-.3076-.193-.5494-.452-.7252-.778-.1758-.334-.2637-.712-.2637-1.134 0-.43.0879-.808.2637-1.134.1758-.325.4176-.58.7252-.764.3077-.194.6637-.29 1.068-.29.4044 0 .7604.096 1.0681.29.3076.184.5493.439.7251.764.1759.326.2638.704.2638 1.134 0 .422-.0879.8-.2638 1.134-.1758.326-.4175.585-.7251.778-.3077.185-.6637.277-1.0681.277zm0-.844c.3341 0 .6066-.127.8175-.382.211-.255.3165-.576.3165-.963 0-.386-.1055-.707-.3165-.962-.2109-.255-.4834-.383-.8175-.383-.3252 0-.5977.128-.8175.383-.2109.255-.3164.576-.3164.962 0 .387.1055.708.3164.963.2198.255.4923.382.8175.382z"/><path d="m16.5606 209.838-1.1076-.277c0-.29.0572-.576.1714-.857.1231-.29.2945-.576.5143-.857.2285-.282.5054-.545.8306-.792l1.9119-1.437c.2286-.158.4264-.338.5934-.54.1758-.211.312-.427.4087-.646.0967-.229.1451-.449.1451-.66 0-.307-.0748-.584-.2242-.83-.1494-.255-.3604-.458-.6329-.607s-.5933-.224-.9625-.224c-.3604 0-.6769.07-.9494.211-.2725.132-.4966.312-.6724.54-.1758.22-.3033.458-.3824.712l-1.1339-.224c.1054-.395.2944-.764.5669-1.107.2813-.343.6373-.62 1.068-.831.4308-.211.9098-.316 1.4372-.316.6154 0 1.1472.118 1.5955.356.4483.228.7955.545 1.0416.949.2549.396.3824.848.3824 1.358 0 .484-.1319.941-.3956 1.371-.2637.431-.646.849-1.1471 1.253l-1.8064 1.371c-.2549.185-.4791.387-.6724.607-.1846.22-.3297.452-.4352.699-.0967.237-.145.496-.145.778zm-1.1076.646v-.923l.8439-.066h4.9973v.989zm10.4375.158c-.3692 0-.7472-.053-1.1339-.158-.378-.115-.7384-.286-1.0812-.515-.3341-.228-.611-.523-.8307-.883l.8966-.514c.3076.387.6417.668 1.0021.844.3604.175.734.263 1.1207.263.6066 0 1.0988-.184 1.4768-.553.3868-.378.5801-.871.5801-1.477 0-.598-.1846-1.086-.5537-1.464-.3692-.378-.8527-.567-1.4504-.567-.3253 0-.6461.075-.9626.224-.3164.141-.5625.317-.7383.528l-1.0021-.238.4483-4.878h4.9181v1.002h-4.8522l-.0659-.963h1.1075l-.5142 4.892-.857-.053c.123-.193.2769-.373.4614-.54.1846-.167.3956-.317.6329-.448.2462-.141.5055-.251.778-.33s.5494-.114.8307-.106c.5625 0 1.0636.123 1.5031.37.4395.246.7867.589 1.0416 1.028.255.44.3824.945.3824 1.516 0 .598-.1362 1.126-.4087 1.583-.2637.448-.6329.8-1.1076 1.054-.4659.255-1.0065.383-1.6218.383zm5.0394-.158 6.5531-9.23h1.2263l-6.5927 9.23zm6.3949.211c-.3956 0-.7516-.093-1.068-.277-.3077-.194-.5494-.453-.7252-.778-.167-.334-.2505-.712-.2505-1.134 0-.431.0835-.809.2505-1.134.1758-.325.4175-.58.7252-.765.3164-.193.6724-.29 1.068-.29.4043 0 .7604.097 1.068.29.3077.185.5494.44.7252.765s.2637.703.2637 1.134c0 .422-.0879.8-.2637 1.134-.1758.325-.4175.584-.7252.778-.3076.184-.6637.277-1.068.277zm0-.844c.3428 0 .6197-.128.8307-.383.2109-.255.3164-.575.3164-.962s-.1055-.708-.3164-.963c-.211-.255-.4879-.382-.8307-.382-.3252 0-.5977.127-.8175.382-.211.255-.3164.576-.3164.963s.1054.707.3164.962c.2198.255.4923.383.8175.383zm-4.9973-4.431c-.4043 0-.7603-.092-1.068-.276-.3076-.194-.5494-.453-.7252-.778-.1758-.334-.2637-.712-.2637-1.134 0-.431.0879-.809.2637-1.134.1758-.326.4176-.58.7252-.765.3077-.193.6637-.29 1.068-.29.4044 0 .7604.097 1.0681.29.3076.185.5493.439.7251.765.1759.325.2638.703.2638 1.134 0 .422-.0879.8-.2638 1.134-.1758.325-.4175.584-.7251.778-.3077.184-.6637.276-1.0681.276zm0-.843c.3341 0 .6066-.128.8175-.383.211-.255.3165-.576.3165-.962 0-.387-.1055-.708-.3165-.963-.2109-.255-.4834-.382-.8175-.382-.3252 0-.5977.127-.8175.382-.2109.255-.3164.576-.3164.963 0 .386.1055.707.3164.962.2198.255.4923.383.8175.383z"/><path d="m25.4233 258.581c-.7032 0-1.3273-.202-1.8723-.607-.545-.413-.9713-.975-1.279-1.687-.3076-.721-.4615-1.548-.4615-2.479 0-.932.1539-1.754.4615-2.466.3077-.721.7296-1.283 1.2658-1.688.545-.413 1.1735-.619 1.8855-.619.7121 0 1.3362.206 1.8724.619.545.405.9713.967 1.2789 1.688.3165.712.4747 1.534.4747 2.466 0 .931-.1538 1.758-.4615 2.479-.3076.712-.734 1.274-1.2789 1.687-.545.405-1.1735.607-1.8856.607zm0-1.002c.4923 0 .9274-.163 1.3054-.488.3868-.325.6856-.769.8966-1.332.2198-.562.3296-1.213.3296-1.951 0-.739-.1098-1.389-.3296-1.952-.211-.571-.5098-1.015-.8966-1.331-.378-.326-.8131-.488-1.3054-.488-.4922 0-.9273.162-1.3053.488-.378.316-.6769.76-.8966 1.331-.211.563-.3165 1.213-.3165 1.952 0 .738.1055 1.389.3165 1.951.2197.563.5186 1.007.8966 1.332.3868.325.8219.488 1.3053.488zm5.5066.844 6.5531-9.23h1.2263l-6.5927 9.23zm6.3949.211c-.3956 0-.7516-.093-1.068-.277-.3077-.194-.5494-.453-.7252-.778-.167-.334-.2505-.712-.2505-1.134 0-.431.0835-.809.2505-1.134.1758-.325.4175-.58.7252-.765.3164-.193.6724-.29 1.068-.29.4043 0 .7604.097 1.068.29.3077.185.5494.44.7252.765s.2637.703.2637 1.134c0 .422-.0879.8-.2637 1.134-.1758.325-.4175.584-.7252.778-.3076.184-.6637.277-1.068.277zm0-.844c.3428 0 .6197-.128.8307-.383.2109-.255.3164-.575.3164-.962s-.1055-.708-.3164-.963c-.211-.255-.4879-.382-.8307-.382-.3252 0-.5977.127-.8175.382-.211.255-.3164.576-.3164.963s.1054.707.3164.962c.2198.255.4923.383.8175.383zm-4.9973-4.431c-.4043 0-.7603-.092-1.068-.276-.3076-.194-.5494-.453-.7252-.778-.1758-.334-.2637-.712-.2637-1.134 0-.431.0879-.809.2637-1.134.1758-.326.4176-.58.7252-.765.3077-.193.6637-.29 1.068-.29.4044 0 .7604.097 1.0681.29.3076.185.5493.439.7251.765.1759.325.2638.703.2638 1.134 0 .422-.0879.8-.2638 1.134-.1758.325-.4175.584-.7251.778-.3077.184-.6637.276-1.0681.276zm0-.843c.3341 0 .6066-.128.8175-.383.211-.255.3165-.576.3165-.962 0-.387-.1055-.708-.3165-.963-.2109-.255-.4834-.382-.8175-.382-.3252 0-.5977.127-.8175.382-.2109.255-.3164.576-.3164.963 0 .386.1055.707.3164.962.2198.255.4923.383.8175.383z"/></g><g opacity=".5" stroke="#949bcd" stroke-width=".549391"><path d="m49.5332 253.447h435.6538"/><path d="m49.5332 205.772h435.6538"/><path d="m49.5332 158.098h435.6538"/><path d="m49.5332 110.423h435.6538"/><path d="m49.5332 62.7482h435.6538"/></g><path d="m95.2237 276.506v-1.016h2.2415c.4835 0 .8791-.175 1.1867-.527.3165-.36.4747-.818.4747-1.371 0-.378-.0835-.712-.2505-1.002-.1671-.291-.4-.515-.6989-.673-.29-.167-.6285-.246-1.0152-.237h-1.9383v-1.016l1.9514-.013c.5978 0 1.1252.128 1.5823.383.4659.246.8263.589 1.0812 1.028.2634.44.3954.949.3954 1.53 0 .562-.119 1.063-.3558 1.503-.2374.439-.5626.787-.9758 1.041-.4131.247-.8922.37-1.4372.37zm-1.0548 3.388v-9.23h1.1207v9.23zm10.1171.158c-.641 0-1.213-.145-1.714-.435-.492-.299-.879-.707-1.16-1.226s-.422-1.116-.422-1.793.136-1.275.409-1.793c.281-.519.668-.923 1.16-1.213.501-.299 1.068-.449 1.701-.449.651 0 1.222.15 1.714.449.501.29.888.694 1.161 1.213.281.518.421 1.116.421 1.793s-.14 1.274-.421 1.793c-.273.519-.655.927-1.148 1.226-.492.29-1.059.435-1.701.435zm0-.975c.44 0 .822-.106 1.148-.317.325-.211.58-.501.764-.87.194-.369.29-.8.29-1.292s-.096-.923-.29-1.292c-.184-.369-.444-.66-.778-.87-.334-.211-.72-.317-1.16-.317-.431 0-.813.106-1.147.317-.325.21-.585.501-.778.87-.185.369-.277.8-.277 1.292 0 .483.092.914.277 1.292.193.369.457.659.791.87.343.211.73.317 1.16.317zm7.043.975c-.484 0-.906-.07-1.266-.21-.361-.15-.664-.343-.91-.581-.237-.237-.409-.496-.514-.778l.923-.382c.149.299.373.541.672.725.299.185.629.277.989.277.413 0 .76-.079 1.042-.237.281-.167.422-.4.422-.699 0-.273-.106-.492-.317-.659-.202-.167-.505-.304-.91-.409l-.633-.171c-.597-.159-1.063-.396-1.397-.712-.334-.326-.501-.69-.501-1.095 0-.624.202-1.107.606-1.45.413-.352 1.024-.528 1.833-.528.387 0 .738.057 1.055.172.316.114.589.277.817.488.229.202.396.444.501.725l-.923.409c-.114-.299-.303-.515-.567-.647-.263-.131-.584-.197-.962-.197-.404 0-.721.088-.949.263-.229.167-.343.405-.343.712 0 .176.092.343.277.501.193.15.474.273.844.37l.659.171c.431.106.791.264 1.081.475.29.202.51.435.659.699.15.263.224.545.224.843 0 .396-.105.739-.316 1.029s-.497.514-.857.672c-.36.15-.774.224-1.239.224zm3.9-.158.026-6.592h1.055l-.026 6.592zm.541-8.122c-.176 0-.33-.066-.462-.198s-.198-.285-.198-.461c0-.185.066-.339.198-.462.132-.132.286-.197.462-.197.184 0 .338.065.461.197.132.123.198.277.198.462 0 .176-.066.329-.198.461-.123.132-.277.198-.461.198zm4.937 8.28c-.642 0-1.139-.167-1.49-.501-.352-.334-.528-.804-.528-1.41v-6.896h1.055v6.79c0 .334.088.593.264.778.184.176.439.264.764.264.106 0 .207-.013.304-.04.105-.035.241-.114.408-.237l.409.857c-.228.149-.435.25-.62.303-.184.062-.373.092-.566.092zm-3.165-5.814v-.936h4.18v.936zm5.735 5.656.026-6.592h1.055l-.026 6.592zm.54-8.122c-.175 0-.329-.066-.461-.198s-.198-.285-.198-.461c0-.185.066-.339.198-.462.132-.132.286-.197.461-.197.185 0 .339.065.462.197.132.123.198.277.198.462 0 .176-.066.329-.198.461-.123.132-.277.198-.462.198zm5.372 8.28c-.641 0-1.213-.145-1.714-.435-.492-.299-.879-.707-1.16-1.226s-.422-1.116-.422-1.793.136-1.275.409-1.793c.281-.519.668-.923 1.16-1.213.501-.299 1.068-.449 1.701-.449.65 0 1.222.15 1.714.449.501.29.888.694 1.16 1.213.282.518.422 1.116.422 1.793s-.14 1.274-.422 1.793c-.272.519-.654.927-1.147 1.226-.492.29-1.059.435-1.701.435zm0-.975c.44 0 .822-.106 1.147-.317.326-.211.581-.501.765-.87.194-.369.29-.8.29-1.292s-.096-.923-.29-1.292c-.184-.369-.444-.66-.778-.87-.334-.211-.721-.317-1.16-.317-.431 0-.813.106-1.147.317-.325.21-.585.501-.778.87-.185.369-.277.8-.277 1.292 0 .483.092.914.277 1.292.193.369.457.659.791.87.343.211.73.317 1.16.317zm4.735.817v-6.592h.989l.066 1.213v5.379zm4.628 0v-3.375l1.055-.396v3.771zm0-3.375c0-.651-.075-1.147-.224-1.49-.15-.343-.356-.576-.62-.699-.264-.132-.562-.198-.896-.198-.581 0-1.033.207-1.359.62-.316.404-.474.98-.474 1.727h-.514c0-.694.101-1.292.303-1.793s.492-.883.87-1.147c.387-.264.853-.396 1.398-.396.8 0 1.428.246 1.885.739.466.492.695 1.239.686 2.241z" fill="#030d4f"/><path d="m122.556 194.502h32.0561v58.6765h-32.0561z" fill="#296cff"/><path d="m90.4998 63.0229h32.0561v190.155h-32.0561z" fill="#ff005c"/><path d="m207.453 279.894v-1.002h2.426c.581 0 1.033-.136 1.359-.409.334-.281.501-.663.501-1.147 0-.518-.189-.927-.567-1.226s-.906-.444-1.583-.435h-2.136v-.936h1.596c.791 0 1.468.101 2.03.303.572.202 1.011.501 1.319.897.308.386.461.865.461 1.437 0 .536-.118.993-.356 1.371-.237.369-.575.655-1.015.857-.431.194-.949.29-1.556.29zm-.817 0v-9.23h1.107v9.23zm.791-4.193v-.989h2.4c.51 0 .909-.136 1.2-.408.29-.273.435-.651.435-1.134 0-.501-.172-.888-.515-1.161-.334-.272-.808-.404-1.424-.395h-2.096v-.95l2.123-.013c.633 0 1.173.101 1.622.304.448.193.795.479 1.041.857.246.369.369.822.369 1.358 0 .51-.131.953-.395 1.331-.264.37-.637.655-1.121.857-.483.203-1.059.304-1.727.304zm9.88 4.351c-.642 0-1.213-.145-1.714-.435-.492-.299-.879-.707-1.16-1.226-.282-.519-.422-1.116-.422-1.793s.136-1.275.409-1.793c.281-.519.668-.923 1.16-1.213.501-.299 1.068-.449 1.701-.449.65 0 1.222.15 1.714.449.501.29.888.694 1.16 1.213.281.518.422 1.116.422 1.793s-.141 1.274-.422 1.793c-.272.519-.655.927-1.147 1.226-.492.29-1.059.435-1.701.435zm0-.975c.44 0 .822-.106 1.147-.317.326-.211.58-.501.765-.87.193-.369.29-.8.29-1.292s-.097-.923-.29-1.292c-.185-.369-.444-.66-.778-.87-.334-.211-.721-.317-1.16-.317-.431 0-.813.106-1.147.317-.326.21-.585.501-.778.87-.185.369-.277.8-.277 1.292 0 .483.092.914.277 1.292.193.369.457.659.791.87.343.211.729.317 1.16.317zm4.735.817v-6.592h.989l.066 1.213v5.379zm4.628 0v-3.375l1.055-.396v3.771zm0-3.375c0-.651-.075-1.147-.224-1.49-.15-.343-.356-.576-.62-.699-.264-.132-.563-.198-.897-.198-.58 0-1.033.207-1.358.62-.316.404-.474.98-.474 1.727h-.515c0-.694.101-1.292.304-1.793.202-.501.492-.883.87-1.147.387-.264.852-.396 1.397-.396.8 0 1.429.246 1.886.739.466.492.694 1.239.686 2.241zm7.603 3.375-.053-1.226v-8.004h1.055v9.23zm-2.281.158c-.589 0-1.108-.145-1.556-.435-.449-.29-.8-.694-1.055-1.213-.246-.527-.369-1.129-.369-1.806 0-.686.123-1.288.369-1.806.255-.519.606-.923 1.055-1.214.448-.29.967-.435 1.556-.435.553 0 1.037.145 1.45.435.422.291.747.695.976 1.214.228.518.343 1.12.343 1.806 0 .677-.115 1.279-.343 1.806-.229.519-.554.923-.976 1.213-.413.29-.897.435-1.45.435zm.237-.962c.387 0 .73-.106 1.028-.317.299-.21.532-.505.699-.883.176-.378.264-.809.264-1.292 0-.484-.088-.914-.264-1.292-.167-.378-.4-.673-.699-.884-.298-.211-.646-.316-1.041-.316-.413 0-.783.105-1.108.316-.316.211-.567.506-.751.884-.185.378-.277.808-.277 1.292 0 .483.092.914.277 1.292.184.378.439.673.764.883.326.211.695.317 1.108.317z" fill="#030d4f"/><path d="m220.803 110.698h32.0561v142.481h-32.0561z" fill="#296cff"/><path d="m188.747 63.0229h32.0561v190.155h-32.0561z" fill="#ff005c"/><path d="m309.618 279.894-3.705-9.23h1.121l3.757 9.23zm-7.502 0 3.757-9.23h1.134l-3.705 9.23zm1.78-2.624v-1.002h5.129v1.002zm7.947 2.624v-6.592h.989l.066 1.213v5.379zm4.628 0v-3.375l1.055-.396v3.771zm0-3.375c0-.651-.075-1.147-.224-1.49s-.356-.576-.62-.699c-.263-.132-.562-.198-.896-.198-.58 0-1.033.207-1.358.62-.317.404-.475.98-.475 1.727h-.514c0-.694.101-1.292.303-1.793s.492-.883.87-1.147c.387-.264.853-.396 1.398-.396.8 0 1.428.246 1.885.739.466.492.695 1.239.686 2.241zm5.362 6.171c-.422 0-.809-.044-1.161-.132-.343-.079-.637-.172-.883-.277-.237-.097-.409-.18-.514-.251l.395-.857c.114.062.277.136.488.224.211.097.457.176.738.238.291.07.598.105.923.105.422 0 .8-.088 1.134-.263.343-.168.607-.436.791-.805.194-.36.291-.826.291-1.397v-5.973h1.054v5.959c0 .756-.14 1.389-.422 1.899-.281.51-.668.892-1.16 1.147s-1.05.383-1.674.383zm-.04-2.848c-.589 0-1.108-.141-1.556-.422-.448-.282-.8-.673-1.055-1.174-.246-.51-.369-1.09-.369-1.74 0-.668.123-1.253.369-1.754.255-.51.607-.905 1.055-1.187.448-.281.967-.422 1.556-.422.554 0 1.037.141 1.45.422.414.282.734.677.963 1.187.237.501.356 1.086.356 1.754 0 .659-.119 1.239-.356 1.74-.229.501-.549.892-.963 1.174-.413.281-.896.422-1.45.422zm.251-.91c.386 0 .729-.106 1.028-.317s.532-.496.699-.857c.167-.369.25-.795.25-1.279 0-.466-.088-.879-.263-1.239-.167-.369-.4-.655-.699-.857-.29-.211-.633-.317-1.029-.317-.413 0-.782.106-1.107.317-.317.202-.567.488-.752.857-.176.36-.263.773-.263 1.239 0 .484.092.91.276 1.279.185.361.436.646.752.857.325.211.694.317 1.108.317zm4.89.962v-9.23h1.055v9.23zm5.785.158c-.642 0-1.209-.145-1.701-.435-.492-.299-.879-.707-1.16-1.226-.273-.519-.409-1.116-.409-1.793s.136-1.275.409-1.793c.281-.519.663-.923 1.147-1.213.492-.299 1.055-.449 1.688-.449.606 0 1.134.154 1.582.462.457.299.809.721 1.055 1.266s.369 1.186.369 1.925h-1.055c0-.563-.075-1.042-.224-1.438-.15-.404-.374-.716-.673-.936-.29-.219-.646-.329-1.068-.329-.43 0-.813.105-1.147.316-.325.202-.575.492-.751.87s-.264.822-.264 1.332c0 .501.097.936.29 1.305.193.361.462.647.804.857.343.203.73.304 1.161.304.457 0 .844-.11 1.16-.33s.567-.505.752-.857l.923.462c-.167.342-.392.641-.673.896-.272.255-.598.453-.976.594-.369.14-.782.21-1.239.21zm-2.571-3.256.013-.91h4.892v.91z" fill="#030d4f"/><path d="m319.052 84.755h32.0561v168.423h-32.0561z" fill="#296cff"/><path d="m286.996 63.0229h32.0561v190.155h-32.0561z" fill="#ff005c"/><path d="m401.411 280.052c-.879 0-1.657-.202-2.333-.606-.677-.413-1.209-.976-1.596-1.688-.387-.721-.58-1.547-.58-2.479s.189-1.753.567-2.466c.387-.72.914-1.283 1.582-1.687.677-.413 1.451-.62 2.321-.62.554 0 1.085.101 1.595.303.51.194.967.471 1.371.831.405.352.717.76.937 1.226l-.963.488c-.176-.369-.417-.69-.725-.962-.308-.273-.651-.484-1.029-.633-.378-.159-.773-.238-1.186-.238-.642 0-1.218.163-1.728.488-.509.317-.909.756-1.199 1.319-.282.562-.422 1.213-.422 1.951 0 .739.145 1.393.435 1.965.29.571.69 1.019 1.2 1.345.518.316 1.103.474 1.753.474.422 0 .822-.083 1.2-.25.378-.176.717-.413 1.015-.712.308-.299.55-.642.726-1.029l.975.488c-.228.484-.545.914-.949 1.292-.396.378-.853.673-1.371.884-.51.211-1.042.316-1.596.316zm5.31-.158v-9.401h1.055v9.401zm4.641 0v-3.375l1.055-.396v3.771zm0-3.375c0-.651-.079-1.148-.237-1.49-.149-.343-.356-.576-.62-.699-.263-.132-.562-.198-.896-.198-.58 0-1.033.207-1.358.62-.317.404-.475.98-.475 1.727h-.514c0-.694.101-1.292.303-1.793s.497-.884.883-1.147c.387-.264.853-.396 1.398-.396.791 0 1.42.246 1.886.739.465.492.694 1.239.685 2.241zm6.773 3.375-.066-1.081v-2.4c0-.519-.062-.945-.185-1.279-.114-.343-.294-.598-.541-.765-.237-.175-.553-.263-.949-.263-.378 0-.707.074-.989.224-.272.149-.496.382-.672.699l-.95-.383c.176-.307.387-.576.633-.804.246-.229.532-.4.857-.514.334-.123.712-.185 1.134-.185.607 0 1.112.119 1.517.356.404.237.707.593.909 1.068.203.466.299 1.051.291 1.754l-.014 3.573zm-1.978.158c-.774 0-1.38-.176-1.82-.527-.43-.361-.646-.857-.646-1.49 0-.668.22-1.178.659-1.53.449-.36 1.073-.54 1.873-.54h1.885v.883h-1.648c-.615 0-1.055.101-1.318.303-.255.203-.383.493-.383.871 0 .343.128.615.383.817.254.194.61.29 1.068.29.378 0 .707-.088.988-.263.282-.176.497-.414.647-.712.149-.308.224-.655.224-1.042h.646c0 .897-.22 1.613-.659 2.149-.44.528-1.073.791-1.899.791zm5.218-3.731c0-.712.136-1.288.409-1.727.272-.449.62-.778 1.042-.989.43-.22.883-.33 1.358-.33v.989c-.387 0-.761.066-1.121.198-.352.123-.642.329-.87.619-.229.29-.343.686-.343 1.187zm-.58 3.573v-6.593h1.055v6.593zm7.092 2.795c-.422 0-.808-.044-1.16-.132-.343-.079-.637-.171-.883-.276-.238-.097-.409-.181-.515-.251l.396-.857c.114.062.277.136.488.224.211.097.457.176.738.238.29.07.598.105.923.105.422 0 .8-.088 1.134-.264.343-.167.607-.435.791-.804.194-.36.29-.826.29-1.398v-5.973h1.055v5.96c0 .756-.141 1.389-.422 1.899s-.668.892-1.16 1.147-1.051.382-1.675.382zm-.039-2.848c-.589 0-1.108-.14-1.556-.422-.448-.281-.8-.672-1.055-1.173-.246-.51-.369-1.09-.369-1.741 0-.668.123-1.252.369-1.753.255-.51.607-.906 1.055-1.187s.967-.422 1.556-.422c.553 0 1.037.141 1.45.422s.734.677.963 1.187c.237.501.356 1.085.356 1.753 0 .66-.119 1.24-.356 1.741-.229.501-.55.892-.963 1.173-.413.282-.897.422-1.45.422zm.25-.909c.387 0 .73-.106 1.029-.317s.532-.497.699-.857c.167-.369.25-.796.25-1.279 0-.466-.088-.879-.264-1.239-.167-.37-.4-.655-.698-.857-.291-.211-.633-.317-1.029-.317-.413 0-.782.106-1.108.317-.316.202-.566.487-.751.857-.176.36-.264.773-.264 1.239 0 .483.092.91.277 1.279.185.36.435.646.752.857.325.211.694.317 1.107.317zm7.778 1.12c-.641 0-1.208-.145-1.7-.435-.493-.299-.879-.707-1.161-1.226-.272-.519-.409-1.116-.409-1.793s.137-1.275.409-1.794c.282-.518.664-.922 1.147-1.213.493-.298 1.055-.448 1.688-.448.607 0 1.134.154 1.582.462.457.298.809.72 1.055 1.265s.369 1.187.369 1.925h-1.054c0-.562-.075-1.041-.225-1.437-.149-.404-.373-.716-.672-.936-.29-.22-.646-.33-1.068-.33-.431 0-.813.106-1.147.317-.325.202-.576.492-.752.87s-.263.822-.263 1.332c0 .501.096.936.29 1.305.193.361.461.646.804.857.343.202.729.304 1.16.304.457 0 .844-.11 1.161-.33.316-.22.567-.506.751-.857l.923.461c-.167.343-.391.642-.672.897-.273.255-.598.453-.976.593-.369.141-.782.211-1.24.211zm-2.571-3.257.014-.909h4.891v.909z" fill="#030d4f"/><path d="m417.3 244.486h32.0561v8.69282h-32.0561z" fill="#296cff"/><path d="m385.244 253.178h32.0561v.10866h-32.0561z" fill="#ff005c"/><path d="m179.271 313.656v-9.23h1.107v9.23zm-6.343 0v-9.23h1.121v9.23zm.989-4.246v-1.015h5.591v1.015zm10.772 4.246v-8.465h1.108v8.465zm-2.94-8.214v-1.016h6.988v1.016zm11.958 8.214-.066-1.213v-5.38h1.055v6.593zm-4.694-2.822v-3.771h1.055v3.376zm1.055-.395c0 .65.074 1.147.224 1.49.149.343.356.58.619.712.273.123.576.184.91.184.572 0 1.015-.206 1.332-.619.325-.413.488-.989.488-1.728h.514c0 .695-.101 1.293-.303 1.794s-.497.883-.884 1.147c-.378.263-.839.395-1.384.395-.8 0-1.433-.246-1.899-.738-.457-.492-.681-1.24-.672-2.242zm10.701 3.375c-.888 0-1.675-.202-2.36-.606-.686-.405-1.222-.967-1.609-1.688s-.58-1.547-.58-2.479c0-.94.189-1.767.567-2.479.387-.72.919-1.283 1.595-1.687.677-.405 1.46-.607 2.347-.607.888 0 1.671.207 2.347.62.686.404 1.218.967 1.596 1.688.378.712.567 1.533.567 2.465s-.189 1.758-.567 2.479-.906 1.283-1.582 1.688c-.668.404-1.442.606-2.321.606zm0-1.015c.659 0 1.239-.158 1.74-.475.502-.325.893-.769 1.174-1.331.29-.563.435-1.213.435-1.952 0-.729-.145-1.375-.435-1.938-.29-.571-.69-1.015-1.2-1.332-.501-.325-1.085-.488-1.754-.488-.659 0-1.243.163-1.753.488-.51.317-.91.761-1.2 1.332-.29.563-.435 1.209-.435 1.938 0 .739.145 1.389.435 1.952.29.562.694 1.006 1.213 1.331.519.317 1.112.475 1.78.475zm9.565.857v-9.23h1.121v9.23zm1.015-4.048v-1.015h3.956v1.015zm0-4.166v-1.016h4.47v1.016zm6.144 8.214v-9.23h1.121v9.23zm1.016-4.048v-1.015h3.955v1.015zm0-4.166v-1.016h4.47v1.016z" fill="#030d4f"/><path d="m150.781 309.958h12.568" stroke="#296cff" stroke-width="3.29635"/><path d="m285.893 313.656-3.705-9.23h1.121l3.757 9.23zm-7.503 0 3.758-9.23h1.134l-3.705 9.23zm1.78-2.624v-1.002h5.13v1.002zm12.602 0-4.166-6.157.448-.238.528-.211 3.731 5.525zm-4.351 2.624v-9.23h1.121v9.23zm4.351-2.624-.54-1.081 3.731-5.525.528.211.435.224zm3.231 2.624v-9.23h1.107v9.23zm4.387 0v-1.002h2.426c.58 0 1.033-.136 1.358-.409.334-.281.501-.663.501-1.147 0-.519-.189-.927-.567-1.226s-.905-.444-1.582-.435h-2.136v-.936h1.595c.791 0 1.468.101 2.031.303.571.202 1.011.501 1.318.896.308.387.462.866.462 1.438 0 .536-.119.993-.356 1.371-.238.369-.576.655-1.016.857-.43.193-.949.29-1.555.29zm-.818 0v-9.23h1.108v9.23zm.791-4.193v-.989h2.4c.51 0 .91-.136 1.2-.409.29-.272.435-.65.435-1.133 0-.502-.171-.888-.514-1.161-.334-.272-.809-.404-1.424-.395h-2.097v-.95l2.123-.013c.633 0 1.174.101 1.622.303.448.194.795.479 1.042.857.246.37.369.822.369 1.359 0 .509-.132.953-.396 1.331-.263.369-.637.655-1.121.857-.483.202-1.059.304-1.727.304zm7.27 4.193v-9.23h1.121v9.23zm.989 0v-1.015h4.496v1.015zm0-4.232v-1.003h4.087v1.003zm0-3.982v-1.016h4.47v1.016zm7.869 4.588v-1.028h2.109c.334 0 .633-.075.897-.225.264-.158.475-.369.633-.632.167-.273.25-.581.25-.923 0-.528-.184-.954-.553-1.279-.361-.334-.831-.501-1.411-.501h-1.925v-1.016l1.951-.013c.598-.009 1.125.11 1.582.356.466.237.827.571 1.082 1.002.263.422.395.906.395 1.451s-.141 1.028-.422 1.45-.663.756-1.147 1.002c-.483.237-1.028.356-1.635.356zm-1.055 3.626v-9.23h1.121v9.23zm5.208 0-2.215-3.784.883-.58 2.558 4.364zm6.303 0v-9.23h1.121v9.23zm1.016-4.048v-1.015h3.955v1.015zm0-4.166v-1.016h4.469v1.016zm6.144 8.214v-9.23h1.12v9.23zm1.015-4.048v-1.015h3.955v1.015zm0-4.166v-1.016h4.47v1.016z" fill="#030d4f"/><path d="m262.115 309.958h12.569" stroke="#ff005c" stroke-width="3.29635"/></svg>