<svg fill="none" height="59" viewBox="0 0 160 59" width="160" xmlns="http://www.w3.org/2000/svg"><g fill="#fff"><path d="m71.7503 25.6559h-10.399v-11.0789h-8.0917v29.6184h8.0917v-11.271h10.399v11.271h8.1233v-29.6184h-8.1233z"/><path d="m86.0687 19.412h5.2469v15.1454h5.4682v-15.1454h5.2782v-4.835h-15.9933z"/><path d="m119.194 25.816c0 2.7857-1.454 4.0986-3.667 4.0986-2.212 0-3.634-1.3769-3.634-4.2587v-11.1109h-5.532v11.207c0 6.2438 3.509 9.1256 9.103 9.1256 5.595 0 9.261-2.8497 9.261-9.2857v-11.0789h-5.531v11.239z"/><path d="m144.291 13.9687c-9.009 0-15.804 6.8843-15.804 15.4015v.0961c0 8.5173 6.669 15.3055 15.709 15.3055s15.804-6.8843 15.804-15.4016v-.096c0-8.5173-6.669-15.3055-15.709-15.3055zm7.396 15.4976c0 4.2586-2.971 7.9089-7.396 7.9089s-7.523-3.7143-7.523-8.005v-.096c0-4.2587 2.971-7.9089 7.428-7.9089s7.491 3.6823 7.491 8.0049z"/><path d="m33.2516 14.0327c.3161-.0961.6322-.1921.9483-.3522.1264-.0641.2528-.1281.3793-.2242.2212-.128.4425-.2241.6637-.3842.3477-.2241.6638-.5123.9799-.8005.3793-.3842.6954-.8005.9798-1.2488 0-.032.0632-.096.0632-.1601.2213-.3522.3793-.7044.5374-1.08863.0316-.09606.0632-.1601.0948-.25616.1264-.35222.2213-.70444.2845-1.05666 0-.12808 0-.25616.0316-.41626.0316-.28818.0948-.60838.0948-.89655 0 0 0-.03202 0-.06404 0-.09606 0-.19212 0-.28818-.0316-.67242-.158-1.2808-.3477-1.88918-.0632-.1601-.0948-.35221-.158-.51231s-.1581-.28818-.2213-.41626c-.2844-.57636-.6637-1.15272-1.1063-1.63301-.0632-.06404-.0948-.12808-.158-.19212 0 0 0-.03202-.0316-.06404-.2213-.22414-.4741-.38424-.6954-.57636-.0948-.09606-.1896-.19212-.3161-.25616-.316-.22414-.6321-.384239-.9482-.544338-.0632-.03202-.158-.09606-.2213-.128079-.3793-.1601-.7586-.288179-1.1379-.384239-.0632 0-.0948-.03202-.158-.03202-1.0114-.2241388-2.0545-.2241388-3.066 0-.0632 0-.1264.03202-.1896.06404-.4425.12808-.885.256159-1.296.480298 0 0 0 0-.0316 0-.6953.352218-1.3591.800498-1.9597 1.376858-.1896.19212-.316.41625-.4741.60837v.03202c-.2212.28818-.4425.60838-.6005.89656 0 .03202-.0633.09606-.0633.1601-.158.28818-.316.60838-.4109.89656-.0632.1601-.0948.32019-.158.51231-.0632.22414-.1264.44828-.1896.6404-.0633.41626-.1265.8005-.1265 1.24878v.06404.1601c0 .09605 0 .22413.0316.32019 0 .3202.0632.67242.1265.99262.0316.19212.0948.38424.158.57636.0632.25616.1264.4803.2213.73645.0948.22414.2212.44824.3476.67244.0949.1601.1897.3522.2845.5123.1897.2882.3793.5443.6006.7685.0632.096.1264.1601.1896.2561.0316.0321.0632.0961.0948.1281 0 0 .0317 0 .0633.032.3477.3523.7586.6725 1.1695.9286.0632.032.0948.064.158.0961.3793.2561.8218.4482 1.2643.6083.727.2562 1.5172.4483 2.339.4483.2529 0 .5058-.064.7586-.064h.0316c.3477-.032.727-.0961 1.0747-.1921.0632 0 .0948-.0321.158-.0321zm-.6637-3.5222c-.3477.1601-.7586.2242-1.1695.2242-.1265 0-.2845 0-.4109 0-.411 0-.8219-.0961-1.1695-.2242-.3477-.1601-.6954-.3842-.9799-.6724-.0948-.09606-.2213-.19211-.3161-.32019-.2528-.3202-.5057-.6404-.6637-.99262-.1581-.38424-.2213-.76848-.2529-1.18474 0-.12807 0-.25615 0-.38423 0-.41626.0948-.83252.2529-1.21676.158-.35222.3792-.67242.6321-.99261.0948-.12808.2213-.22414.3161-.3202.2845-.25616.6322-.51232.9798-.6404.3793-.1601.7902-.22414 1.2012-.25616h.3792c.411 0 .8219.09606 1.1695.25616.3477.1601.6954.38424.9799.67242.0948.09606.1896.19212.2845.28818.2844.32019.5057.64039.6637 1.02463.1581.35222.1897.76848.2213 1.15272v.48029c0 .41626-.0948.8005-.2213 1.15272-.158.38424-.3793.70444-.6637 1.02464-.0949.09606-.1581.19212-.2529.25615-.3161.2882-.6322.5123-1.0115.6724z"/><path d="m26.4243 37.3752c1.5488-2.3374 2.4655-5.1552 2.4655-8.197 0-4.1306-1.6752-7.8129-4.3935-10.4705l2.2125-2.8818c-.158-.0961-.3477-.1281-.4741-.2242-.0632-.032-.158-.064-.2213-.128-.5689-.3843-1.1378-.8005-1.612-1.2808 0 0-.0632-.0321-.0632-.0641-.0632-.064-.0948-.1281-.1264-.1601 0 0 0 0 0-.032l-2.1494 2.8178 1.0115.8005c-.3477-.2562-.6638-.5764-1.0431-.8005-2.2125-1.3769-4.7728-2.2094-7.5543-2.2094-3.0028 0-5.78428.9286-8.09167 2.4975-3.85618 2.6257-6.38483 7.1084-6.38483 12.1676 0 4.0345 1.61201 7.7168 4.23548 10.3744.66377.6724 1.35915 1.2488 2.14935 1.7931 2.30739 1.569 5.08887 2.4976 8.09167 2.4976 2.7499 0 5.3102-.8325 7.5227-2.1774l2.1178 2.7858s.1896-.2562.2844-.3523c.6638-.6724 1.4224-1.1847 2.2126-1.601l-2.0861-2.7537c.727-.7044 1.3907-1.4729 1.9597-2.3374zm-4.8992-1.5049c-.727.8005-1.5804 1.4409-2.497 1.9532-1.3592.7685-2.908 1.2168-4.5832 1.2168-5.37338 0-9.7353-4.4188-9.7353-9.8621 0-5.4434 4.36192-9.8622 9.7353-9.8622 1.6752 0 3.2556.4803 4.6148 1.2488.9482.5123 1.77 1.1527 2.497 1.9532 1.612 1.7611 2.5919 4.0986 2.5919 6.6602s-1.0115 4.931-2.6235 6.6921z"/><path d="m33.2516 57.9319c.3161-.096.6322-.1921.9483-.3522.1264-.064.2528-.1281.3793-.2241.2212-.1281.4425-.2242.6637-.3843.3477-.2241.6638-.5123.9799-.8005.3793-.3842.6954-.8005.9798-1.2487 0-.0321.0632-.0961.0632-.1601.2213-.3522.3793-.7045.5374-1.0887.0316-.0961.0632-.1601.0948-.2562.1264-.3522.2213-.7044.2845-1.0566 0-.1281 0-.2562.0316-.4163.0316-.2882.0948-.6084.0948-.8965 0 0 0-.0321 0-.0641 0-.096 0-.1921 0-.2882-.0316-.6724-.158-1.2807-.3477-1.8891-.0632-.1601-.0948-.3522-.158-.5123s-.1581-.2882-.2213-.4163c-.2844-.5764-.6637-1.1527-1.1063-1.633-.0632-.0641-.0948-.1281-.158-.1921 0 0 0-.0321-.0316-.0641-.2213-.2241-.4741-.3842-.6954-.5763-.0948-.0961-.1896-.1922-.3161-.2562-.316-.2241-.6321-.3842-.9482-.5443-.0632-.032-.158-.0961-.2213-.1281-.3793-.1601-.7586-.2882-1.1379-.3842-.0632 0-.0948-.0321-.158-.0321-1.0114-.2241-2.0545-.2241-3.066 0-.0632 0-.1264.0321-.1896.0641-.4425.1281-.885.2561-1.296.4803 0 0 0 0-.0316 0-.6953.3522-1.3591.8005-1.9597 1.3768-.1896.1921-.316.4163-.4741.6084v.032c-.2212.2882-.4425.6084-.6005.8966 0 .032-.0633.096-.0633.1601-.158.2882-.316.6084-.4109.8965-.0632.1601-.0948.3202-.158.5124-.0632.2241-.1264.4482-.1896.6404-.0633.4162-.1265.8004-.1265 1.2487v.0641.1601c0 .096 0 .2241.0316.3202 0 .3202.0632.6724.1265.9926.0316.1921.0948.3842.158.5763.0632.2562.1264.4803.2213.7365.0948.2241.2212.4483.3476.6724.0949.1601.1897.3522.2845.5123.1897.2882.3793.5444.6006.7685.0632.0961.1264.1601.1896.2562.0316.032.0632.096.0948.128 0 0 .0317 0 .0633.0321.3477.3522.7586.6724 1.1695.9285.0632.0321.0948.0641.158.0961.3793.2562.8218.4483 1.2643.6084.727.2561 1.5172.4483 2.339.4483.2529 0 .5058-.0641.7586-.0641h.0316c.3477-.032.727-.096 1.0747-.1921.0632 0 .0948-.032.158-.032zm-.6637-3.5221c-.3477.1601-.7586.2241-1.1695.2241-.1265 0-.2845 0-.4109 0-.411 0-.8219-.0961-1.1695-.2241-.3477-.1601-.6954-.3843-.9799-.6725-.0948-.096-.2213-.1921-.3161-.3202-.2528-.3202-.5057-.6404-.6637-.9926-.1581-.3842-.2213-.7685-.2529-1.1847 0-.1281 0-.2562 0-.3843 0-.4162.0948-.8325.2529-1.2167.158-.3522.3792-.6724.6321-.9926.0948-.1281.2213-.2242.3161-.3202.2845-.2562.6322-.5123.9798-.6404.3793-.1601.7902-.2242 1.2012-.2562h.3792c.411 0 .8219.0961 1.1695.2562.3477.1601.6954.3842.9799.6724.0948.0961.1896.1921.2845.2882.2844.3202.5057.6404.6637 1.0246.1581.3522.1897.7685.2213 1.1527v.4803c0 .4163-.0948.8005-.2213 1.1527-.158.3843-.3793.7045-.6637 1.0247-.0949.096-.1581.1921-.2529.2561-.3161.2882-.6322.5124-1.0115.6725z"/><path d="m124.725 39.0402h-38.6563v4.771h38.6563z"/></g></svg>