<?xml version="1.0" encoding="UTF-8" standalone="no"?>
<!-- Created with Inkscape (http://www.inkscape.org/) -->

<svg
   version="1.1"
   id="svg1"
   width="500"
   height="198.59236"
   viewBox="0 0 500.00002 198.59237"
   xmlns="http://www.w3.org/2000/svg"
   xmlns:svg="http://www.w3.org/2000/svg">
  <defs
     id="defs1">
    <clipPath
       clipPathUnits="userSpaceOnUse"
       id="clipPath4">
      <path
         d="M 0,1000 H 1000 V 0 H 0 Z"
         transform="translate(-323.80881,-560.40011)"
         id="path4" />
    </clipPath>
    <clipPath
       clipPathUnits="userSpaceOnUse"
       id="clipPath6">
      <path
         d="M 0,1000 H 1000 V 0 H 0 Z"
         transform="translate(-376.01151,-560.35772)"
         id="path6" />
    </clipPath>
    <clipPath
       clipPathUnits="userSpaceOnUse"
       id="clipPath8">
      <path
         d="M 0,1000 H 1000 V 0 H 0 Z"
         transform="translate(-824.63342,-479.46121)"
         id="path8" />
    </clipPath>
    <clipPath
       clipPathUnits="userSpaceOnUse"
       id="clipPath10">
      <path
         d="M 0,1000 H 1000 V 0 H 0 Z"
         transform="translate(-424.48191,-455.33181)"
         id="path10" />
    </clipPath>
    <clipPath
       clipPathUnits="userSpaceOnUse"
       id="clipPath12">
      <path
         d="M 0,1000 H 1000 V 0 H 0 Z"
         transform="translate(-672.01702,-455.33181)"
         id="path12" />
    </clipPath>
    <clipPath
       clipPathUnits="userSpaceOnUse"
       id="clipPath14">
      <path
         d="M 0,1000 H 1000 V 0 H 0 Z"
         transform="translate(-597.48361,-530.71251)"
         id="path14" />
    </clipPath>
    <clipPath
       clipPathUnits="userSpaceOnUse"
       id="clipPath16">
      <path
         d="M 0,1000 H 1000 V 0 H 0 Z"
         transform="translate(-293.19861,-560.38511)"
         id="path16" />
    </clipPath>
    <clipPath
       clipPathUnits="userSpaceOnUse"
       id="clipPath18">
      <path
         d="M 0,1000 H 1000 V 0 H 0 Z"
         transform="translate(-184.71321,-455.42421)"
         id="path18" />
    </clipPath>
    <clipPath
       clipPathUnits="userSpaceOnUse"
       id="clipPath20">
      <path
         d="M 0,1000 H 1000 V 0 H 0 Z"
         transform="translate(-269.83351,-530.74221)"
         id="path20" />
    </clipPath>
    <clipPath
       clipPathUnits="userSpaceOnUse"
       id="clipPath22">
      <path
         d="M 0,1000 H 1000 V 0 H 0 Z"
         transform="translate(-251.35491,-507.28151)"
         id="path22" />
    </clipPath>
    <clipPath
       clipPathUnits="userSpaceOnUse"
       id="clipPath24">
      <path
         d="M 0,1000 H 1000 V 0 H 0 Z"
         transform="translate(-247.23201,-469.28631)"
         id="path24" />
    </clipPath>
    <clipPath
       clipPathUnits="userSpaceOnUse"
       id="clipPath26">
      <path
         d="M 0,1000 H 1000 V 0 H 0 Z"
         transform="translate(-205.78651,-543.85811)"
         id="path26" />
    </clipPath>
    <clipPath
       clipPathUnits="userSpaceOnUse"
       id="clipPath28">
      <path
         d="M 0,1000 H 1000 V 0 H 0 Z"
         transform="translate(-264.943,-482.10621)"
         id="path28" />
    </clipPath>
  </defs>
  <g
     id="g1"
     transform="translate(-416.66664,-593.07432)">
    <g
       id="group-MC0">
      <g
         id="g28"
         style="fill:#000000">
        <path
           id="path3"
           d="m 0,0 h -10.849 c -1.421,0 -2.572,-1.152 -2.572,-2.573 v -115.655 c 0,-1.421 1.151,-2.572 2.572,-2.572 H 0 c 1.421,0 2.573,1.151 2.573,2.572 V -2.573 C 2.573,-1.152 1.421,0 0,0"
           style="fill:#000000;fill-opacity:1;fill-rule:nonzero;stroke:none"
           transform="matrix(0.66666665,0,0,-0.66666665,549.20597,650.39993)"
           clip-path="url(#clipPath4)" />
        <path
           id="path5"
           d="m 0,0 -6.168,0.042 h -17.906 c -2.675,0 -5.346,-1.268 -6.803,-3.228 l -11.969,-15.1 c -1.336,-1.687 -0.135,-4.171 2.016,-4.171 h 22.429 c 3.911,0 7.603,1.807 10.002,4.896 L 2.014,-4.15 C 3.322,-2.467 2.132,-0.015 0,0"
           style="fill:#000000;fill-opacity:1;fill-rule:nonzero;stroke:none"
           transform="matrix(0.66666665,0,0,-0.66666665,584.00777,650.4282)"
           clip-path="url(#clipPath6)" />
        <path
           id="path7"
           d="m 0,0 c -0.056,0.338 -0.115,0.676 -0.181,1.007 -0.331,1.61 -0.829,3.175 -1.524,4.784 -3.581,8.164 -11.743,14.192 -24.256,17.915 l -31.318,9.995 c -1.865,0.596 -3.44,1.21 -4.818,1.878 -6.368,3.087 -9.333,6.917 -9.333,12.054 0,1.846 0.454,3.733 1.35,5.607 1.057,2.202 2.829,4.249 5.123,5.922 0.219,0.161 0.442,0.319 0.673,0.478 5.881,4.103 13.246,6.376 20.736,6.402 13.104,-0.017 22.358,-5.591 26.166,-8.377 1.12,-0.819 2.692,-0.586 3.551,0.503 l 6.021,7.63 c 0.91,1.154 0.666,2.833 -0.523,3.698 -3.295,2.399 -6.631,4.355 -9.945,5.831 -8.364,3.724 -17.438,5.612 -26.968,5.612 -2.055,0 -4.135,-0.095 -6.18,-0.282 -8.271,-0.755 -16.173,-3.967 -22.851,-9.286 -6.818,-5.435 -10.991,-11.78 -12.407,-18.861 -0.362,-1.811 -0.546,-3.661 -0.546,-5.501 0,-1.458 0.121,-2.888 0.369,-4.372 0.066,-0.4 0.952,-4.046 1.703,-5.787 3.58,-8.164 11.742,-14.192 24.256,-17.915 L -29.58,8.939 c 1.855,-0.593 3.43,-1.206 4.816,-1.877 6.366,-3.088 9.331,-6.919 9.331,-12.054 0,-1.854 -0.458,-3.746 -1.359,-5.623 -1.058,-2.199 -2.833,-4.247 -5.134,-5.921 -5.37,-3.908 -11.679,-6.456 -18.242,-7.368 l -0.253,-0.031 c -0.544,-0.075 -1.077,-0.137 -1.586,-0.183 l -0.525,-0.039 c -0.442,-0.037 -0.919,-0.075 -1.399,-0.097 -0.396,-0.02 -0.797,-0.026 -1.321,-0.033 l -0.642,-0.015 c -12.096,0 -23.213,4.586 -30.502,12.582 l -0.259,0.277 c -1.027,1.1 -2.772,1.09 -3.786,-0.021 l -6.571,-7.201 c -0.914,-1.002 -0.891,-2.539 0.041,-3.525 10.022,-10.615 23.563,-16.843 38.394,-17.604 0.941,-0.043 1.854,-0.066 2.716,-0.067 l 0.243,0.004 c 0.643,0.002 1.285,0.024 1.943,0.049 0.551,0.025 1.123,0.061 1.652,0.105 7.264,0.48 14.227,2.289 20.7,5.377 l 1.323,0.653 c 2.322,1.186 4.609,2.71 7.414,4.943 6.82,5.435 10.994,11.78 12.406,18.861 0.362,1.811 0.547,3.662 0.547,5.501 C 0.367,-2.943 0.244,-1.473 0,0"
           style="fill:#000000;fill-opacity:1;fill-rule:nonzero;stroke:none"
           transform="matrix(0.66666665,0,0,-0.66666665,883.08904,704.3592)"
           clip-path="url(#clipPath8)" />
        <path
           id="path9"
           d="m 0,0 c -23.012,0 -41.038,19.621 -41.038,44.669 0,25.047 18.026,44.667 41.038,44.667 23.013,0 41.04,-19.62 41.04,-44.667 C 41.04,19.621 23.013,0 0,0 m 0,105.068 c -15.303,0 -29.625,-6.182 -40.327,-17.409 -10.786,-11.315 -16.727,-26.583 -16.727,-42.99 0,-16.408 5.941,-31.676 16.727,-42.991 10.702,-11.227 25.024,-17.41 40.327,-17.41 15.302,0 29.623,6.183 40.326,17.41 10.786,11.315 16.727,26.582 16.728,42.99 0,16.407 -5.941,31.675 -16.727,42.99 C 29.624,98.885 15.302,105.068 0,105.068"
           style="fill:#000000;fill-opacity:1;fill-rule:nonzero;stroke:none"
           transform="matrix(0.66666665,0,0,-0.66666665,616.32137,720.44547)"
           clip-path="url(#clipPath10)" />
        <path
           id="path11"
           d="m 0,0 c -23.012,0 -41.039,19.621 -41.039,44.669 0,25.047 18.027,44.667 41.039,44.667 23.013,0 41.04,-19.62 41.04,-44.667 C 41.04,19.621 23.013,0 0,0 m 0,105.068 c -15.303,0 -29.625,-6.182 -40.327,-17.409 -10.786,-11.315 -16.727,-26.583 -16.727,-42.99 0,-16.408 5.941,-31.676 16.727,-42.991 10.702,-11.227 25.024,-17.41 40.327,-17.41 15.302,0 29.623,6.183 40.325,17.41 10.787,11.315 16.728,26.582 16.728,42.99 0,16.407 -5.94,31.675 -16.727,42.99 C 29.625,98.885 15.303,105.068 0,105.068"
           style="fill:#000000;fill-opacity:1;fill-rule:nonzero;stroke:none"
           transform="matrix(0.66666665,0,0,-0.66666665,781.34477,720.44547)"
           clip-path="url(#clipPath12)" />
        <path
           id="path13"
           d="m 0,0 c -10.181,19.255 -29.717,29.583 -49.392,29.688 l -0.048,-0.227 v 0.227 C -69.115,29.583 -88.651,19.255 -98.833,0 c 0.116,-0.029 -0.115,-0.069 0,-0.099 -3.334,-6.847 -4.862,-14.507 -4.862,-22.587 0,0 -0.001,-53.408 0,-65.855 0,-1.424 1.154,-2.572 2.578,-2.572 h 10.57 c 1.424,0 2.578,1.155 2.578,2.579 v 65.032 c -0.152,20.944 17.776,37.626 38.529,37.543 v 0.388 l 0.048,-0.388 c 20.752,0.083 38.68,-16.599 38.528,-37.543 v -65.032 c 0,-1.424 1.155,-2.579 2.579,-2.579 H 2.284 c 1.424,0 2.579,1.148 2.579,2.572 0,12.447 0,65.855 0,65.855 0,8.08 -1.529,15.74 -4.863,22.587 0.115,0.03 -0.116,0.07 0,0.099"
           style="fill:#000000;fill-opacity:1;fill-rule:nonzero;stroke:none"
           transform="matrix(0.66666665,0,0,-0.66666665,731.65584,670.19167)"
           clip-path="url(#clipPath14)" />
        <path
           id="path15"
           d="m 0,0 -21.958,0.015 c -2.414,0 -4.956,-1.138 -6.262,-2.881 l -8.853,-11.282 c -1.38,-1.758 -3.495,-2.786 -5.745,-2.787 -9.953,-0.002 -33.24,-0.006 -37.317,-0.007 1.864,-2.361 4.723,-3.74 7.75,-3.74 h 55.176 c 3.946,0 7.672,1.802 10.095,4.883 L 2.049,-4.15 C 3.377,-2.462 2.162,-0.001 0,0"
           style="fill:#000000;fill-opacity:1;fill-rule:nonzero;stroke:none"
           transform="matrix(0.66666665,0,0,-0.66666665,528.79917,650.40993)"
           clip-path="url(#clipPath16)" />
        <path
           id="path17"
           d="m 0,0 -9.162,-11.676 c -1.327,-1.69 -0.108,-4.15 2.055,-4.148 l 21.955,0.02 c 2.414,0 4.956,1.139 6.262,2.881 L 31.791,0.688 c 1.344,1.713 0.11,4.206 -2.081,4.206 H 10.103 C 6.152,4.894 2.423,3.088 0,0"
           style="fill:#000000;fill-opacity:1;fill-rule:nonzero;stroke:none"
           transform="matrix(0.66666665,0,0,-0.66666665,456.47557,720.38387)"
           clip-path="url(#clipPath18)" />
        <path
           id="path19"
           d="m 0,0 h -22.4 c -1.861,0 -3.643,-0.701 -5.015,-1.975 -0.38,-0.354 -0.691,-0.702 -0.924,-1.028 l -4.27,-5.386 c -1.185,-1.494 -2.998,-2.368 -4.918,-2.368 l -27.451,-0.003 h -0.892 l 0.445,-0.565 c 1.583,-2.004 4.01,-3.176 6.581,-3.176 h 46.47 c 3.932,0 7.645,1.789 10.069,4.851 l 4.351,5.493 C 3.382,-2.469 2.167,0 0,0"
           style="fill:#000000;fill-opacity:1;fill-rule:nonzero;stroke:none"
           transform="matrix(0.66666665,0,0,-0.66666665,513.22244,670.17187)"
           clip-path="url(#clipPath20)" />
        <path
           id="path21"
           d="m 0,0 h -22.358 c -2.065,0 -4.013,-0.796 -5.557,-2.322 l -6.572,-7.984 c -1.383,-1.679 -0.175,-4.194 2.015,-4.194 h 20.096 c 3.93,0 7.642,1.787 10.067,4.847 l 4.354,5.496 C 3.382,-2.47 2.167,0 0,0"
           style="fill:#000000;fill-opacity:1;fill-rule:nonzero;stroke:none"
           transform="matrix(0.66666665,0,0,-0.66666665,500.90337,685.81233)"
           clip-path="url(#clipPath22)" />
        <path
           id="path23"
           d="m 0,0 c -1.864,2.36 -4.723,3.74 -7.75,3.74 h -7.304 c -0.997,0 -1.556,1.136 -0.933,1.906 1.579,1.952 3.764,4.689 3.764,4.689 1.337,1.687 0.122,4.157 -2.045,4.157 h -2.441 -20.023 c -2.066,0 -4.012,-0.794 -5.559,-2.322 l -6.51,-7.994 c -1.37,-1.682 -0.159,-4.184 2.024,-4.184 z"
           style="fill:#000000;fill-opacity:1;fill-rule:nonzero;stroke:none"
           transform="matrix(0.66666665,0,0,-0.66666665,498.15477,711.14247)"
           clip-path="url(#clipPath24)" />
        <path
           id="path25"
           d="m 0,0 -10.605,13.41 c -1.372,1.903 -3.595,3.038 -5.938,3.038 l -11.491,0.051 c -2.173,0.01 -3.398,-2.467 -2.056,-4.158 l 9.242,-11.654 c 2.425,-3.057 6.135,-4.843 10.063,-4.843 h 8.738 C 0.119,-4.156 1.335,-1.688 0,0"
           style="fill:#000000;fill-opacity:1;fill-rule:nonzero;stroke:none"
           transform="matrix(0.66666665,0,0,-0.66666665,470.52444,661.42793)"
           clip-path="url(#clipPath26)" />
        <path
           id="path27"
           d="m 0,0 c -1.277,1.002 -2.866,1.577 -4.519,1.577 l -11.458,0.065 c -2.173,0.012 -3.401,-2.463 -2.061,-4.156 l 29.291,-37.018 c 1.485,-1.882 3.72,-2.961 6.132,-2.961 h 10.869 c 2.16,0 3.377,2.457 2.054,4.146 L 1.418,-1.459 C 1.015,-0.9 0.532,-0.417 0,0"
           style="fill:#000000;fill-opacity:1;fill-rule:nonzero;stroke:none"
           transform="matrix(0.66666665,0,0,-0.66666665,509.9621,702.59587)"
           clip-path="url(#clipPath28)" />
      </g>
    </g>
  </g>
</svg>
